<svg xmlns="http://www.w3.org/2000/svg" width="47.581" height="67.835" viewBox="0 0 47.581 67.835"><defs><style>.a{fill:#fff;}</style></defs><g transform="translate(-22.441 -4.754)"><path class="a" d="M83.824,64.194a1,1,0,1,0-1.412,1.421c.75.744,1.483,1.546,2.181,2.387a1,1,0,1,0,1.542-1.28C85.394,65.833,84.616,64.982,83.824,64.194Z" transform="translate(-25.512 -25.287)"/><path class="a" d="M69.762,50.308A38.413,38.413,0,0,0,59.256,35.08a16.162,16.162,0,0,0,3.1-7.744,4.722,4.722,0,0,0-.877-9.361,4.64,4.64,0,0,0-.761.066,16.265,16.265,0,0,0-13.581-8.88,1.007,1.007,0,0,0-.222-.026A1.431,1.431,0,0,1,45.484,7.7a.947.947,0,0,1,.946-.946.557.557,0,0,1,.556.556,1,1,0,0,0,2,0,2.563,2.563,0,0,0-2.56-2.56A2.953,2.953,0,0,0,43.479,7.7a3.4,3.4,0,0,0,.4,1.6,16.283,16.283,0,0,0-12.134,8.735,4.64,4.64,0,0,0-.761-.066,4.714,4.714,0,0,0-.879,9.348,16.17,16.17,0,0,0,3.539,8.317A38.3,38.3,0,0,0,22.7,51.254a4.453,4.453,0,0,0,8.326,3.157,14.655,14.655,0,0,1,.662-1.477l.827,4.517a5.89,5.89,0,0,0-3.133,8.18l2.095,4.1a5.278,5.278,0,0,0,4.694,2.858A5.2,5.2,0,0,0,40.5,70.275c.273.1.549.194.828.275l1.755.5a11.308,11.308,0,0,0,6.3,0l1.761-.5q.416-.121.824-.274a5.2,5.2,0,0,0,4.324,2.314,5.279,5.279,0,0,0,4.694-2.858l2.095-4.1a5.89,5.89,0,0,0-3.135-8.181l.951-5.21q.3.609.538,1.221a4.415,4.415,0,0,0,4.125,2.805,5.037,5.037,0,0,0,.663-.051,4.455,4.455,0,0,0,3.538-5.906ZM64.2,22.695a2.719,2.719,0,0,1-1.723,2.523,16.163,16.163,0,0,0-.921-5.236A2.719,2.719,0,0,1,64.2,22.695Zm-35.929,0a2.719,2.719,0,0,1,2.645-2.712,16.151,16.151,0,0,0-.921,5.224,2.7,2.7,0,0,1-1.724-2.512ZM46.233,11.138a14.24,14.24,0,1,1-14.239,14.24,14.241,14.241,0,0,1,14.239-14.24ZM37.214,70.411a3.258,3.258,0,0,1-3.946-1.592l-2.1-4.1A3.893,3.893,0,1,1,38.456,62.2l.886,4.519a3.258,3.258,0,0,1-2.128,3.692Zm24.242-8.873a3.893,3.893,0,0,1-.16,3.182l-2.1,4.1a3.245,3.245,0,0,1-6.074-2.1l.886-4.519a3.893,3.893,0,0,1,7.442-.664Zm6.214-8.467a2.433,2.433,0,0,1-1.725,1.161,2.462,2.462,0,0,1-2.637-1.488,18.319,18.319,0,0,0-2.094-3.882l0,0A22.833,22.833,0,0,0,57.123,44.4a1,1,0,0,0-1.295,1.529,21.085,21.085,0,0,1,3.5,3.758l-1.346,7.374a5.9,5.9,0,0,0-5.937,4.758l-.885,4.519a5.189,5.189,0,0,0,.024,2.093c-.2.071-.4.14-.595.2l-1.76.5a9.315,9.315,0,0,1-5.192,0l-1.755-.5c-.2-.057-.4-.127-.6-.2a5.186,5.186,0,0,0,.024-2.092l-.885-4.519a5.9,5.9,0,0,0-5.938-4.759l-1.212-6.622a21.357,21.357,0,0,1,3.365-3.565,1,1,0,0,0-1.293-1.531,23.279,23.279,0,0,0-3.954,4.26h0a18.6,18.6,0,0,0-2.233,4.093,2.416,2.416,0,0,1-2.62,1.485,2.462,2.462,0,0,1-2.094-2.423,2.491,2.491,0,0,1,.148-.832A36.745,36.745,0,0,1,35.013,37.1a16.2,16.2,0,0,0,22.947-.5,36.311,36.311,0,0,1,9.913,14.378,2.45,2.45,0,0,1-.2,2.09Z"/><path class="a" d="M55.25,50.5a1,1,0,1,0-1.92.572c.838,2.813,3.664,4.072,6.092,4.072s5.254-1.259,6.092-4.072a1,1,0,1,0-1.92-.572c-.544,1.824-2.487,2.64-4.172,2.64S55.794,52.319,55.25,50.5Z" transform="translate(-13.188 -19.249)"/><path class="a" d="M69.931,35.071A1,1,0,0,0,71.3,34.7a1.912,1.912,0,0,1,3.39,0,1,1,0,1,0,1.74-.994,3.915,3.915,0,0,0-6.87,0,1,1,0,0,0,.374,1.367Z" transform="translate(-20.087 -11.506)"/><path class="a" d="M46.623,35.071A1,1,0,0,0,47.99,34.7a1.912,1.912,0,0,1,3.39,0,1,1,0,0,0,1.74-.994,3.915,3.915,0,0,0-6.87,0,1,1,0,0,0,.373,1.367Z" transform="translate(-10.122 -11.506)"/></g></svg>