<svg width="32" height="38" viewBox="0 0 32 38" fill="none" xmlns="http://www.w3.org/2000/svg">
    <path d="M15.613 37.987C24.2358 37.987 31.226 35.7865 31.226 33.072C31.226 30.3575 24.2358 28.157 15.613 28.157C6.99018 28.157 0 30.3575 0 33.072C0 35.7865 6.99018 37.987 15.613 37.987Z" fill="#DFDFDF"/>
    <path d="M29.6639 29.763C29.5879 29.393 29.449 28.263 28.923 28.185C28.2 28.074 27.811 28.968 27.269 29.299C26.761 29.609 26.291 29.299 25.869 29.012C25.491 28.751 25.126 28.473 24.769 28.185C24.169 27.704 23.629 27.158 23.049 26.655C23.0435 25.806 22.9459 24.96 22.7579 24.132C22.5548 23.2502 22.2375 22.3987 21.814 21.599C21.4956 21.1237 21.2712 20.5918 21.153 20.032C21.1378 19.8924 21.1476 19.7512 21.182 19.615C21.8566 19.1864 22.4809 18.6833 23.043 18.115C23.4976 17.6971 23.8651 17.1934 24.1242 16.6328C24.3834 16.0723 24.5291 15.4661 24.553 14.849C24.476 13.516 22.414 14.459 21.783 14.68C20.7498 15.0216 19.7558 15.4722 18.8179 16.024C17.9588 16.2228 17.1121 16.4715 16.282 16.769C15.302 17.076 14.324 17.393 13.34 17.687C12.4215 17.9825 11.4637 18.1376 10.499 18.147C9.98445 18.1364 9.47239 18.0728 8.97095 17.957C8.72995 17.904 8.49294 17.824 8.25294 17.757C7.83324 17.4808 7.38864 17.2444 6.92493 17.051C6.21982 16.734 5.48213 16.4952 4.72498 16.339C4.37198 16.264 3.45796 15.992 3.33896 16.57C3.32412 17.1805 3.48147 17.7828 3.79297 18.308C4.38936 19.7083 5.22974 20.9916 6.27497 22.098C6.58446 22.4321 6.91874 22.7423 7.27497 23.026C7.93997 24.306 7.40696 25.947 7.36396 27.357C7.35149 27.7493 7.36751 28.142 7.41193 28.532C6.98637 29.4316 6.41656 30.2554 5.72498 30.971L5.06696 31.771C4.83496 32.054 4.54897 32.606 4.12397 32.549C3.79799 32.4788 3.47774 32.3842 3.16596 32.266C2.78996 32.153 2.41296 32.043 2.03696 31.932C2.01056 31.9252 1.98286 31.9255 1.95658 31.9327C1.93029 31.9399 1.90633 31.9538 1.88706 31.9731C1.86779 31.9924 1.85386 32.0163 1.84666 32.0426C1.83945 32.0689 1.8392 32.0966 1.84595 32.123C2.07274 33.3028 2.55579 34.4184 3.26096 35.391C3.559 35.8538 3.96319 36.2388 4.43995 36.514C4.68812 36.6089 4.95309 36.6522 5.21857 36.6412C5.48406 36.6302 5.74448 36.5651 5.98395 36.45C7.29486 35.9533 8.62987 35.5228 9.98395 35.16C10.599 35.008 11.219 34.881 11.842 34.767L12.1929 34.714C13.0849 34.586 13.978 34.4667 14.872 34.356C16.572 34.143 18.272 33.984 19.981 33.868C21.631 33.756 23.2809 33.696 24.9379 33.668C25.7709 33.656 26.6029 33.668 27.4379 33.668C27.5279 33.668 27.618 33.668 27.709 33.668C28.1877 33.7653 28.6832 33.7392 29.1489 33.592C29.3704 33.4723 29.5544 33.2937 29.6806 33.0759C29.8068 32.8581 29.8702 32.6096 29.864 32.358C29.9303 31.4879 29.8629 30.6127 29.6639 29.763Z" fill="#C1E6F4"/>
    <path d="M7.48981 30.258C7.97481 30.641 8.47183 31.01 8.95483 31.395C8.96969 31.4099 8.9898 31.4182 9.0108 31.4182C9.03181 31.4182 9.05198 31.4099 9.06683 31.395C9.08169 31.3802 9.09003 31.36 9.09003 31.339C9.09003 31.318 9.08169 31.2979 9.06683 31.283C8.35136 30.4715 7.80711 29.5239 7.4668 28.497C7.4328 28.383 7.40381 28.27 7.37781 28.156C7.38581 28.283 7.39683 28.41 7.41083 28.537C7.21906 29.0166 6.95717 29.4652 6.63379 29.868C6.79538 29.872 6.95453 29.9086 7.10162 29.9756C7.24872 30.0426 7.38075 30.1387 7.48981 30.258V30.258Z" fill="#A1D6EC"/>
    <path d="M4.12891 17.636L3.61993 17.923C3.67993 18.06 3.73993 18.192 3.79193 18.314C4.1914 19.2519 4.70132 20.1389 5.31091 20.956C4.89166 19.773 4.90192 18.4802 5.3399 17.304C5.34528 17.2824 5.34284 17.2596 5.33301 17.2397C5.32318 17.2198 5.30658 17.2039 5.28619 17.1951C5.26581 17.1862 5.24297 17.1848 5.22168 17.1912C5.20039 17.1976 5.18205 17.2114 5.16992 17.23C5.20381 17.1401 5.21853 17.0441 5.2132 16.9482C5.20786 16.8523 5.18257 16.7586 5.13892 16.673C5.61045 16.8302 6.06425 17.0364 6.49292 17.288C7.56433 17.9142 8.34901 18.9339 8.67993 20.13C9.01193 21.401 8.42092 22.638 8.14392 23.857C7.89533 24.8641 8.05645 25.9286 8.59192 26.817C9.2063 27.6903 10.0113 28.4125 10.946 28.9288C11.8807 29.445 12.9205 29.7419 13.9869 29.797C15.0836 29.9094 16.191 29.7428 17.2061 29.3125C18.2212 28.8822 19.111 28.2023 19.7929 27.336C20.484 26.4153 20.9112 25.3238 21.0287 24.1786C21.1463 23.0334 20.9496 21.8778 20.4599 20.836C19.9389 19.683 19.1069 18.523 19.4089 17.193C19.7397 16.2679 20.3533 15.4706 21.1629 14.914C20.348 15.2121 19.5629 15.5861 18.8179 16.031C17.9588 16.2298 17.112 16.4785 16.2819 16.776C15.3019 17.083 14.3239 17.4 13.3399 17.694C12.4215 17.9895 11.4637 18.1445 10.4989 18.154C9.98472 18.1434 9.47303 18.0797 8.97192 17.964C8.73092 17.911 8.49391 17.831 8.25391 17.764C7.83424 17.4877 7.38963 17.2514 6.9259 17.058C6.22079 16.741 5.48304 16.5022 4.72589 16.346C4.36892 16.23 3.9894 16.2008 3.6189 16.261C3.9689 16.34 4.31888 16.424 4.65588 16.522C4.72188 16.602 4.78892 16.681 4.84692 16.767C5.13992 17.201 4.35591 17.508 4.12891 17.636Z" fill="#A1D6EC"/>
    <path d="M29.6639 29.764C29.5879 29.394 29.4489 28.264 28.9229 28.186L28.8649 28.179C29.6819 29.43 29.9099 31.264 28.5939 32.27C27.2419 33.305 25.8469 31.883 24.4639 31.732C22.8749 31.558 21.6459 32.576 20.1349 32.832C19.2829 32.976 18.3999 32.998 17.5349 33.068C17.2809 33.0887 17.0276 33.1107 16.7749 33.134C16.4659 33.134 16.1569 33.153 15.8629 33.173C15.0789 33.227 14.3009 33.366 13.5259 33.49C12.7322 33.6272 11.9305 33.7137 11.1259 33.749C10.3779 33.772 9.6309 33.749 8.8869 33.841C8.28171 33.9114 7.69822 34.109 7.17487 34.421C6.5835 34.9181 5.8854 35.2719 5.13489 35.455C4.38886 35.4818 3.65707 35.2461 3.06689 34.789C2.93266 34.6954 2.80438 34.5936 2.68286 34.484C2.85374 34.7993 3.04483 35.1033 3.25488 35.394C3.55289 35.8568 3.95712 36.2418 4.4339 36.517C4.68208 36.6119 4.94698 36.6552 5.21246 36.6442C5.47795 36.6332 5.73844 36.5681 5.97791 36.453C7.28881 35.9563 8.62383 35.5258 9.97791 35.163C10.5929 35.011 11.2129 34.884 11.8359 34.77L12.1869 34.717C13.0789 34.589 13.9719 34.4697 14.8659 34.359C16.5659 34.146 18.2659 33.987 19.9749 33.871C21.6249 33.759 23.2749 33.699 24.9319 33.671C25.7649 33.659 26.5969 33.671 27.4319 33.671C27.5219 33.671 27.6119 33.671 27.7029 33.671C28.1815 33.7683 28.6771 33.7422 29.1429 33.595C29.3643 33.4753 29.5483 33.2967 29.6745 33.0789C29.8007 32.8611 29.8641 32.6126 29.8578 32.361C29.9264 31.4905 29.861 30.6147 29.6639 29.764Z" fill="#A1D6EC"/>
    <path d="M21.9139 14.636C21.7559 15.446 22.3709 16.388 22.5699 17.118C22.6868 17.5873 22.6943 18.0773 22.5918 18.55C22.7488 18.41 22.8998 18.266 23.0448 18.118C23.4995 17.7001 23.867 17.1964 24.1261 16.6358C24.3853 16.0753 24.531 15.4691 24.5548 14.852C24.4818 13.602 22.6569 14.358 21.9139 14.636Z" fill="#A1D6EC"/>
    <path d="M21.946 29.595C21.96 29.564 21.973 29.531 21.987 29.5C22.1195 29.2118 22.3198 28.96 22.5707 28.7661C22.8216 28.5721 23.1157 28.4417 23.4279 28.386C23.8005 28.35 24.1764 28.4011 24.5258 28.5355C24.8752 28.6698 25.1885 28.8836 25.4409 29.16C25.6545 29.3738 25.9327 29.5111 26.2323 29.5507C26.5319 29.5903 26.8362 29.5299 27.098 29.379C26.8786 29.4213 26.6523 29.41 26.4383 29.3459C26.2243 29.2818 26.029 29.1669 25.869 29.011C25.491 28.75 25.1259 28.472 24.7689 28.184C24.1689 27.703 23.629 27.157 23.049 26.654C23.0435 25.805 22.9459 24.959 22.758 24.131C22.5548 23.2492 22.2374 22.3977 21.814 21.598C21.79 21.552 21.765 21.506 21.741 21.461C21.83 21.745 21.956 22.024 22.041 22.301C22.1939 22.8018 22.3181 23.311 22.413 23.826C22.445 23.995 22.47 24.164 22.489 24.333C22.5582 25.0575 22.5622 25.7868 22.5009 26.512C22.3845 27.5392 22.1226 28.5446 21.723 29.498C21.668 29.64 21.87 29.703 21.946 29.595Z" fill="#A1D6EC"/>
    <path d="M20.05 20.799C19.272 18.685 18.1779 16.158 15.7079 15.729C14.6094 15.6005 13.4991 15.8384 12.5496 16.4056C11.6001 16.9729 10.8645 17.8378 10.457 18.866C10.4511 18.8788 10.4483 18.8929 10.449 18.907C9.13095 20.5477 8.43878 22.6033 8.49595 24.707C8.59283 25.7344 9.02912 26.7002 9.73594 27.452C10.5641 28.2056 11.607 28.6814 12.7189 28.813C13.8452 29.0921 15.0217 29.1 16.1516 28.8361C17.2815 28.5722 18.3327 28.0441 19.2189 27.295C21.0379 25.571 20.847 22.965 20.05 20.799Z" fill="white"/>
    <path d="M16.8099 24.324C16.7228 24.1434 16.592 23.9874 16.4292 23.8703C16.2664 23.7533 16.0768 23.6789 15.8778 23.654C16.0263 23.5765 16.1667 23.4844 16.2969 23.379C16.7189 23.032 16.9609 22.243 16.2589 22.07C16.059 22.0551 15.8585 22.0904 15.6758 22.1729C15.4931 22.2553 15.3339 22.3822 15.2129 22.542C15.2199 22.3748 15.2101 22.2073 15.1839 22.042C15.0939 21.503 14.5319 20.899 14.0309 21.42C13.918 21.5857 13.8484 21.777 13.8285 21.9765C13.8086 22.176 13.8389 22.3773 13.9168 22.562C13.7754 22.4723 13.6253 22.3969 13.4688 22.337C12.9568 22.146 12.1529 22.33 12.3539 23.024C12.4409 23.2047 12.5718 23.3606 12.7346 23.4777C12.8974 23.5947 13.0869 23.6691 13.2859 23.694C13.1374 23.7715 12.997 23.8636 12.8669 23.969C12.4459 24.316 12.2029 25.105 12.9049 25.278C13.1049 25.2928 13.3053 25.2573 13.4881 25.1747C13.6708 25.0921 13.83 24.965 13.9509 24.805C13.9439 24.9722 13.9536 25.1397 13.9799 25.305C14.0699 25.844 14.6318 26.448 15.1328 25.927C15.2457 25.7613 15.3153 25.57 15.3352 25.3705C15.3552 25.171 15.3248 24.9697 15.2469 24.785C15.3883 24.8747 15.5384 24.9501 15.6949 25.01C16.2069 25.2 17.0109 25.018 16.8099 24.324Z" fill="#EDA6C7"/>
    <path d="M15.1859 23.41C15.1407 23.3194 15.0758 23.2402 14.9959 23.178C14.9184 23.1155 14.8279 23.0714 14.7309 23.0488C14.634 23.0263 14.5332 23.0259 14.4361 23.0477C14.339 23.0695 14.2481 23.113 14.1702 23.1748C14.0922 23.2367 14.0293 23.3154 13.9859 23.405C13.9434 23.4942 13.9226 23.5922 13.9253 23.691C13.928 23.7898 13.9541 23.8866 14.0014 23.9733C14.0487 24.0601 14.1159 24.1344 14.1976 24.1902C14.2792 24.2459 14.3729 24.2815 14.4709 24.294C14.5899 24.3349 14.7197 24.331 14.8359 24.283C14.9159 24.2509 14.988 24.2019 15.0474 24.1395C15.1067 24.077 15.1519 24.0025 15.1799 23.921C15.2211 23.8423 15.2431 23.755 15.2441 23.6662C15.2452 23.5774 15.2252 23.4896 15.1859 23.41Z" fill="#FFDA31"/>
    <path d="M20.05 20.799C19.272 18.685 18.1779 16.158 15.7079 15.729C14.6094 15.6005 13.4991 15.8384 12.5496 16.4056C11.6001 16.9729 10.8645 17.8378 10.457 18.866C10.4511 18.8788 10.4483 18.8929 10.449 18.907C9.13095 20.5477 8.43878 22.6033 8.49595 24.707C8.59283 25.7344 9.02912 26.7002 9.73594 27.452C10.5641 28.2056 11.607 28.6814 12.7189 28.813C13.8452 29.0921 15.0217 29.1 16.1516 28.8361C17.2815 28.5722 18.3327 28.0441 19.2189 27.295C21.0379 25.571 20.847 22.965 20.05 20.799ZM18.7729 26.864C17.8399 27.7728 16.6375 28.3548 15.3459 28.523C12.8859 28.979 10.0459 27.877 9.35094 25.289C9.09808 23.9897 9.33423 22.6428 10.014 21.507C10.2624 20.8708 10.6758 20.3124 11.2117 19.889C11.7476 19.4656 12.3866 19.1926 13.063 19.098H13.2079C13.2256 19.0984 13.243 19.0937 13.2581 19.0845C13.2732 19.0753 13.2853 19.0619 13.293 19.046L13.3929 19.078C13.5099 19.112 13.639 19.127 13.759 19.15C13.9253 19.2145 14.1049 19.2372 14.282 19.216C14.3997 19.1835 14.5123 19.135 14.6169 19.072C15.9619 18.825 17.4069 18.183 18.5549 19.306C18.9686 19.7819 19.2676 20.3464 19.4289 20.956C19.6763 21.6669 19.8339 22.406 19.8979 23.156C19.9699 23.818 19.9074 24.4877 19.7141 25.1249C19.5208 25.7621 19.2006 26.3536 18.7729 26.864V26.864Z" fill="#E4E4E4"/>
    <path d="M16.8298 16.365C16.0178 14.837 13.6358 15.357 12.3458 15.829C11.9923 15.923 11.667 16.1014 11.3977 16.349C11.1284 16.5965 10.9232 16.9057 10.7998 17.25C10.7247 17.5033 10.7487 17.7757 10.8668 18.012C11.2878 19.484 13.1768 19.948 14.5158 19.704C15.2891 19.5624 15.9803 19.1338 16.4508 18.504C16.6977 18.213 16.863 17.8616 16.9295 17.4858C16.9961 17.1099 16.9617 16.7232 16.8298 16.365V16.365Z" fill="#F4D3C3"/>
    <path d="M16.8298 16.365C16.0178 14.837 13.6358 15.357 12.3458 15.829C11.9923 15.923 11.667 16.1014 11.3977 16.349C11.1284 16.5965 10.9232 16.9057 10.7998 17.25C10.7247 17.5033 10.7487 17.7757 10.8668 18.012C11.2878 19.484 13.1768 19.948 14.5158 19.704C15.2891 19.5624 15.9803 19.1338 16.4508 18.504C16.6977 18.213 16.863 17.8616 16.9295 17.4858C16.9961 17.1099 16.9617 16.7232 16.8298 16.365V16.365Z" fill="#E5A389"/>
    <path d="M20.19 8.63799C20.0163 8.27923 19.747 7.97529 19.4119 7.75953C19.0767 7.54378 18.6885 7.42457 18.29 7.41499C18.183 7.41185 18.0762 7.42466 17.973 7.45299C17.943 7.46134 17.9136 7.47169 17.885 7.48399C17.7894 7.5152 17.6978 7.55749 17.612 7.60999C17.6046 7.61469 17.5982 7.6209 17.5933 7.62821C17.5884 7.63552 17.5851 7.64377 17.5836 7.65244C17.5821 7.66111 17.5824 7.67 17.5845 7.67853C17.5867 7.68707 17.5906 7.69506 17.596 7.70199C17.4303 7.91946 17.3313 8.18035 17.311 8.45299C17.3402 9.02458 17.5544 9.57118 17.9215 10.0103C18.2886 10.4493 18.7886 10.7571 19.346 10.887C19.827 10.95 20.163 10.525 20.32 10.134C20.4713 9.63722 20.4247 9.10122 20.19 8.63799V8.63799Z" fill="#F4D3C3"/>
    <path d="M20.19 8.63799C20.0163 8.27923 19.747 7.97529 19.4119 7.75953C19.0767 7.54378 18.6885 7.42457 18.29 7.41499C18.183 7.41185 18.0762 7.42466 17.973 7.45299C17.943 7.46134 17.9136 7.47169 17.885 7.48399C17.7894 7.5152 17.6978 7.55749 17.612 7.60999C17.6046 7.61469 17.5982 7.6209 17.5933 7.62821C17.5884 7.63552 17.5851 7.64377 17.5836 7.65244C17.5821 7.66111 17.5824 7.67 17.5845 7.67853C17.5867 7.68707 17.5906 7.69506 17.596 7.70199C17.4303 7.91946 17.3313 8.18035 17.311 8.45299C17.3402 9.02458 17.5544 9.57118 17.9215 10.0103C18.2886 10.4493 18.7886 10.7571 19.346 10.887C19.827 10.95 20.163 10.525 20.32 10.134C20.4713 9.63722 20.4247 9.10122 20.19 8.63799V8.63799Z" fill="#ECB9A3"/>
    <path d="M19.7718 9.94099C19.2388 8.75699 18.7168 7.568 18.1718 6.391C17.7807 5.43915 17.1504 4.60451 16.3418 3.96799C15.4843 3.43141 14.5216 3.08516 13.5187 2.95267C12.5159 2.82017 11.4962 2.90451 10.5288 3.19999C8.88693 3.65205 7.43561 4.62358 6.3919 5.96922C5.34819 7.31487 4.76823 8.96228 4.73882 10.665C4.72796 10.6722 4.71874 10.6816 4.71184 10.6927C4.70494 10.7037 4.70054 10.7161 4.69884 10.729C4.48728 11.8335 4.54202 12.9724 4.85863 14.0515C5.17524 15.1305 5.74456 16.1186 6.51934 16.9336C7.29411 17.7487 8.25202 18.3673 9.31365 18.7381C10.3753 19.109 11.5101 19.2214 12.6238 19.066C15.0824 18.9062 17.4181 17.9339 19.2638 16.302C20.0801 15.5385 20.6078 14.5166 20.7578 13.409C20.7547 12.1843 20.4135 10.9842 19.7718 9.94099V9.94099Z" fill="#F4D3C3"/>
    <path d="M20.709 12.311C20.4998 13.2571 20.0436 14.1308 19.3867 14.8431C18.7299 15.5554 17.896 16.0809 16.97 16.366C15.6415 16.807 14.2591 17.0653 12.861 17.134C11.475 17.309 10.0674 17.1155 8.78 16.573C6.45 15.473 5.529 12.379 5.41 10.004C5.33443 8.69724 5.6081 7.39394 6.20297 6.228C5.27827 7.52474 4.76883 9.07155 4.74197 10.664C4.73112 10.6712 4.72196 10.6806 4.71506 10.6917C4.70816 10.7027 4.7037 10.7151 4.702 10.728C4.49044 11.8325 4.54524 12.9714 4.86185 14.0505C5.17846 15.1295 5.74772 16.1176 6.52249 16.9326C7.29727 17.7477 8.25523 18.3663 9.31686 18.7371C10.3785 19.108 11.5132 19.2204 12.627 19.065C15.0855 18.9052 17.4212 17.9329 19.267 16.301C20.0833 15.5375 20.611 14.5156 20.761 13.408C20.8052 13.042 20.7876 12.6712 20.709 12.311V12.311Z" fill="#ECB9A3"/>
    <path d="M5.99082 10.537C5.79669 10.2749 5.52032 10.0855 5.20584 9.999C5.02692 9.90759 4.83129 9.8535 4.63083 9.84C4.31837 9.82462 4.00703 9.88733 3.72488 10.0225C3.44274 10.1576 3.19867 10.3609 3.0148 10.614C2.78848 10.8947 2.62558 11.221 2.5372 11.5705C2.44883 11.9201 2.43711 12.2846 2.50284 12.6391C2.56857 12.9936 2.71018 13.3297 2.918 13.6243C3.12582 13.9189 3.39492 14.1651 3.70682 14.346C3.99413 14.4792 4.30988 14.5395 4.62607 14.5215C4.94226 14.5034 5.24912 14.4076 5.51938 14.2425C5.78964 14.0773 6.01499 13.8481 6.17539 13.575C6.33578 13.3019 6.42624 12.9935 6.43881 12.677C6.55936 11.9328 6.39975 11.1703 5.99082 10.537V10.537Z" fill="#F4D3C3"/>
    <path d="M5.28087 11.785C5.15774 11.5278 4.96387 11.311 4.72191 11.16C4.64069 11.0937 4.5376 11.0602 4.43291 11.066C4.34021 11.0628 4.24831 11.0842 4.16661 11.1282C4.08491 11.1721 4.01633 11.2369 3.96788 11.316V11.316C3.93516 11.3544 3.90635 11.3959 3.88188 11.44C3.8688 11.4667 3.86529 11.4971 3.87193 11.5262C3.87858 11.5552 3.89497 11.581 3.91838 11.5994C3.94179 11.6178 3.97078 11.6276 4.00053 11.6271C4.03029 11.6267 4.05903 11.6161 4.08189 11.597C4.57289 11.164 4.81189 12.121 4.87089 12.397C4.9529 12.7584 4.93804 13.1351 4.82787 13.489C4.79387 13.589 4.94691 13.689 5.01891 13.6C5.22785 13.3522 5.36316 13.0508 5.40947 12.73C5.45578 12.4092 5.4112 12.0818 5.28087 11.785V11.785Z" fill="#ECB9A3"/>
    <path d="M14.4958 12.55C14.4854 12.5323 14.4694 12.5185 14.4504 12.5107C14.4314 12.5029 14.4103 12.5016 14.3905 12.5069C14.3706 12.5122 14.353 12.5239 14.3405 12.5402C14.3279 12.5565 14.321 12.5764 14.3208 12.597C14.3098 12.859 14.3758 13.118 14.3808 13.382C14.3898 13.825 14.0438 14.31 13.5558 14.095C13.273 13.9221 13.0527 13.6636 12.9268 13.357C12.8428 13.198 12.8388 13.019 12.6598 12.957C12.6577 12.9558 12.6553 12.9551 12.6529 12.9551C12.6504 12.9551 12.648 12.9558 12.6458 12.957C12.4398 13.177 12.7358 13.606 12.8628 13.81C12.9568 13.9846 13.0903 14.1348 13.2526 14.2487C13.415 14.3626 13.6016 14.437 13.7978 14.466C13.9738 14.459 14.1437 14.4 14.2862 14.2964C14.4286 14.1928 14.5371 14.0493 14.5979 13.884C14.6789 13.6676 14.7117 13.4361 14.6941 13.2057C14.6764 12.9753 14.6088 12.7516 14.4958 12.55V12.55Z" fill="#D99393"/>
    <path d="M15.8269 8.467C15.7894 8.35968 15.7113 8.27128 15.6095 8.22066C15.5077 8.17003 15.3901 8.16118 15.2819 8.19599C15.0699 8.27699 15.0129 8.55599 14.9679 8.74899C14.8799 9.12999 14.9319 9.942 15.4569 9.982C15.4658 9.98392 15.475 9.98392 15.4839 9.982C15.5513 9.99825 15.6216 9.99825 15.6889 9.982C15.9339 9.927 15.9729 9.564 15.9979 9.371C16.0261 9.05962 15.9669 8.74657 15.8269 8.467V8.467Z" fill="#333333"/>
    <path d="M9.73694 9.48299C9.72653 9.36989 9.76071 9.25719 9.83228 9.169C9.90385 9.0808 10.0071 9.02409 10.1199 9.01099C10.3469 8.99699 10.5139 9.22799 10.6339 9.38499C10.8719 9.69499 11.1609 10.456 10.6989 10.71C10.6908 10.7141 10.682 10.7165 10.6729 10.717C10.6182 10.7597 10.5541 10.7889 10.4859 10.802C10.2409 10.853 10.0549 10.539 9.95191 10.373C9.79918 10.102 9.72478 9.79385 9.73694 9.48299V9.48299Z" fill="#333333"/>
    <path d="M14.254 10.13C14.154 9.835 13.775 9.865 13.527 9.913C13.3799 9.93903 13.2409 9.99954 13.1217 10.0896C13.0025 10.1796 12.9063 10.2966 12.8409 10.431C12.7969 10.542 12.946 10.647 13.041 10.584C13.1945 10.454 13.3646 10.3451 13.5469 10.26C13.7679 10.184 13.985 10.266 14.204 10.219C14.2131 10.2165 14.2217 10.2121 14.2291 10.2063C14.2366 10.2004 14.2428 10.1932 14.2474 10.1849C14.2521 10.1766 14.2551 10.1675 14.2562 10.1581C14.2573 10.1487 14.2566 10.1391 14.254 10.13V10.13Z" fill="#ECB9A3"/>
    <path d="M12.3679 3.427C12.1038 3.3771 11.8364 3.34602 11.5678 3.33399C11.1678 3.24599 10.7968 2.88299 10.8308 2.52899C10.8971 2.57802 10.9721 2.614 11.0519 2.635C11.2474 2.70223 11.455 2.72737 11.6609 2.70876C11.8669 2.69014 12.0665 2.6282 12.2469 2.52699C12.2725 2.50464 12.2962 2.48023 12.3178 2.454C12.3792 2.32994 12.3938 2.18792 12.3589 2.05399C12.3223 1.89096 12.2251 1.74796 12.0869 1.65399C11.8841 1.60696 11.6736 1.6034 11.4694 1.64356C11.2651 1.68372 11.0718 1.76669 10.9019 1.88699C10.9003 1.82667 10.9049 1.76634 10.9159 1.70699C11.033 1.56343 11.1674 1.4348 11.3159 1.32399C11.5919 1.12399 12.0498 0.668995 11.7838 0.282995C11.7454 0.210589 11.6906 0.148162 11.6238 0.100694C11.557 0.0532263 11.48 0.0220312 11.399 0.00959714C11.318 -0.00283695 11.2352 0.00383469 11.1572 0.0290788C11.0792 0.0543229 11.0082 0.0974411 10.9499 0.154994C10.9029 0.192994 10.9499 0.254995 10.9969 0.254995C11.2969 0.119995 11.7919 0.354995 11.6059 0.718995C11.5944 0.741328 11.5817 0.763025 11.5678 0.783994V0.783994C11.4755 0.927607 11.353 1.04942 11.2089 1.14099C11.1279 1.20199 11.0399 1.25699 10.9629 1.32199C10.7931 1.44227 10.664 1.61146 10.5929 1.807C10.5629 1.93925 10.5674 2.07697 10.6059 2.20699C10.5233 2.35373 10.4883 2.52252 10.5059 2.69C10.5759 3.368 11.8949 4.06099 12.3729 3.44199C12.3779 3.43599 12.3729 3.429 12.3679 3.427ZM11.1449 2.087C11.2729 2.01908 11.4121 1.97471 11.5559 1.95599C11.6751 1.95167 11.7944 1.95635 11.9129 1.96999C12.0962 2.15666 12.1012 2.28499 11.9279 2.35499C11.8299 2.4055 11.722 2.43416 11.6118 2.439C11.5104 2.44779 11.4083 2.43553 11.3119 2.40299C11.2255 2.36602 11.1453 2.31612 11.0739 2.25499C11.052 2.23585 11.0319 2.21477 11.0139 2.19199C11.0541 2.15288 11.0979 2.11772 11.1449 2.087V2.087Z" fill="#333333"/>
    <path d="M18.491 9.661C18.624 10.077 17.924 10.673 16.926 10.994C15.928 11.315 15.011 11.237 14.877 10.821C14.743 10.405 15.444 9.809 16.442 9.488C17.44 9.167 18.357 9.245 18.491 9.661Z" fill="#F4D3C3"/>
    <path d="M8.13385 11.413C8.15885 11.849 9.02785 12.153 10.0739 12.093C11.1199 12.033 11.9479 11.63 11.9229 11.193C11.8979 10.756 11.0289 10.453 9.98285 10.513C8.93685 10.573 8.10885 10.978 8.13385 11.413Z" fill="#F4D3C3"/>
    <path d="M3.2659 13.146C3.01948 12.7756 2.86813 12.3501 2.82523 11.9073C2.78232 11.4644 2.84914 11.0178 3.01987 10.607L3.01389 10.614C2.78756 10.8947 2.6246 11.221 2.53623 11.5705C2.44785 11.9201 2.43613 12.2846 2.50186 12.6391C2.5676 12.9936 2.70926 13.3297 2.91708 13.6243C3.12491 13.9189 3.394 14.1651 3.7059 14.346C4.06559 14.5379 4.48078 14.5989 4.88046 14.5185C5.28015 14.438 5.63947 14.2212 5.89688 13.905C5.4394 14.11 4.92408 14.1462 4.44241 14.0073C3.96075 13.8683 3.54391 13.5632 3.2659 13.146V13.146Z" fill="#ECB9A3"/>
    <path d="M10.6239 9.65899C10.6037 9.54125 10.5522 9.43109 10.4749 9.33999C10.4089 9.26199 10.28 9.14 10.167 9.155C9.95196 9.183 9.93993 9.355 10.0039 9.513C10.0274 9.61784 10.0888 9.71032 10.1763 9.77269C10.2638 9.83507 10.3712 9.86296 10.4779 9.85099C10.501 9.85032 10.5238 9.84449 10.5443 9.83391C10.5649 9.82334 10.5828 9.80829 10.5968 9.78988C10.6108 9.77146 10.6205 9.75016 10.6252 9.72751C10.6299 9.70487 10.6295 9.68145 10.6239 9.65899V9.65899Z" fill="white"/>
    <path d="M15.8031 8.909C15.8155 8.78999 15.7958 8.66981 15.7461 8.561C15.7041 8.468 15.612 8.317 15.499 8.3C15.285 8.269 15.2271 8.429 15.2461 8.6C15.2407 8.70729 15.2751 8.81279 15.3426 8.89635C15.4101 8.97992 15.5061 9.03568 15.6121 9.053C15.6343 9.05833 15.6575 9.05868 15.6798 9.05402C15.7022 9.04936 15.7233 9.0398 15.7415 9.02604C15.7598 9.01228 15.7748 8.99465 15.7854 8.97441C15.7961 8.95418 15.8021 8.93184 15.8031 8.909V8.909Z" fill="white"/>
    <path d="M26.2789 15.081C26.0079 14.958 26.1719 14.814 26.2669 14.616C26.3107 14.5056 26.3236 14.3853 26.3041 14.2682C26.2847 14.151 26.2336 14.0413 26.1565 13.951C26.0793 13.8607 25.979 13.7931 25.8663 13.7556C25.7536 13.7181 25.6328 13.712 25.5169 13.738C25.6419 13.354 25.7769 12.765 25.4329 12.614C24.7929 12.333 24.6019 13.151 24.0899 13.336C23.6029 13.512 23.5829 12.069 22.9059 12.289C22.7258 12.3805 22.568 12.5104 22.4435 12.6695C22.3191 12.8286 22.2312 13.0131 22.1859 13.21C21.8788 13.9257 21.8655 14.7335 22.1489 15.459C22.39 15.9192 22.7932 16.2736 23.2804 16.4539C23.7676 16.6342 24.3044 16.6274 24.7869 16.435C25.3304 16.3483 25.8449 16.1319 26.2869 15.804C26.4619 15.62 26.5949 15.22 26.2789 15.081Z" fill="#F4D3C3"/>
    <path d="M24.787 16.434C25.3304 16.3473 25.845 16.1308 26.287 15.803C26.463 15.617 26.5869 15.224 26.2749 15.08C26.0039 14.956 26.1679 14.813 26.2629 14.615C26.3256 14.4598 26.3256 14.2862 26.2629 14.131C26.2244 13.9993 26.1352 13.8881 26.0149 13.822C26.0449 13.987 26.0496 14.1556 26.0289 14.322C25.9729 14.609 25.6929 14.737 25.6219 14.993C25.6105 15.0411 25.6172 15.0917 25.6408 15.1351C25.6645 15.1784 25.7033 15.2116 25.7499 15.228C25.8015 15.2475 25.8584 15.2475 25.9099 15.228C26.032 15.1911 26.1637 15.2033 26.277 15.262C25.877 16.005 24.553 16.004 23.777 15.825C23.2107 15.7261 22.7057 15.4095 22.3699 14.943C22.1649 14.576 22.0434 14.1683 22.014 13.749C21.8775 14.3153 21.9233 14.9103 22.1449 15.449C22.3846 15.9117 22.7878 16.2688 23.276 16.4508C23.7643 16.6329 24.3029 16.6269 24.787 16.434V16.434Z" fill="#ECB9A3"/>
    <path d="M25.433 12.613C25.356 12.5776 25.2727 12.5582 25.188 12.556C25.2603 12.6131 25.3173 12.6871 25.3541 12.7716C25.3909 12.856 25.4063 12.9482 25.399 13.04C25.3726 13.3508 25.2832 13.653 25.136 13.928C25.1285 13.948 25.1276 13.9699 25.1334 13.9904C25.1393 14.0109 25.1515 14.0291 25.1684 14.0421C25.1853 14.0552 25.2059 14.0625 25.2272 14.063C25.2486 14.0636 25.2695 14.0572 25.287 14.045C25.4043 13.96 25.5059 13.8551 25.587 13.735H25.516C25.642 13.353 25.777 12.765 25.433 12.613Z" fill="#ECB9A3"/>
    <path d="M23.0579 12.267C23.242 12.4256 23.3711 12.6385 23.4269 12.875C23.4374 12.9987 23.4729 13.1189 23.5314 13.2285C23.5898 13.338 23.6699 13.4344 23.7668 13.512C23.787 13.5238 23.81 13.53 23.8334 13.53C23.8567 13.53 23.8797 13.5238 23.8998 13.512C24.0665 13.4324 24.216 13.321 24.3398 13.184C24.2662 13.2489 24.1816 13.3 24.0898 13.335C23.6428 13.497 23.5889 12.292 23.0579 12.267Z" fill="#ECB9A3"/>
    <path d="M1.72988 19.028C2.26561 19.1594 2.82517 19.1594 3.36089 19.028C4.45089 18.846 5.34988 18.302 5.41488 17.105C5.39459 16.3267 5.06922 15.5876 4.5089 15.047C4.39082 14.883 4.23818 14.747 4.06176 14.6485C3.88534 14.55 3.68944 14.4915 3.48791 14.477C2.77891 14.537 3.3199 15.877 2.8019 15.901C2.2579 15.929 1.7649 15.249 1.2839 15.756C1.0249 16.029 1.3779 16.519 1.6419 16.825C1.3419 16.925 1.0719 17.119 1.1039 17.478C1.10588 17.6456 1.17292 17.8059 1.29088 17.925C1.45488 18.07 1.66189 18.139 1.45989 18.358C1.22489 18.612 1.49488 18.924 1.72988 19.028Z" fill="#F4D3C3"/>
    <path d="M4.54294 18.085C4.11522 18.4361 3.59344 18.6531 3.04294 18.709C2.49374 18.8676 1.90709 18.8363 1.37793 18.62C1.40213 18.7107 1.4468 18.7946 1.50851 18.8654C1.57023 18.9361 1.64737 18.9917 1.73395 19.028C2.26967 19.1594 2.8292 19.1594 3.36493 19.028C4.45493 18.846 5.35395 18.302 5.41895 17.105C5.41709 16.5434 5.24253 15.996 4.91895 15.537C5.13929 15.9455 5.22172 16.4143 5.15396 16.8734C5.0862 17.3326 4.87188 17.7576 4.54294 18.085V18.085Z" fill="#ECB9A3"/>
    <path d="M1.53388 18.248C1.73726 18.3139 1.95477 18.3229 2.16288 18.274C2.24888 18.256 2.25488 18.108 2.16288 18.095C1.88952 18.073 1.63207 17.9576 1.43388 17.768C1.32749 17.647 1.25411 17.5006 1.22087 17.343C1.20287 17.274 1.19888 17.205 1.18388 17.138C1.11931 17.2389 1.09141 17.359 1.10487 17.478C1.10674 17.6456 1.17382 17.806 1.29188 17.925C1.42388 18.041 1.58588 18.109 1.53388 18.248Z" fill="#EFC1AC"/>
    <path d="M3.50378 17.699C3.61778 17.507 3.50878 17.253 3.43378 17.072C3.39999 17.0165 3.38115 16.9532 3.37909 16.8883C3.37703 16.8234 3.39185 16.759 3.42206 16.7015C3.45227 16.644 3.49688 16.5953 3.55151 16.5602C3.60615 16.525 3.66891 16.5046 3.73376 16.501C3.65192 16.4777 3.56668 16.4689 3.48181 16.475C2.77281 16.535 3.31378 17.875 2.79578 17.899C2.73131 17.9018 2.66674 17.8961 2.60376 17.882C2.7475 17.9767 2.9229 18.0105 3.09155 17.9763C3.26021 17.942 3.40843 17.8423 3.50378 17.699V17.699Z" fill="#ECB9A3"/>
    <path d="M1.54585 16.86C1.76436 16.8935 1.9872 16.8857 2.20284 16.837C2.21931 16.8323 2.23405 16.8228 2.24522 16.8098C2.2564 16.7968 2.26353 16.7809 2.26576 16.7639C2.26799 16.7469 2.26522 16.7296 2.25777 16.7142C2.25032 16.6988 2.23852 16.6858 2.22383 16.677C2.0049 16.6063 1.79963 16.4987 1.61684 16.359C1.52155 16.2615 1.45825 16.1374 1.43538 16.003C1.41251 15.8686 1.43116 15.7305 1.48885 15.607C1.41067 15.642 1.34055 15.6927 1.28285 15.756C1.02385 16.029 1.37685 16.519 1.64085 16.825C1.60885 16.835 1.57685 16.847 1.54585 16.86Z" fill="#ECB9A3"/>
</svg>
