<svg xmlns="http://www.w3.org/2000/svg" width="90" height="90" viewBox="0 0 90 90"><defs><style>.a{fill:#e67e22;}.b{fill:#fff;}</style></defs><g transform="translate(-217 -209)"><rect class="a" width="90" height="90" rx="5" transform="translate(217 209)"/><g transform="translate(238.22 230.223)"><path class="b" d="M49.567,18.646a.744.744,0,0,0-.163-.073l-.017-.007a.738.738,0,0,0-.208-.032H46.79l.6-1.2a3.817,3.817,0,0,0,.4-1.7,3.63,3.63,0,0,0-7.26,0,3.822,3.822,0,0,0,.4,1.7l.6,1.2h-2.39a.738.738,0,0,0-.208.031l-.017.007a.744.744,0,0,0-.163.073,10.138,10.138,0,0,0-3.391,13.683h-.643a.726.726,0,0,0-.726.726v14.52a.726.726,0,0,0,.726.726H53.6a.726.726,0,0,0,.726-.726V33.054a.726.726,0,0,0-.726-.726h-.643a10.138,10.138,0,0,0-3.391-13.682Zm-7.333-1.965a2.361,2.361,0,0,1-.249-1.051,2.178,2.178,0,1,1,4.356,0,2.356,2.356,0,0,1-.248,1.051l-.926,1.853H43.16Zm.477,3.3h4.741l-.11.113a4.445,4.445,0,0,1-6.36,0l-.11-.113Zm-7.26,7.26a8.656,8.656,0,0,1,3.613-7.035l.88.9a5.9,5.9,0,0,0,8.439,0l.881-.9a8.658,8.658,0,0,1,1.964,12.117H37.1a8.584,8.584,0,0,1-1.648-5.082Zm17.424,7.986H35.451V33.78H52.875Zm0,8.712H35.451v-7.26H52.875Zm-17.424,2.9V45.4H52.875v1.452Z" transform="translate(-8.767 -2.741)"/><path class="b" d="M2.726,45.559H21.6a.726.726,0,0,0,.726-.726V17.245a.726.726,0,0,0-.726-.726h-14a26.1,26.1,0,0,0,4.574-3.9c3.509-3.7,6.2-8.342,4.559-10.072A1.868,1.868,0,0,0,15.326,2h0A6.6,6.6,0,0,0,12.28,3.061L10.96,2.4A3.819,3.819,0,0,0,9.26,2a3.634,3.634,0,0,0-3.63,3.63A3.6,3.6,0,0,0,6.5,7.964c-2.889,3.207-5.044,6.935-4.35,8.857A.707.707,0,0,0,2,17.245V44.833A.726.726,0,0,0,2.726,45.559Zm18.15-5.808V41.2H3.452V39.751h3.63V38.3H3.452v-7.26H8.607a3.63,3.63,0,0,0,7.115,0h5.155V38.3h-3.63v1.452ZM9.986,30.313a2.178,2.178,0,1,1,2.178,2.178A2.178,2.178,0,0,1,9.986,30.313Zm10.89-.726H15.721a3.63,3.63,0,0,0-7.115,0H3.452V20.875H20.876ZM3.452,44.107V42.655H20.876v1.452ZM20.876,17.971v1.452H3.452V17.971ZM9.26,3.451A2.356,2.356,0,0,1,10.31,3.7l.562.281A26.948,26.948,0,0,0,7.5,6.906,2.17,2.17,0,0,1,9.26,3.451Zm2.9,1.406V6.633l-1.853.926a2.356,2.356,0,0,1-1.051.248,2.147,2.147,0,0,1-.523-.073,24.317,24.317,0,0,1,3.427-2.878ZM7.649,8.865a3.583,3.583,0,0,0,1.611.394,3.819,3.819,0,0,0,1.7-.4l2.251-1.127a.726.726,0,0,0,.405-.65v-2.9a.688.688,0,0,0-.024-.168,4.366,4.366,0,0,1,1.734-.558.537.537,0,0,1,.363.1h0c.526.555-.605,3.907-4.563,8.071-3.058,3.218-5.939,4.9-7.206,4.9a.537.537,0,0,1-.363-.1C3.054,15.89,4.08,12.788,7.649,8.865Z" transform="translate(0 0)"/><path class="b" d="M38,30.958a7.225,7.225,0,0,0,1.223,4.034l1.207-.807a5.808,5.808,0,0,1,.958-7.555l-.968-1.082A7.269,7.269,0,0,0,38,30.958Z" transform="translate(-9.864 -6.453)"/><path class="b" d="M55.5,34.992a7.26,7.26,0,0,0-1.2-9.445l-.968,1.082a5.808,5.808,0,0,1,.958,7.555Z" transform="translate(-14.065 -6.453)"/><path class="b" d="M38.363,50.807a13.213,13.213,0,0,0,6.448,1.535A13.844,13.844,0,0,0,50.5,51.194a2.484,2.484,0,0,0,2.024,1.162V50.9a.742.742,0,1,1,0-1.452V48A2.484,2.484,0,0,0,50.5,49.162a14.466,14.466,0,0,0-12.132.39.726.726,0,0,0,0,1.259Zm10.817-.629a13.353,13.353,0,0,1-8.735,0,13.347,13.347,0,0,1,8.735,0Z" transform="translate(-9.864 -12.605)"/><rect class="b" width="1" height="1" transform="translate(11.78 38.777)"/><rect class="b" width="1" height="1" transform="translate(8.78 38.777)"/><rect class="b" width="1" height="1" transform="translate(14.78 38.777)"/><rect class="b" width="2" height="2" transform="translate(12.78 22.777)"/><rect class="b" width="2" height="2" transform="translate(9.78 22.777)"/><rect class="b" width="1" height="2" transform="translate(15.78 22.777)"/><rect class="b" width="2" height="2" transform="translate(6.78 22.777)"/><rect class="b" width="7" height="1" transform="translate(8.78 35.777)"/></g></g></svg>