<svg width="26" height="37" viewBox="0 0 26 37" fill="none" xmlns="http://www.w3.org/2000/svg">
    <path d="M0.577881 34.252C0.577881 34.252 0.892881 34.811 1.15488 35.214C1.39988 35.614 3.56688 36.175 5.14088 36.175H7.04688C8.61988 36.175 10.7879 35.616 11.0329 35.214C11.2949 34.814 11.6099 34.252 11.6099 34.252H0.577881Z" fill="#DEDFE0"/>
    <path d="M7.04886 36.221H5.14386C3.60586 36.221 1.38686 35.678 1.11786 35.237C0.857863 34.837 0.542863 34.28 0.539863 34.274C0.535772 34.2669 0.533642 34.2589 0.533692 34.2507C0.533742 34.2425 0.53597 34.2345 0.540146 34.2275C0.544322 34.2204 0.550296 34.2147 0.557453 34.2107C0.56461 34.2068 0.57269 34.2048 0.580863 34.205H11.6129C11.621 34.2048 11.6291 34.2068 11.6363 34.2107C11.6434 34.2147 11.6494 34.2204 11.6536 34.2275C11.6578 34.2345 11.66 34.2425 11.66 34.2507C11.6601 34.2589 11.658 34.2669 11.6539 34.274C11.6539 34.28 11.3349 34.839 11.0749 35.238C10.8069 35.679 8.58686 36.221 7.04886 36.221ZM0.659862 34.298C0.752862 34.46 0.991863 34.874 1.19586 35.188C1.42686 35.568 3.54586 36.128 5.14286 36.128H7.04886C8.64886 36.128 10.7649 35.568 10.9949 35.189C11.1949 34.874 11.4389 34.46 11.5319 34.298H0.659862Z" fill="#A0A2A4"/>
    <path d="M0.577881 34.252C0.577881 34.252 0.892881 34.811 1.15488 35.214C1.58142 35.5466 2.08746 35.7621 2.62288 35.839C2.62288 35.679 2.66388 35.539 2.83088 35.62C4.88618 36.0146 6.99371 36.0558 9.06288 35.742C9.73188 35.592 9.84188 35.605 9.85288 35.763C10.2877 35.6877 10.6948 35.4986 11.0329 35.215C11.2949 34.815 11.6099 34.253 11.6099 34.253L0.577881 34.252Z" fill="#888A8D"/>
    <path d="M10.7311 16.197C10.7311 16.197 11.3311 17.324 11.6191 17.804C11.8891 18.2325 12.0074 18.7392 11.9551 19.243V33.652C11.9551 34.192 11.6391 34.636 10.5231 35.143C9.18775 35.6383 7.76549 35.8564 6.34309 35.784H5.76209C4.33826 35.7392 2.92635 35.5089 1.56209 35.099C0.409087 34.682 0.0440874 34.191 0.0440874 33.652V19.243C-0.0082442 18.7392 0.110079 18.2325 0.380088 17.804C0.668088 17.324 1.26809 16.197 1.26809 16.197H10.7311Z" fill="#47B649"/>
    <path d="M6.71497 35.836C6.58697 35.836 6.46197 35.836 6.34097 35.831H5.76097C4.33251 35.7862 2.9161 35.5542 1.54797 35.141C0.491972 34.759 -2.72859e-05 34.285 -2.72859e-05 33.65V19.241C-0.0522309 18.7296 0.0677786 18.2154 0.340972 17.78C0.624972 17.307 1.22097 16.186 1.22697 16.175C1.23093 16.1675 1.23682 16.1613 1.24404 16.1569C1.25125 16.1525 1.25952 16.1501 1.26797 16.15H10.728C10.7364 16.1501 10.7447 16.1525 10.7519 16.1569C10.7591 16.1613 10.765 16.1675 10.769 16.175C10.775 16.186 11.369 17.307 11.656 17.78C11.93 18.2158 12.0504 18.7308 11.998 19.243V33.652C11.998 34.27 11.575 34.714 10.539 35.185C9.31917 35.6501 8.01995 35.8712 6.71497 35.836ZM1.29797 16.241C1.20797 16.409 0.683973 17.39 0.421973 17.826C0.157726 18.2478 0.0419342 18.7458 0.0929727 19.241V33.652C0.0929727 34.243 0.564973 34.689 1.57997 35.052C2.93785 35.461 4.34349 35.6903 5.76097 35.734H6.34097C6.46297 35.734 6.58697 35.739 6.71397 35.739C8.0062 35.7743 9.29282 35.5559 10.501 35.096C11.736 34.536 11.901 34.069 11.901 33.648V19.241C11.9541 18.7457 11.8381 18.247 11.572 17.826C11.31 17.39 10.786 16.41 10.696 16.241H1.29797Z" fill="#196A26"/>
    <path opacity="0.6" d="M2.1559 17.585C1.69062 17.915 1.36593 18.4074 1.2459 18.965C1.1579 19.771 1.2459 33.446 1.2459 33.446C1.2459 33.446 1.1819 33.975 2.0289 34.252V19.285C2.06327 18.9859 2.13034 18.6915 2.2289 18.407C2.32214 18.1588 2.42795 17.9155 2.5459 17.678L2.1559 17.585Z" fill="#67E2B2"/>
    <path d="M9.46693 23.506C8.65093 25.627 7.88193 25.651 5.94693 25.068C3.80293 24.392 2.44693 25.368 1.42493 26.909C0.820459 27.9324 0.359481 29.0341 0.0549316 30.183V32.24C0.347932 31.528 0.871932 30.549 1.55493 30.493C2.63893 30.405 3.18093 32.731 5.43593 32.504C7.69093 32.277 8.28593 30.458 9.36993 28.85C10.3429 27.407 11.3149 27.513 11.8959 28.396V20.882C11.0169 21.052 10.1279 21.79 9.46693 23.506Z" fill="white"/>
    <path d="M1.12207 18.588C1.12207 18.588 6.92207 20.196 11.2271 18.488C11.2271 18.483 7.62607 20.581 1.12207 18.588Z" fill="#CCFFFD"/>
    <path d="M6.98488 30.943C6.70188 31.275 6.29687 31.396 6.08487 31.212C5.87287 31.028 5.92188 30.612 6.20488 30.277C6.48788 29.942 6.89188 29.825 7.10488 30.008C7.31788 30.191 7.26788 30.609 6.98488 30.943Z" fill="#D44028"/>
    <path d="M1.8949 28.997C1.8459 29.176 1.7119 29.297 1.5949 29.263C1.4779 29.229 1.4239 29.063 1.4729 28.882C1.5219 28.701 1.6559 28.582 1.7729 28.616C1.8899 28.65 1.9479 28.819 1.8949 28.997Z" fill="#D44028"/>
    <path d="M2.25708 27.382C2.23208 27.475 2.15708 27.537 2.10108 27.52C2.04508 27.503 2.01208 27.415 2.03808 27.32C2.06408 27.225 2.13808 27.165 2.19408 27.182C2.25008 27.199 2.28208 27.288 2.25708 27.382Z" fill="#D44028"/>
    <path d="M0.904986 29.899C0.879986 29.992 0.804985 30.054 0.748985 30.038C0.692985 30.022 0.659985 29.933 0.684985 29.838C0.709985 29.743 0.784985 29.684 0.840985 29.7C0.896985 29.716 0.933986 29.809 0.904986 29.899Z" fill="#D44028"/>
    <path d="M7.89892 29.62C7.87392 29.713 7.79892 29.775 7.74292 29.758C7.68692 29.741 7.65392 29.653 7.67992 29.558C7.70592 29.463 7.77492 29.403 7.83592 29.42C7.89692 29.437 7.92392 29.527 7.89892 29.62Z" fill="#D44028"/>
    <path d="M10.509 23.722C10.483 23.815 10.409 23.877 10.353 23.86C10.297 23.843 10.264 23.754 10.29 23.66C10.316 23.566 10.39 23.505 10.446 23.522C10.502 23.539 10.534 23.629 10.509 23.722Z" fill="#D44028"/>
    <path d="M10.929 22.953C10.903 23.046 10.829 23.108 10.774 23.091C10.719 23.074 10.685 22.991 10.711 22.891C10.737 22.791 10.806 22.736 10.867 22.753C10.928 22.77 10.954 22.86 10.929 22.953Z" fill="#D44028"/>
    <path d="M11.1781 23.737C11.1601 23.804 11.1101 23.848 11.0661 23.837C11.0221 23.826 11.0021 23.761 11.0211 23.695C11.0401 23.629 11.0891 23.583 11.1331 23.595C11.1771 23.607 11.1961 23.67 11.1781 23.737Z" fill="#D44028"/>
    <path d="M2.66997 27.909C2.65197 27.976 2.60197 28.02 2.55797 28.009C2.51397 27.998 2.49396 27.933 2.51196 27.867C2.52996 27.801 2.57997 27.756 2.62397 27.767C2.66797 27.778 2.68797 27.843 2.66997 27.909Z" fill="#D44028"/>
    <path d="M1.31187 29.707C1.29587 29.764 1.25387 29.801 1.21687 29.791C1.17987 29.781 1.16287 29.727 1.17887 29.67C1.19487 29.613 1.23687 29.576 1.27287 29.586C1.30887 29.596 1.32687 29.651 1.31187 29.707Z" fill="#D44028"/>
    <path d="M6.08402 25.505C6.06902 25.562 6.02602 25.599 5.98902 25.589C5.95202 25.579 5.93502 25.525 5.95002 25.468C5.96502 25.411 6.00802 25.374 6.04502 25.384C6.08202 25.394 6.09902 25.448 6.08402 25.505Z" fill="#D44028"/>
    <path d="M3.55889 29.276C3.55889 29.276 3.12689 29.907 3.61689 30.257C4.10689 30.607 4.97189 30.339 4.88989 29.287C4.80789 28.235 3.79489 28.065 3.44089 27.887C3.27933 27.8375 3.13102 27.7522 3.00703 27.6374C2.88305 27.5226 2.7866 27.3813 2.72487 27.224C2.66315 27.0667 2.63774 26.8975 2.65056 26.729C2.66338 26.5605 2.71408 26.3971 2.79889 26.251C2.87665 26.0992 2.98743 25.9667 3.12308 25.8634C3.25874 25.76 3.41582 25.6883 3.58281 25.6536C3.74979 25.6189 3.92243 25.622 4.08805 25.6627C4.25367 25.7035 4.40807 25.7808 4.53989 25.889C4.88989 26.321 4.66889 26.765 4.45789 26.812C4.41289 26.8255 4.36541 26.8287 4.31902 26.8212C4.27263 26.8138 4.22853 26.7959 4.19003 26.7689C4.15154 26.742 4.11965 26.7067 4.09677 26.6656C4.07388 26.6246 4.06059 26.5789 4.05789 26.532C4.02289 26.322 3.63789 26.403 3.70789 26.707C3.77789 27.011 4.00089 27.173 4.43189 27.314C4.92839 27.4935 5.33779 27.8555 5.57672 28.3263C5.81565 28.7971 5.86613 29.3413 5.71789 29.848C5.70426 30.0828 5.63838 30.3117 5.52507 30.5178C5.41176 30.724 5.25388 30.9023 5.06293 31.0397C4.87198 31.1771 4.65277 31.2701 4.42129 31.312C4.18982 31.354 3.9519 31.3437 3.72489 31.282C3.33927 31.1694 3.0024 30.931 2.76791 30.6048C2.53342 30.2786 2.41479 29.8834 2.43089 29.482C2.51789 28.765 2.97289 28.503 3.37489 28.626C3.77689 28.749 3.63389 29.141 3.55889 29.276Z" fill="#D44028"/>
    <path d="M7.23498 27.659C7.19798 26.966 6.80398 26.424 6.35298 26.447C5.90198 26.47 5.56798 27.047 5.60398 27.747C5.63998 28.447 6.03498 28.982 6.48498 28.958C6.93498 28.934 7.27198 28.352 7.23498 27.659ZM6.45798 27.903C6.31698 27.911 6.19398 27.741 6.18198 27.525C6.16998 27.309 6.27498 27.125 6.41598 27.12C6.55698 27.115 6.67997 27.282 6.69197 27.499C6.70397 27.716 6.59898 27.896 6.45798 27.903Z" fill="#D44028"/>
    <path d="M9.54078 27.743C9.48278 26.955 9.34978 26.073 9.30378 25.656C9.25778 25.239 9.22278 24.904 9.02578 24.892C8.82878 24.88 8.73578 24.915 8.73578 25.402C8.73681 25.7051 8.7582 26.0078 8.79978 26.308C8.08178 25.717 7.10979 26.991 7.59979 28.102C8.11879 29.288 8.88479 28.496 8.98879 27.986C9.19379 28.438 9.59878 28.345 9.54078 27.743ZM8.31978 28.009C8.09278 28.009 7.90878 27.76 7.90878 27.453C7.90878 27.146 8.09278 26.897 8.31978 26.897C8.54678 26.897 8.73078 27.146 8.73078 27.453C8.73078 27.76 8.54578 28.01 8.31978 28.01V28.009Z" fill="#D44028"/>
    <path d="M11.0288 26.63C10.8538 26.478 10.8078 26.222 10.7728 25.674C10.7378 25.126 10.6558 24.59 10.2828 24.543C9.90982 24.496 9.68881 25.067 9.68881 25.067C9.65381 25.195 9.54882 25.58 9.78182 25.638C10.0148 25.696 9.94482 25.265 10.2008 25.277C10.4918 25.289 10.4808 25.883 10.4808 25.883C10.4314 25.8363 10.371 25.8028 10.3053 25.7854C10.2395 25.7681 10.1705 25.7675 10.1044 25.7837C10.0384 25.7999 9.97748 25.8324 9.92724 25.8783C9.877 25.9241 9.83903 25.9817 9.81681 26.046C9.68881 26.337 9.58382 27.224 10.1438 27.363C10.7038 27.502 10.7378 26.897 10.7378 26.897C10.7258 27.072 10.8308 27.328 11.0288 27.258C11.2268 27.188 11.2038 26.781 11.0288 26.63ZM10.2598 26.83C10.1378 26.83 10.0388 26.692 10.0388 26.522C10.0388 26.352 10.1388 26.213 10.2598 26.213C10.3808 26.213 10.4818 26.351 10.4818 26.522C10.4818 26.693 10.3818 26.828 10.2598 26.828V26.83Z" fill="#D44028"/>
    <path opacity="0.5" d="M11.618 17.804C11.33 17.324 10.73 16.197 10.73 16.197H1.27102C1.27102 16.197 0.671017 17.324 0.383017 17.804C0.113007 18.2325 -0.00531445 18.7392 0.0470171 19.243V33.652C0.0470171 34.192 0.412017 34.682 1.56502 35.099C2.92928 35.5089 4.34119 35.7392 5.76502 35.784H6.34602C7.76842 35.8564 9.19068 35.6383 10.526 35.143C11.642 34.636 11.958 34.192 11.958 33.652V19.243C12.0092 18.7388 11.8894 18.232 11.618 17.804ZM6.80102 19.933V33.833C6.17802 35.577 3.08902 34.954 1.69002 34.433C0.291017 33.912 0.549017 33.063 0.549017 33.063V19.288C0.518468 18.9047 0.604944 18.5211 0.797017 18.188L1.57002 17.153C2.98644 17.7321 4.50841 18.0084 6.03802 17.964C6.26114 18.2198 6.44851 18.5048 6.59502 18.811C6.7338 19.1687 6.80369 19.5493 6.80102 19.933V19.933Z" fill="#0F6710"/>
    <path opacity="0.5" d="M11.6179 17.804C11.3299 17.324 10.7299 16.197 10.7299 16.197H2.0979C2.67196 16.552 3.29827 16.8146 3.9539 16.975C4.50541 17.1233 5.06591 17.2358 5.6319 17.312C6.26033 17.3539 6.89051 17.3632 7.5199 17.34C8.20742 17.2776 8.89544 17.4542 9.4679 17.84C9.98029 18.378 10.2841 19.0811 10.3249 19.823C10.3819 20.6553 10.3819 21.4906 10.3249 22.323C10.3249 22.354 10.3249 22.386 10.3249 22.417C10.2939 23.643 10.3249 28.547 10.3299 29.773C10.3299 30.391 10.3219 31.01 10.3409 31.627C10.3559 32.133 10.3999 32.641 10.3779 33.148C10.3811 33.5551 10.3009 33.9586 10.1422 34.3336C9.98342 34.7085 9.74952 35.047 9.4549 35.328C9.3739 35.405 9.2889 35.479 9.2019 35.552C9.6551 35.4644 10.0974 35.3276 10.5209 35.144C11.6369 34.637 11.9529 34.193 11.9529 33.653V19.243C12.0055 18.7393 11.8876 18.2326 11.6179 17.804V17.804Z" fill="#09410A"/>
    <path d="M10.9139 16.304C10.9139 16.947 8.70088 17.468 5.97088 17.468C3.24088 17.468 1.02588 16.947 1.02588 16.304C1.02588 15.661 3.23888 15.139 5.96888 15.139C8.69888 15.139 10.9139 15.661 10.9139 16.304Z" fill="#DEDFE0"/>
    <path d="M5.96996 17.515C3.16996 17.515 0.980957 16.983 0.980957 16.304C0.980957 15.625 3.17296 15.093 5.96996 15.093C8.76696 15.093 10.96 15.625 10.96 16.304C10.96 16.983 8.76796 17.515 5.96996 17.515ZM5.96996 15.186C3.31596 15.186 1.06996 15.698 1.06996 16.304C1.06996 16.91 3.31196 17.422 5.96996 17.422C8.62796 17.422 10.87 16.91 10.87 16.304C10.87 15.698 8.62496 15.186 5.96996 15.186V15.186Z" fill="#A0A2A4"/>
    <path d="M10.9139 16.071C10.9139 16.671 8.70088 17.155 5.97088 17.155C3.24088 17.155 1.02588 16.669 1.02588 16.071C1.02588 15.473 3.23888 15.045 5.96888 15.045C8.69888 15.045 10.9139 15.472 10.9139 16.071Z" fill="#DEDFE0"/>
    <path d="M5.96996 17.201C3.51696 17.201 0.980957 16.778 0.980957 16.071C0.980957 15.364 3.49096 14.999 5.96996 14.999C8.44896 14.999 10.96 15.367 10.96 16.071C10.96 16.775 8.42296 17.201 5.96996 17.201ZM5.96996 15.091C3.22396 15.091 1.06996 15.521 1.06996 16.07C1.06996 16.57 3.03696 17.107 5.96996 17.107C8.90296 17.107 10.87 16.571 10.87 16.07C10.867 15.521 8.71596 15.091 5.96996 15.091V15.091Z" fill="#A0A2A4"/>
    <path d="M5.95477 15.458C8.26177 15.458 10.1708 15.758 10.4948 16.158C10.5247 16.125 10.542 16.0825 10.5438 16.038C10.5438 15.586 8.48877 15.219 5.95377 15.219C3.41877 15.219 1.36377 15.586 1.36377 16.038C1.36545 16.0825 1.3828 16.125 1.41277 16.158C1.73977 15.758 3.64777 15.458 5.95477 15.458Z" fill="#959899"/>
    <path d="M1.41387 16.201C1.40699 16.201 1.4002 16.1994 1.39398 16.1965C1.38776 16.1936 1.38226 16.1893 1.37787 16.184C1.34077 16.1427 1.31952 16.0895 1.31787 16.034C1.31787 15.614 2.94287 15.168 5.95387 15.168C8.96487 15.168 10.5899 15.614 10.5899 16.034C10.588 16.0892 10.5668 16.1419 10.5299 16.183C10.5255 16.1883 10.52 16.1926 10.5138 16.1955C10.5075 16.1984 10.5008 16.2 10.4939 16.2C10.487 16.2 10.4802 16.1984 10.474 16.1955C10.4678 16.1926 10.4623 16.1883 10.4579 16.183C10.1389 15.794 8.20187 15.5 5.95787 15.5C3.71387 15.5 1.77287 15.794 1.45787 16.183C1.45348 16.1883 1.44798 16.1926 1.44176 16.1955C1.43554 16.1984 1.42875 16.2 1.42187 16.2L1.41387 16.201ZM5.95387 15.411C8.18087 15.411 10.0539 15.691 10.4869 16.083C10.4934 16.0685 10.4968 16.0529 10.4969 16.037C10.4969 15.664 8.67087 15.264 5.95387 15.264C3.23687 15.264 1.41087 15.664 1.41087 16.037C1.411 16.0529 1.4144 16.0685 1.42087 16.083C1.85887 15.689 3.72687 15.411 5.95387 15.411Z" fill="#A0A2A4"/>
    <path d="M5.95382 16.855C8.26082 16.855 10.1698 16.555 10.4938 16.155C10.1688 15.755 8.26082 15.455 5.95382 15.455C3.64682 15.455 1.73882 15.755 1.41382 16.155C1.73882 16.551 3.64682 16.855 5.95382 16.855Z" fill="#DEDFE0"/>
    <path d="M5.95384 16.901C3.64284 16.901 1.71884 16.601 1.37784 16.184C1.37111 16.1756 1.36743 16.1652 1.36743 16.1545C1.36743 16.1438 1.37111 16.1333 1.37784 16.125C1.71884 15.71 3.64384 15.408 5.95384 15.408C8.26384 15.408 10.1888 15.708 10.5298 16.125C10.5366 16.1333 10.5403 16.1438 10.5403 16.1545C10.5403 16.1652 10.5366 16.1756 10.5298 16.184C10.1888 16.599 8.26484 16.901 5.95384 16.901ZM1.47684 16.154C1.86784 16.529 3.76284 16.808 5.95384 16.808C8.14484 16.808 10.0398 16.529 10.4308 16.154C10.0408 15.78 8.14584 15.501 5.95384 15.501C3.76184 15.501 1.86684 15.78 1.47684 16.154V16.154Z" fill="#A0A2A4"/>
    <path d="M2.24585 16.018C2.24585 16.018 2.03885 16.077 2.25585 16.235C2.47285 16.393 3.05584 16.728 5.11884 16.758C7.21884 16.827 7.53784 16.344 6.85684 16.324C6.17584 16.304 3.86485 16.831 2.24585 16.018Z" fill="#B8B9BB"/>
    <path d="M4.19199 16.356C3.49522 16.4216 2.79842 16.231 2.23199 15.82C2.16399 15.969 2.29699 16.181 2.70699 16.356C3.62926 16.6299 4.59313 16.7366 5.55299 16.671C6.55899 16.678 6.97099 16.389 7.04199 16.065C6.73799 16.348 5.88399 16.412 4.19199 16.356Z" fill="#DEDFE0"/>
    <path d="M5.58687 16.717H5.54987C4.58481 16.7823 3.61584 16.6743 2.68887 16.398C2.47742 16.3331 2.29863 16.19 2.18887 15.998C2.17493 15.9665 2.16772 15.9324 2.16772 15.898C2.16772 15.8635 2.17493 15.8295 2.18887 15.798C2.19214 15.7913 2.19694 15.7855 2.20288 15.7811C2.20882 15.7766 2.21574 15.7736 2.22305 15.7724C2.23037 15.7711 2.23789 15.7716 2.24498 15.7738C2.25208 15.776 2.25855 15.7798 2.26387 15.785C2.82232 16.1871 3.50785 16.3726 4.19287 16.307C4.56787 16.319 4.88687 16.326 5.16587 16.326C6.23387 16.326 6.78487 16.237 7.00687 16.026C7.01401 16.0189 7.02329 16.0143 7.03327 16.013C7.04325 16.0117 7.05338 16.0137 7.06212 16.0187C7.07087 16.0237 7.07773 16.0314 7.08166 16.0407C7.08558 16.0499 7.08636 16.0602 7.08387 16.07C7.03187 16.317 6.76687 16.717 5.58687 16.717ZM2.26187 15.91C2.26366 15.9282 2.26804 15.946 2.27487 15.963C2.30187 16.034 2.39687 16.173 2.72587 16.313C3.64194 16.5836 4.59888 16.6889 5.55187 16.624H5.58787C6.28787 16.624 6.77187 16.468 6.93987 16.192C6.37242 16.3943 5.76812 16.4724 5.16787 16.421C4.88687 16.421 4.56787 16.415 4.19187 16.402C3.51238 16.4497 2.83558 16.2772 2.26187 15.91V15.91Z" fill="#A0A2A4"/>
    <path d="M7.03496 15.825C6.93496 15.425 6.30596 15.402 4.82096 15.465C3.33596 15.528 2.55296 15.645 2.55296 15.645C2.48894 15.6449 2.42592 15.6609 2.36967 15.6915C2.31342 15.7221 2.26573 15.7662 2.23096 15.82C2.79739 16.231 3.49419 16.4216 4.19096 16.356C5.88296 16.412 6.73696 16.348 7.03896 16.065C7.05621 15.9858 7.05484 15.9036 7.03496 15.825V15.825ZM3.86696 16.068C3.57406 16.0829 3.28118 16.0383 3.00596 15.937C3.56666 15.7623 4.16725 15.7623 4.72796 15.937C4.45276 16.0384 4.15986 16.083 3.86696 16.068ZM6.03796 16.099C5.80269 16.1125 5.56821 16.0613 5.35996 15.951C5.56993 15.8319 5.81006 15.7767 6.05096 15.792C6.28623 15.7785 6.5207 15.8297 6.72896 15.94C6.51899 16.0591 6.27885 16.1143 6.03796 16.099V16.099Z" fill="white"/>
    <path d="M5.16697 16.421C4.88597 16.421 4.56697 16.415 4.19097 16.402C3.48208 16.4681 2.77352 16.2724 2.19897 15.852C2.19243 15.8452 2.18808 15.8366 2.18648 15.8274C2.18488 15.8181 2.18609 15.8086 2.18997 15.8C2.22829 15.7393 2.28124 15.6891 2.34396 15.6542C2.40668 15.6193 2.47717 15.6006 2.54897 15.6C2.55597 15.6 3.34897 15.482 4.81997 15.42C5.27297 15.401 5.56996 15.393 5.81496 15.393C6.55196 15.393 6.99497 15.462 7.08097 15.816C7.10115 15.9018 7.10115 15.9912 7.08097 16.077C7.07889 16.0862 7.074 16.0946 7.06697 16.101C6.82697 16.327 6.27497 16.421 5.16697 16.421ZM2.28997 15.812C2.8476 16.1908 3.51811 16.3672 4.18996 16.312C4.56496 16.324 4.88297 16.331 5.16297 16.331C6.21397 16.331 6.76297 16.245 6.99297 16.043C7.00471 15.9766 7.00232 15.9084 6.98597 15.843C6.92297 15.587 6.60497 15.491 5.80997 15.491C5.56697 15.491 5.26997 15.499 4.81897 15.518C3.35397 15.58 2.56397 15.696 2.55597 15.697C2.45577 15.6995 2.36045 15.7407 2.28997 15.812V15.812ZM6.03997 16.146C5.79676 16.159 5.55465 16.105 5.33997 15.99C5.33435 15.9856 5.32981 15.98 5.32669 15.9736C5.32357 15.9672 5.32195 15.9601 5.32195 15.953C5.32195 15.9459 5.32357 15.9388 5.32669 15.9324C5.32981 15.926 5.33435 15.9204 5.33997 15.916C5.55843 15.7909 5.80872 15.7325 6.05997 15.748C6.30485 15.7341 6.54881 15.7881 6.76497 15.904C6.77058 15.9084 6.77512 15.914 6.77824 15.9204C6.78136 15.9268 6.78298 15.9339 6.78298 15.941C6.78298 15.9481 6.78136 15.9552 6.77824 15.9616C6.77512 15.968 6.77058 15.9736 6.76497 15.978C6.5455 16.1051 6.29299 16.1636 6.03997 16.146ZM5.45197 15.946C5.63911 16.019 5.8392 16.053 6.03997 16.046C6.24543 16.0525 6.44994 16.0154 6.63997 15.937C6.45249 15.8639 6.25206 15.8299 6.05096 15.837C5.84517 15.8303 5.64031 15.8675 5.44997 15.946H5.45197ZM3.86996 16.111C3.56939 16.1256 3.26898 16.079 2.98697 15.974C2.97968 15.9699 2.97361 15.964 2.96939 15.9567C2.96517 15.9495 2.96294 15.9413 2.96294 15.933C2.96294 15.9246 2.96517 15.9164 2.96939 15.9092C2.97361 15.902 2.97968 15.8961 2.98697 15.892C3.56155 15.7099 4.17838 15.7099 4.75296 15.892C4.76025 15.8961 4.76632 15.902 4.77054 15.9092C4.77476 15.9164 4.77699 15.9246 4.77699 15.933C4.77699 15.9413 4.77476 15.9495 4.77054 15.9567C4.76632 15.964 4.76025 15.9699 4.75296 15.974C4.47055 16.0803 4.16942 16.128 3.86797 16.114L3.86996 16.111ZM3.13396 15.933C3.61812 16.046 4.1218 16.046 4.60596 15.933C4.12178 15.8202 3.61815 15.8202 3.13396 15.933V15.933Z" fill="#A0A2A4"/>
    <path d="M4.72889 15.937C4.77689 15.911 4.80389 15.882 4.80389 15.852C4.80389 15.733 4.38489 15.636 3.86789 15.636C3.35089 15.636 2.93188 15.736 2.93188 15.852C2.93188 15.882 2.95889 15.911 3.00689 15.937C3.56759 15.7623 4.16818 15.7623 4.72889 15.937V15.937Z" fill="#DEDFE0"/>
    <path d="M3.00994 15.983C3.00223 15.9828 2.99467 15.9808 2.98794 15.977C2.92194 15.942 2.88794 15.899 2.88794 15.851C2.88794 15.643 3.53094 15.588 3.86994 15.588C4.20894 15.588 4.85194 15.643 4.85194 15.851C4.85194 15.899 4.81794 15.941 4.75194 15.977C4.74519 15.9807 4.73763 15.9826 4.72994 15.9826C4.72226 15.9826 4.71469 15.9807 4.70794 15.977C4.16113 15.8096 3.57676 15.8096 3.02994 15.977C3.02381 15.9805 3.01697 15.9825 3.00994 15.983V15.983ZM3.87094 15.759C4.16253 15.7475 4.45374 15.7898 4.72994 15.884C4.75394 15.868 4.75994 15.856 4.75994 15.852C4.75994 15.801 4.45994 15.682 3.87094 15.682C3.28194 15.682 2.98194 15.801 2.98194 15.852C2.98194 15.852 2.98794 15.868 3.01194 15.884C3.28689 15.7904 3.57669 15.748 3.86694 15.759H3.87094Z" fill="#A0A2A4"/>
    <path d="M6.7301 15.942C6.74703 15.9309 6.76129 15.9161 6.77184 15.8988C6.78238 15.8815 6.78896 15.8621 6.79111 15.842C6.79111 15.698 6.45411 15.582 6.03911 15.582C5.62411 15.582 5.28711 15.698 5.28711 15.842C5.28977 15.8653 5.29797 15.8876 5.31101 15.9071C5.32406 15.9266 5.34158 15.9427 5.36211 15.954C5.57229 15.8356 5.81241 15.7811 6.05311 15.797C6.28777 15.7828 6.52185 15.8329 6.7301 15.942V15.942Z" fill="#DEDFE0"/>
    <path d="M5.36002 15.997C5.35029 15.9969 5.34084 15.9938 5.33302 15.988C5.30629 15.9726 5.28376 15.9508 5.26737 15.9247C5.25099 15.8985 5.24125 15.8688 5.23901 15.838C5.23901 15.638 5.65102 15.532 6.03902 15.532C6.42702 15.532 6.83902 15.639 6.83902 15.838C6.83756 15.8656 6.82976 15.8925 6.81624 15.9166C6.80271 15.9407 6.78382 15.9614 6.76102 15.977C6.75298 15.9832 6.74314 15.9865 6.73302 15.9865C6.72289 15.9865 6.71305 15.9832 6.70502 15.977C6.50355 15.8737 6.27803 15.8263 6.05202 15.84C5.8219 15.8256 5.59239 15.8765 5.39001 15.987C5.38151 15.9938 5.37088 15.9973 5.36002 15.997V15.997ZM6.03802 15.625C5.60102 15.625 5.33202 15.749 5.33202 15.838C5.33459 15.8592 5.34536 15.8786 5.36201 15.892C5.57588 15.7856 5.81341 15.7357 6.05202 15.747C6.28396 15.737 6.51488 15.7833 6.72501 15.882C6.73669 15.8702 6.74379 15.8546 6.74502 15.838C6.74402 15.749 6.47502 15.625 6.03802 15.625Z" fill="#A0A2A4"/>
    <path d="M2.75992 15.831C2.74192 15.943 2.40692 15.946 2.38892 15.831C2.37392 15.731 2.74092 15.711 2.75992 15.831C2.75992 15.842 2.79692 15.837 2.79492 15.831C2.77392 15.696 2.37392 15.697 2.35192 15.831C2.33292 15.949 2.77192 15.972 2.79492 15.831C2.79692 15.82 2.76192 15.82 2.75992 15.831Z" fill="#6B686C"/>
    <path d="M2.26789 15.467C1.92616 15.5277 1.60428 15.6704 1.32989 15.883C1.10789 16.154 1.62989 16.492 3.04189 16.734C2.35489 16.802 1.04189 16.376 1.13589 15.951C1.23789 15.622 2.26789 15.467 2.26789 15.467Z" fill="white"/>
    <path d="M23.7781 15.411C24.4261 15.149 25.9451 14.452 25.9901 11.171C26.0351 7.89001 24.5081 6.93607 22.3161 5.51707H22.3331C21.8331 5.08707 21.3441 4.76909 21.1711 4.28709C20.9128 3.03037 20.7868 1.74999 20.7951 0.467026H17.6851C17.6934 1.74999 17.5674 3.03037 17.3091 4.28709C17.1361 4.77009 16.6481 5.08707 16.1471 5.51707H16.1741C13.9831 6.93907 12.4551 7.89601 12.5041 11.176C12.5531 14.456 14.0731 15.1521 14.7211 15.4131C15.7211 15.8131 15.4641 16.1881 15.4901 16.8251C15.5161 17.4621 12.9971 18.1011 12.8491 19.7871C12.7111 21.3631 12.7491 30.7591 12.7491 31.9751V34.6061C12.7422 34.8435 12.7845 35.0798 12.8733 35.3002C12.9622 35.5205 13.0956 35.7201 13.2654 35.8863C13.4351 36.0526 13.6374 36.1819 13.8595 36.2662C14.0816 36.3505 14.3188 36.3879 14.5561 36.3761C16.1431 36.3331 15.8201 35.0241 16.6661 35.0581C17.5121 35.0921 17.2411 35.586 17.7941 36.015C18.243 36.2615 18.7469 36.3907 19.2591 36.3907C19.7712 36.3907 20.2751 36.2615 20.7241 36.015C21.2781 35.587 21.0061 35.0921 21.8521 35.0581C22.6981 35.0241 22.3751 36.3321 23.9621 36.3761C24.1994 36.3879 24.4365 36.3505 24.6586 36.2662C24.8808 36.1819 25.0831 36.0526 25.2528 35.8863C25.4225 35.7201 25.556 35.5205 25.6448 35.3002C25.7337 35.0798 25.776 34.8435 25.7691 34.6061V31.9751C25.7691 30.7811 25.7951 21.36 25.6551 19.781C25.5051 18.095 23.1151 17.461 23.1401 16.823C23.1651 16.185 22.7791 15.816 23.7781 15.411Z" fill="#BBDCF9"/>
    <path d="M23.2242 15.154C23.7742 14.9 25.5492 14.579 25.5872 11.407C25.6951 10.1624 25.3636 8.91949 24.6502 7.89403L13.9632 7.98302C13.2322 8.95856 12.8839 10.1681 12.9842 11.383C13.0262 14.555 14.7332 14.919 15.2842 15.172C16.1332 15.562 15.9712 16.379 15.9932 16.995C16.0152 17.611 13.8752 18.229 13.7502 19.859C13.6332 21.383 13.6622 30.469 13.6662 31.645V34.1889C13.6662 34.1889 13.6662 35.915 14.6602 35.915C16.0082 35.915 15.8672 34.673 16.5842 34.615C17.3842 34.551 17.4842 35.137 17.9512 35.552C18.3229 35.7894 18.7547 35.9155 19.1957 35.9155C19.6367 35.9155 20.0685 35.7894 20.4402 35.552C20.9102 35.138 21.1962 34.534 21.9152 34.501C22.6342 34.468 22.5052 35.655 23.8472 35.786C25.5922 35.956 24.8942 33.133 24.9092 29.954C24.9282 25.761 24.6962 20.722 24.6282 19.854C24.5012 18.224 22.4712 17.61 22.4922 16.993C22.5132 16.376 22.3762 15.545 23.2242 15.154Z" fill="#F7B719"/>
    <path opacity="0.23" d="M23.7781 15.411C24.4261 15.149 25.9451 14.452 25.9901 11.171C26.0351 7.89001 24.5081 6.93607 22.3161 5.51707H22.3331C21.8331 5.08707 21.3441 4.76909 21.1711 4.28709C20.9128 3.03037 20.7868 1.74999 20.7951 0.467026H19.0641C19.0557 1.74999 19.1818 3.03037 19.4401 4.28709C19.6131 4.77009 20.1011 5.08707 20.6021 5.51707H20.5851C22.7771 6.93607 24.3041 7.89201 24.2591 11.171C24.2595 11.812 24.1782 12.4506 24.0171 13.071C23.3983 13.9009 22.5646 14.5461 21.6061 14.937C20.4119 15.3999 19.1617 15.7025 17.8881 15.837H21.4291C21.2701 16.108 21.4291 16.409 21.4101 16.822C21.3851 17.46 23.7751 18.095 23.9251 19.78C24.0651 21.358 24.0431 30.78 24.0391 31.974V34.6051C24.0282 34.8981 23.9603 35.186 23.8391 35.453C22.3921 35.348 22.6761 34.1221 21.8521 34.1531C21.0061 34.1871 21.2771 34.6761 20.7241 35.1001C20.2743 35.3441 19.7707 35.4719 19.2591 35.4719C18.7474 35.4719 18.2438 35.3441 17.7941 35.1001C17.2401 34.6761 17.5121 34.1871 16.6661 34.1531C15.8201 34.1191 16.1431 35.414 14.5561 35.453C14.32 35.4663 14.0838 35.4307 13.8622 35.3481C13.6407 35.2656 13.4387 35.138 13.2689 34.9735C13.0991 34.809 12.9652 34.611 12.8758 34.3922C12.7863 34.1734 12.7432 33.9384 12.7491 33.702V34.602C12.7432 34.8384 12.7863 35.0734 12.8758 35.2922C12.9652 35.5111 13.0991 35.709 13.2689 35.8735C13.4387 36.038 13.6407 36.1656 13.8622 36.2482C14.0838 36.3307 14.32 36.3664 14.5561 36.353C16.1431 36.31 15.8201 35.0151 16.6661 35.0531C17.5121 35.0911 17.2411 35.576 17.7941 36C18.2438 36.2441 18.7474 36.3721 19.2591 36.3721C19.7708 36.3721 20.2743 36.2441 20.7241 36C21.2781 35.576 21.0061 35.0871 21.8521 35.0531C22.5141 35.0271 22.4611 35.8141 23.1671 36.1781L23.1561 36.1841C23.4067 36.3087 23.6831 36.3728 23.9631 36.3711C24.3693 36.4115 24.7758 36.2963 25.1005 36.0487C25.4251 35.8011 25.6437 35.4396 25.7121 35.0371C25.7468 34.8959 25.7665 34.7514 25.7711 34.6061V31.9751C25.7711 30.7811 25.7971 21.36 25.6571 19.781C25.5071 18.095 23.1171 17.461 23.1421 16.823C23.1671 16.185 22.7791 15.816 23.7781 15.411Z" fill="#777589"/>
    <path d="M18.3971 0.000961304H19.9921C20.3334 0.000961304 20.6608 0.136556 20.9022 0.377915C21.1435 0.619274 21.2791 0.946628 21.2791 1.28796V1.28796C21.2791 1.62929 21.1435 1.95665 20.9022 2.19801C20.6608 2.43937 20.3334 2.57496 19.9921 2.57496H18.3971C18.0558 2.57496 17.7284 2.43937 17.4871 2.19801C17.2457 1.95665 17.1101 1.62929 17.1101 1.28796V1.28796C17.1101 0.946628 17.2457 0.619274 17.4871 0.377915C17.7284 0.136556 18.0558 0.000961304 18.3971 0.000961304V0.000961304Z" fill="#304298"/>
    <path d="M17.4481 2.78496H20.9791C21.0297 2.78496 21.0783 2.80508 21.1141 2.8409C21.15 2.87672 21.1701 2.9253 21.1701 2.97596V2.97596C21.1701 3.02661 21.15 3.0752 21.1141 3.11102C21.0783 3.14683 21.0297 3.16696 20.9791 3.16696H17.4481C17.3974 3.16696 17.3488 3.14683 17.313 3.11102C17.2772 3.0752 17.2571 3.02661 17.2571 2.97596V2.97596C17.2571 2.9253 17.2772 2.87672 17.313 2.8409C17.3488 2.80508 17.3974 2.78496 17.4481 2.78496V2.78496Z" fill="#304298"/>
    <path d="M17.7601 0.371964H17.4751V2.57496H17.7601V0.371964Z" fill="#223466"/>
    <path d="M18.3751 0.371964H18.0901V2.57496H18.3751V0.371964Z" fill="#223466"/>
    <path d="M19.0811 0.371964H18.7961V2.57496H19.0811V0.371964Z" fill="#223466"/>
    <path d="M19.765 0.371964H19.48V2.57496H19.765V0.371964Z" fill="#223466"/>
    <path d="M20.3912 0.371964H20.1062V2.57496H20.3912V0.371964Z" fill="#223466"/>
    <path d="M20.8922 0.371964H20.6072V2.57496H20.8922V0.371964Z" fill="#223466"/>
    <path d="M20.8932 0.245956H17.4712C17.4492 0.245956 17.4281 0.23723 17.4125 0.221664C17.3969 0.206099 17.3882 0.184962 17.3882 0.162949V0.162949C17.3882 0.152049 17.3903 0.14128 17.3945 0.13121C17.3987 0.12114 17.4048 0.11194 17.4125 0.104233C17.4202 0.0965255 17.4294 0.0904596 17.4394 0.0862885C17.4495 0.0821173 17.4603 0.0799408 17.4712 0.0799408H20.8932C20.9041 0.0799408 20.9149 0.0821173 20.925 0.0862885C20.935 0.0904596 20.9442 0.0965255 20.9519 0.104233C20.9596 0.11194 20.9657 0.12114 20.9699 0.13121C20.9741 0.14128 20.9762 0.152049 20.9762 0.162949V0.162949C20.9762 0.184962 20.9674 0.206099 20.9519 0.221664C20.9363 0.23723 20.9152 0.245956 20.8932 0.245956V0.245956Z" fill="#405CC6"/>
    <path opacity="0.58" d="M14.1902 8.64806C14.1618 8.79278 14.1656 8.94196 14.2012 9.08507C14.3012 9.41707 14.6452 9.48503 14.9242 9.49303C15.4462 9.51603 15.9682 9.53398 16.4892 9.56298C20.1542 9.76298 20.1462 8.30407 20.0032 8.01207C19.8123 7.62535 19.5349 7.28762 19.1926 7.02526C18.8503 6.7629 18.4522 6.58287 18.0292 6.49901C16.5732 6.20001 14.5212 6.34806 14.1902 8.64806Z" fill="white"/>
    <path opacity="0.58" d="M17.8691 4.20193C17.8451 4.41693 17.7541 4.62001 17.7281 4.83401C17.7058 4.93998 17.7153 5.05022 17.7555 5.15078C17.7957 5.25134 17.8649 5.33765 17.9541 5.39895C18.0695 5.44103 18.1963 5.43845 18.3098 5.39162C18.4233 5.34479 18.5151 5.25718 18.5671 5.14602C18.662 4.91866 18.6965 4.67053 18.6671 4.42593C18.6591 4.14893 18.7081 3.63902 18.3621 3.52602C17.9221 3.38002 17.9001 3.92393 17.8691 4.20193Z" fill="white"/>
    <path d="M25.6952 23.239H21.9502C21.7186 22.6999 21.3341 22.2405 20.8442 21.9177C20.3542 21.5949 19.7804 21.423 19.1937 21.423C18.607 21.423 18.0331 21.5949 17.5432 21.9177C17.0533 22.2405 16.6687 22.6999 16.4372 23.239H12.7632V29.787H16.4372C16.6687 30.3261 17.0533 30.7855 17.5432 31.1083C18.0331 31.431 18.607 31.603 19.1937 31.603C19.7804 31.603 20.3542 31.431 20.8442 31.1083C21.3341 30.7855 21.7186 30.3261 21.9502 29.787H25.6952V23.239Z" fill="#EDEDC3"/>
    <path d="M19.1261 30.57C20.8962 30.57 22.3311 28.7635 22.3311 26.535C22.3311 24.3065 20.8962 22.5 19.1261 22.5C17.3561 22.5 15.9211 24.3065 15.9211 26.535C15.9211 28.7635 17.3561 30.57 19.1261 30.57Z" fill="#01AFF5"/>
    <path d="M25.771 24.991H12.748V28.081H25.771V24.991Z" fill="#01AFF5"/>
    <path opacity="0.58" d="M14.629 32.0179C14.6294 32.182 14.6695 32.3436 14.7457 32.4889C14.822 32.6342 14.9322 32.759 15.067 32.8525C15.2018 32.9461 15.3572 33.0057 15.52 33.0264C15.6828 33.047 15.8482 33.0279 16.002 32.9709C16.1601 32.857 16.2914 32.7101 16.3871 32.5404C16.4828 32.3707 16.5404 32.1822 16.556 31.988C16.626 31.57 16.534 20.974 16.574 20.729C16.766 19.552 17.745 18.637 17.603 18.156C17.428 17.562 16.97 17.593 16.517 17.662C15.433 17.826 14.753 19.4119 14.609 20.6439C14.483 21.7279 14.561 31.4549 14.629 32.0179Z" fill="white"/>
    <path d="M15.489 27.2041C15.4155 27.2057 15.3421 27.1969 15.2711 27.1781C15.213 27.1611 15.1565 27.1393 15.1021 27.113V26.913H15.1131C15.1642 26.9612 15.2239 26.9995 15.289 27.026C15.3488 27.0515 15.413 27.0651 15.478 27.066C15.549 27.0723 15.6199 27.0532 15.6781 27.012C15.6995 26.995 15.7166 26.9732 15.728 26.9483C15.7395 26.9235 15.745 26.8963 15.744 26.869C15.7459 26.8278 15.7335 26.7872 15.709 26.754C15.68 26.7208 15.6411 26.6976 15.5981 26.6879C15.5621 26.6779 15.528 26.6689 15.498 26.6619L15.3851 26.634C15.3474 26.6247 15.3108 26.6112 15.276 26.594C15.2442 26.5777 15.2155 26.5561 15.1911 26.53C15.1663 26.5037 15.1469 26.4728 15.134 26.439C15.12 26.3999 15.1132 26.3585 15.114 26.317C15.1135 26.2711 15.1232 26.2257 15.1426 26.1842C15.162 26.1426 15.1905 26.106 15.226 26.077C15.3053 26.0093 15.4069 25.9737 15.511 25.977C15.5739 25.9768 15.6366 25.9835 15.698 25.997C15.7544 26.0094 15.8091 26.0282 15.8611 26.0531V26.241H15.849C15.8063 26.2033 15.7577 26.1728 15.705 26.151C15.647 26.1257 15.5844 26.1128 15.5211 26.113C15.4584 26.1101 15.3965 26.128 15.345 26.164C15.3238 26.1792 15.3066 26.1994 15.2949 26.2227C15.2832 26.2461 15.2774 26.2719 15.278 26.2981C15.2757 26.3417 15.29 26.3846 15.3181 26.418C15.3492 26.4505 15.3892 26.473 15.433 26.483L15.5551 26.514C15.6031 26.525 15.6431 26.536 15.6741 26.545C15.7438 26.5624 15.8062 26.6017 15.8521 26.6571C15.8906 26.7109 15.9103 26.7758 15.9081 26.842C15.9079 26.8887 15.8984 26.935 15.8801 26.978C15.8623 27.0213 15.8353 27.0602 15.8011 27.092C15.7632 27.126 15.7195 27.1527 15.672 27.171C15.6136 27.1933 15.5516 27.2046 15.489 27.2041Z" fill="#EDEDC3"/>
    <path d="M16.807 26.356C16.8074 26.4056 16.7982 26.4549 16.78 26.501C16.763 26.5449 16.7371 26.5848 16.704 26.6181C16.6634 26.6583 16.6146 26.6893 16.561 26.709C16.494 26.7315 16.4236 26.742 16.353 26.74H16.22V27.179H16.063V26.001H16.363C16.4228 26 16.4825 26.0056 16.541 26.018C16.5874 26.0284 16.6315 26.0474 16.671 26.074C16.7129 26.1035 16.7472 26.1426 16.771 26.188C16.7968 26.2402 16.8092 26.2979 16.807 26.356V26.356ZM16.644 26.356C16.6448 26.3196 16.6376 26.2834 16.623 26.2501C16.609 26.2199 16.5869 26.1942 16.559 26.1761C16.5325 26.159 16.5029 26.1471 16.472 26.141C16.4314 26.1336 16.3902 26.1303 16.349 26.131H16.219V26.602H16.326C16.3777 26.6034 16.4295 26.5985 16.48 26.5871C16.5178 26.5785 16.5525 26.5594 16.58 26.532C16.6023 26.5099 16.6197 26.4833 16.631 26.454C16.6404 26.4246 16.6447 26.3939 16.644 26.3631V26.356Z" fill="#EDEDC3"/>
    <path d="M16.792 27.1821L17.192 26.0041H17.385L17.785 27.1821H17.62L17.513 26.8531H17.063L16.956 27.1821H16.792ZM17.464 26.719L17.282 26.164L17.101 26.719H17.464Z" fill="#EDEDC3"/>
    <path d="M18.8031 27.182H18.6031L18.2301 26.714H18.0491V27.182H17.8921V26.004H18.1921C18.249 26.0033 18.3058 26.007 18.3621 26.015C18.4086 26.023 18.4529 26.0407 18.4921 26.067C18.5331 26.0917 18.5674 26.126 18.5921 26.167C18.6175 26.2146 18.6299 26.2681 18.6281 26.322C18.6309 26.3997 18.6076 26.476 18.5621 26.539C18.5163 26.5985 18.4541 26.6434 18.3831 26.668L18.8031 27.182ZM18.4641 26.336C18.4647 26.3047 18.4585 26.2737 18.4461 26.245C18.434 26.2185 18.4145 26.1959 18.3901 26.1799C18.3663 26.1647 18.3398 26.1542 18.3121 26.1489C18.2758 26.1423 18.239 26.1394 18.2021 26.14H18.0491V26.585H18.1871C18.2277 26.5854 18.2683 26.5814 18.3081 26.573C18.3428 26.5658 18.3747 26.5487 18.4001 26.5239C18.4228 26.5019 18.4399 26.4749 18.4501 26.445C18.4613 26.4097 18.4663 26.3729 18.4651 26.336H18.4641Z" fill="#EDEDC3"/>
    <path d="M19.7552 27.1821H19.5552L19.1252 26.6341L19.0562 26.7121V27.183H18.8992V26.0051H19.0562V26.547L19.5392 26.0051H19.7302L19.2432 26.5311L19.7552 27.1821Z" fill="#EDEDC3"/>
    <path d="M20.5321 27.1821H19.8491V26.0041H20.0061V27.043H20.5321V27.1821Z" fill="#EDEDC3"/>
    <path d="M21.0661 27.1821H20.6091V27.0621H20.7591V26.1241H20.6091V26.0041H21.0661V26.1241H20.9161V27.0621H21.0661V27.1821Z" fill="#EDEDC3"/>
    <path d="M22.103 27.1821H21.927L21.406 26.1661V27.1821H21.26V26.0041H21.482L21.956 26.9371V26.0041H22.102L22.103 27.1821Z" fill="#EDEDC3"/>
    <path d="M22.8341 27.2051C22.7561 27.2061 22.6785 27.1931 22.605 27.167C22.5376 27.143 22.4767 27.1036 22.427 27.052C22.3754 26.9964 22.3366 26.9302 22.3131 26.8581C22.2852 26.7722 22.2716 26.6823 22.273 26.5921C22.2717 26.5054 22.2853 26.4192 22.3131 26.3371C22.3373 26.2655 22.3761 26.1998 22.427 26.1441C22.4763 26.0916 22.5368 26.0509 22.604 26.025C22.6773 25.9964 22.7554 25.9822 22.8341 25.9831C22.8722 25.9831 22.9103 25.9861 22.948 25.9921C22.9818 25.998 23.0153 26.0059 23.048 26.016C23.078 26.0254 23.1074 26.0365 23.1361 26.0491L23.215 26.0851V26.2741H23.202C23.182 26.2571 23.1621 26.2401 23.1411 26.2251C23.1134 26.2057 23.0839 26.1889 23.053 26.1751C23.0182 26.1579 22.9817 26.1444 22.944 26.135C22.9006 26.1241 22.8559 26.1187 22.811 26.119C22.7584 26.1175 22.7061 26.1283 22.6584 26.1505C22.6106 26.1728 22.5687 26.2058 22.536 26.2471C22.4639 26.3456 22.4285 26.4662 22.436 26.588C22.435 26.658 22.4444 26.7279 22.4641 26.7951C22.4804 26.8499 22.5076 26.901 22.544 26.9451C22.5769 26.9851 22.6187 27.017 22.6661 27.0381C22.7168 27.0601 22.7717 27.071 22.827 27.0701C22.8712 27.0703 22.9153 27.0672 22.9591 27.0611C22.9971 27.0561 23.0344 27.0464 23.07 27.0321V26.7321H22.798V26.5951H23.225V27.109L23.1451 27.1431C23.1144 27.1556 23.083 27.1663 23.051 27.1751C23.0182 27.1855 22.9848 27.1942 22.9511 27.2011C22.9123 27.2061 22.8731 27.2074 22.8341 27.2051V27.2051Z" fill="#EDEDC3"/>
</svg>
