<svg xmlns="http://www.w3.org/2000/svg" width="90" height="90" viewBox="0 0 90 90"><defs><style>.a{fill:#e74c3c;}.b{fill:#fff;}</style></defs><g transform="translate(-217 -209)"><rect class="a" width="90" height="90" rx="5" transform="translate(217 209)"/><path class="b" d="M111.226,29.755v8.238H98.538a.846.846,0,0,0-.846.846v3.184l-1.6,3.2a.845.845,0,0,0-.089.378V62.524a.845.845,0,0,0,.089.378l1.692,3.384a.846.846,0,0,0,.757.468h13.534a.846.846,0,0,0,.757-.468l.016-.032a3.377,3.377,0,0,0,4.4-.76,4.926,4.926,0,0,0,6.579,0,3.382,3.382,0,0,0,6.015-2.124c0-.018,0-.035,0-.053l-.84-13.448.834-5.835a.841.841,0,0,0,.008-.119h0V29.755a4.208,4.208,0,0,0-.765-2.426l-4.378-6.254h.067a.846.846,0,0,0,.846-.846V18.538A2.541,2.541,0,0,0,123.069,16h-5.075a2.541,2.541,0,0,0-2.538,2.538v1.692a.846.846,0,0,0,.846.846h.067l-4.378,6.254a4.208,4.208,0,0,0-.765,2.426ZM97.692,61.678V46.452h6.861a19.091,19.091,0,0,1,1.6,6.767,15.436,15.436,0,0,1-2.545,8.459Zm8.671-15.226h1.573a19.091,19.091,0,0,1,1.6,6.767,15.436,15.436,0,0,1-2.545,8.459h-1.447a16.23,16.23,0,0,0,2.3-8.459A19.361,19.361,0,0,0,106.363,46.452Zm5.186,18.61H99.06l-.846-1.692H112.4Zm14.9,0a1.694,1.694,0,0,1-1.692-1.692.846.846,0,1,0-1.692,0c0,.917-1.162,1.692-2.538,1.692s-2.538-.775-2.538-1.692a.846.846,0,1,0-1.692,0,1.691,1.691,0,0,1-2.7,1.361l.914-1.829a.845.845,0,0,0,.089-.378V45.606a.845.845,0,0,0-.089-.378l-.234-.467h13.728l-.708,4.956a.833.833,0,0,0-.007.172l.844,13.505A1.694,1.694,0,0,1,126.452,65.062Zm-9.3-46.524a.847.847,0,0,1,.846-.846h5.075a.847.847,0,0,1,.846.846v.846h-6.767Zm-4.229,11.217a2.525,2.525,0,0,1,.459-1.455l5.057-7.224h4.195l5.057,7.224a2.525,2.525,0,0,1,.459,1.455v1.471H112.918Zm0,9.084V32.918h15.226V43.069h-14.7l-.523-1.046Zm0,22.839h-3.991a16.23,16.23,0,0,0,2.3-8.459,19.361,19.361,0,0,0-1.479-6.767h3.171Zm-14.7-16.918.846-1.692H107a.846.846,0,1,0,0-1.692H99.384V39.685h11.843v1.692h-.846a.846.846,0,0,0,0,1.692h1.169l.846,1.692Z" transform="translate(149 213)"/></g></svg>