<svg xmlns="http://www.w3.org/2000/svg" width="90" height="90" viewBox="0 0 90 90"><defs><style>.a{fill:#2ecc71;}.b{fill:#fff;}</style></defs><g transform="translate(-217 -209)"><rect class="a" width="90" height="90" rx="5" transform="translate(217 209)"/><path class="b" d="M42.52,34.686l-.5-.115c4.88-4,5.92-12.876,1.324-17.5a10.825,10.825,0,0,1-2.825-7.532c0-4.258-2.8-7.723-6.245-7.723s-6.245,3.465-6.245,7.723a12.163,12.163,0,0,1-.332,2.829,8.868,8.868,0,0,0-11.709-1.76V1.919a.682.682,0,1,0-1.363,0V4.6C12.583.923,8.878-.06,4.728.776a.683.683,0,0,0-.5.927A15.987,15.987,0,0,0,6.962,5.948c2.1,2.294,4.707,3.433,7.658,2.616v2.041c-4-2.783-10.71-1.784-13.465,4.561a.682.682,0,0,0,1.251.542C4.927,9.9,10.955,9.434,14.152,11.953a1.786,1.786,0,0,0,2.3,0c3.64-2.867,9.936-1.619,12.094,4.654a12.587,12.587,0,0,1-1.086,10.566c-.8,1.433-1.459,2.624-2,3.616-4.223-.91-4.826-1.242-6.263-1.211a.682.682,0,1,0,.028,1.363,5.816,5.816,0,0,1,.824.044l-.409,3.673a.682.682,0,0,0,1.355.151l.4-3.55L28,32.766,27.8,34.518a.682.682,0,1,0,1.355.151l.178-1.6,10.22,2.335-.527,4.727a.682.682,0,0,0,1.355.151l.51-4.573,1.323.3a3.289,3.289,0,0,1-.725,6.5l-6.979.013L34.76,40.3A.682.682,0,0,0,33.4,40.15l-.265,2.377-6.689.013.233-2.09a.682.682,0,0,0-1.355-.151c-.058.521-.244,2.188-.25,2.244l-3.2.006.405-3.638a.682.682,0,0,0-1.355-.151L20.5,42.551h-.024l-1.129,0A5.806,5.806,0,0,1,16.867,31.5a.682.682,0,0,0-.585-1.232,7.152,7.152,0,0,0-3.115,2.842,8.485,8.485,0,0,1-3.8-3.365A2.25,2.25,0,0,0,5.13,30.785L2.993,26.9A12.55,12.55,0,0,1,1.63,18.172.682.682,0,1,0,.294,17.9a13.916,13.916,0,0,0,1.5,9.663l2.913,5.294-2.135-.238a2.249,2.249,0,0,0-.5,4.47l3.534.393c-.876.785-1.582,1.5-1.493,2.617A2.252,2.252,0,0,0,8.07,41.382a8.493,8.493,0,0,1,4.448-2.449,7.18,7.18,0,0,0,6.831,4.984l22.143-.043a4.652,4.652,0,0,0,1.027-9.188ZM5.866,1.965c4.534-.619,7.393,1.542,8.348,5.3-3.694.994-6.6-1.926-8.348-5.3Zm34.372,32.2L26.844,31.1c.387-.709.816-1.492,1.295-2.353a7.286,7.286,0,0,0,13.451-2.208.682.682,0,0,0-1.337-.267A5.923,5.923,0,0,1,28.945,27.3,14.087,14.087,0,0,0,30.6,20.6a5.929,5.929,0,0,1,9.631,3.242.682.682,0,1,0,1.333-.289,7.284,7.284,0,0,0-11.072-4.569,13.419,13.419,0,0,0-1.774-5.216,13.481,13.481,0,0,0,.669-4.236c0-3.146,1.96-6.359,4.881-6.359,2.89,0,4.881,3.17,4.881,6.359a12.047,12.047,0,0,0,3.222,8.494c3.551,3.571,3.207,10.2.123,14.106a8.486,8.486,0,0,1-2.258,2.027Zm-28.01,3.426A9.9,9.9,0,0,0,7.033,40.5a.885.885,0,1,1-1.345-1.15,9.431,9.431,0,0,1,2.062-1.784.682.682,0,0,0-.295-1.25L2.228,35.73a.885.885,0,1,1,.2-1.759h0l.016,0h0l.016,0H2.45l4.723.527c.217-.014.878.267,1.166-.326a.682.682,0,0,0-.126-.776A9.436,9.436,0,0,1,6.595,31.2a.887.887,0,0,1,.369-1.2h0a.884.884,0,0,1,1.2.37,9.872,9.872,0,0,0,4.433,3.958,7.251,7.251,0,0,0-.365,3.254Zm0,0" transform="translate(240.854 230.942)"/></g></svg>