<svg width="33" height="29" viewBox="0 0 33 29" fill="none" xmlns="http://www.w3.org/2000/svg">
<g clip-path="url(#clip0)">
<path d="M15.7799 0.605992C20.6179 -0.804008 26.3799 0.182995 29.6029 4.24C31.0947 5.84683 31.9 10 31.9 10C32 14.5 31.5 16 30.5 18C29.5772 19.1782 28.886 20.3697 27.6329 21.188C25.9957 22.1099 24.129 22.5443 22.2529 22.44C20.1353 22.4661 18.0193 22.3115 15.9279 21.978C14.1617 21.7673 12.4524 21.2194 10.8929 20.364C7.80792 18.509 5.07491 13.324 6.21691 9.54799C6.95152 7.3854 8.20877 5.43768 9.87703 3.87775C11.5453 2.31783 13.5729 1.19397 15.7799 0.605992Z" fill="#88AE1A"/>
<path d="M5.4971 11.811C5.7971 11.282 6.1491 10.805 6.4121 10.254C6.6971 9.65399 7.0121 9.067 7.3541 8.501C8.02061 7.40776 8.86371 6.43255 9.84911 5.615C11.728 3.95679 13.9403 2.72036 16.3371 1.98899C17.5887 1.6318 18.8882 1.47156 20.1891 1.514C21.5265 1.59645 22.8425 1.88868 24.0891 2.37999C26.2801 3.16599 30.5 6 30.5 6C29.5 4 28 3 28 3C28 3 26.9171 1.582 24.5381 0.74C22 5.36442e-06 19.2123 -0.300296 16.5 0.400002C14.076 1.02586 11.9661 1.95655 9.75 4C8.3 5.3863 7.51031 6.69637 6.85 8C6.28561 9.11427 6.17948 9.27385 6 10C5.92291 10.328 4.88094 10.1458 4.83811 10.48C4.78111 10.862 4.79711 11.227 4.75811 11.611C4.71711 12.011 5.3171 12.138 5.5011 11.811H5.4971Z" fill="#458750"/>
<path d="M5.05 13.831C5.587 13.686 4.889 13.52 5.364 13.249C6.0216 12.8688 6.64939 12.4392 7.24199 11.964C8.14199 11.215 9.19799 9.979 10.109 9.245C11.7537 8.05696 13.5491 7.09285 15.448 6.37799C17.5171 5.4433 19.8357 5.21355 22.048 5.724C30.621 8.158 31.85 10 31.85 10L31.35 8C31.35 8 30.211 7.19699 29.311 6.54099C28.5656 5.9854 27.7813 5.48411 26.964 5.04099C25.7029 4.26672 24.3149 3.72135 22.864 3.43C20.5012 3.04733 18.0827 3.1987 15.786 3.87299C13.6607 4.70034 11.7008 5.90165 9.99899 7.42C8.97999 8.277 7.99899 9.16999 7.04399 10.098C6.50965 10.5648 6.02538 11.0859 5.599 11.653C5.18335 12.1792 4.84958 12.7651 4.60899 13.391C4.59321 13.4517 4.59357 13.5155 4.61003 13.5761C4.62649 13.6366 4.65849 13.6918 4.70285 13.7361C4.74721 13.7805 4.8024 13.8125 4.86294 13.829C4.92348 13.8454 4.98727 13.8458 5.04799 13.83L5.05 13.831Z" fill="#47654D"/>
<path d="M5.47106 14.86C5.99806 14.984 6.05105 14.553 6.55005 14.386C7.07305 14.21 7.91206 13.839 8.42806 13.644C9.47306 13.25 10.6701 12.564 11.6901 12.112C13.5962 11.3574 15.5922 10.8532 17.6281 10.612C19.5628 10.3182 21.5399 10.4976 23.39 11.135C25.259 11.722 27.69 12.142 29.584 12.658C30.9447 12.994 32 13 32 13V11.273C32 11.273 31.3105 11.1562 30.362 10.963C28.3954 10.4283 26.4593 9.78735 24.5621 9.043C22.5613 8.30845 20.4266 8.01012 18.3011 8.168C16.0001 8.44854 13.761 9.10529 11.6731 10.112C10.4874 10.6612 9.3363 11.282 8.22605 11.971C7.69605 12.295 7.18705 12.663 6.67305 13.012C6.09352 13.2979 5.59187 13.7199 5.21105 14.242C5.17956 14.298 5.16112 14.3604 5.15709 14.4245C5.15306 14.4886 5.16356 14.5528 5.18778 14.6123C5.212 14.6718 5.24932 14.725 5.29698 14.7681C5.34465 14.8112 5.40141 14.8429 5.46304 14.861L5.47106 14.86Z" fill="#1C652E"/>
<path d="M6.13796 15.551C6.84396 16.168 7.37096 15.78 8.27896 15.817C9.42181 16.005 10.5804 16.0797 11.738 16.04C13.6265 15.5726 15.5446 15.2339 17.479 15.026C21.491 14.815 25.972 15.348 29.979 15.274C31.3945 15.1249 30.3689 14.9443 31.75 14.6L31.9 13.5C31.0722 13.6783 30.6255 13.4777 29.779 13.499C27.8925 13.523 26.0072 13.3962 24.141 13.12C22.1548 12.8176 20.1499 12.6552 18.141 12.634C16.1587 12.7177 14.1927 13.0297 12.282 13.564C11.23 13.828 10.182 14.111 9.11696 14.331C8.11573 14.45 7.1338 14.6963 6.19496 15.064C6.15496 15.0879 6.1209 15.1205 6.09536 15.1595C6.06981 15.1985 6.05343 15.2427 6.04746 15.2889C6.04149 15.3352 6.04609 15.3821 6.0609 15.4263C6.07571 15.4705 6.10035 15.5107 6.13297 15.544L6.13796 15.551Z" fill="#1D5B27"/>
<path d="M6.99492 16.917C7.53425 17.4538 8.20163 17.8441 8.93391 18.051C9.81296 18.4108 10.7268 18.6789 11.6609 18.851C13.5183 19.2025 15.4046 19.3789 17.2949 19.378C20.8733 19.5892 24.463 19.2591 27.9429 18.399C28.9604 18.0957 29.9498 17.7049 30.8999 17.231C31.3708 16.9858 30.7992 17.3481 31.2 17L31.5 15.5L30.6749 15.621C28.1049 16.2414 25.4934 16.6759 22.8609 16.921C21.1359 17.056 19.4029 17.061 17.6739 17.042C15.8859 17.022 14.0959 16.98 12.3149 16.82C11.2969 16.729 10.2899 16.58 9.27592 16.467C8.57592 16.389 7.46792 16.193 6.99692 16.867C6.9919 16.8755 6.98926 16.8851 6.98926 16.895C6.98926 16.9048 6.9919 16.9145 6.99692 16.923L6.99492 16.917Z" fill="#47654D"/>
<path d="M9.39809 20.227C8.61409 19.876 7.45609 19.44 7.10509 18.594L7.1021 18.593C7.08745 18.5363 7.09161 18.4764 7.11397 18.4223C7.13634 18.3682 7.17569 18.3228 7.2261 18.293C7.7003 18.0995 8.2251 18.0679 8.71911 18.203C9.25711 18.281 9.9251 19.156 10.4571 19.281C11.5711 19.541 12.4641 19.489 13.5711 19.775C15.5054 20.2899 17.4932 20.5772 19.4941 20.631C20.4964 20.6298 21.4978 20.5744 22.4941 20.465C23.4304 20.397 24.3623 20.2791 25.2861 20.112C26.9999 19.7536 28.6258 19.0596 30.0701 18.07L31 17C31 18 30 19.2 30 19.2C28.4235 20.7765 27.5 21.5 25 22.2C23.949 22.357 22.9871 22.772 21.9281 22.862C20.8623 22.9806 19.7882 23.0057 18.7181 22.937C16.5579 22.6645 14.4369 22.1409 12.3981 21.377C11.3831 21.033 10.3791 20.666 9.39809 20.227Z" fill="#458750"/>
<path d="M6.11195 10.426C5.94741 10.4189 5.78607 10.4729 5.6589 10.5776C5.53173 10.6822 5.44771 10.8302 5.42296 10.993C5.39196 11.206 5.65095 11.435 5.82995 11.23C7.12395 9.74199 9.00395 8.91798 10.0989 7.22398C10.3492 6.77472 10.6483 6.35451 10.9909 5.97099C11.4247 5.57959 11.9086 5.24767 12.4299 4.98399C13.4257 4.41673 14.4807 3.96033 15.576 3.62299C16.7473 3.23473 17.958 2.9775 19.186 2.85599C20.3865 2.79324 21.5892 2.92839 22.746 3.256C23.8422 3.51564 24.9081 3.89003 25.9259 4.37299C26.8539 4.84599 27.578 5.61399 28.548 6.01399C29.1038 6.18098 29.6402 6.40693 30.1479 6.68799C30.5693 7.0451 30.9215 7.47661 31.1869 7.961C31.2882 7.98601 30.052 5.54069 30.1479 5.5C30.0956 5.59013 30.2439 5.45931 30.1479 5.5C29.6927 5.13557 30.1995 5.22471 29.6419 5.05398C29.1362 4.8919 28.6545 4.66252 28.2099 4.37199C27.7619 4.06099 27.348 3.705 26.873 3.433C25.7886 2.85791 24.6329 2.42885 23.436 2.157C22.2637 1.8329 21.0522 1.67238 19.8359 1.67999C18.5928 1.7439 17.362 1.95914 16.171 2.32098C14.9604 2.63587 13.7871 3.07941 12.671 3.644C11.6479 4.12962 10.7367 4.82221 9.99495 5.67799C9.63195 6.14399 9.37995 6.68399 9.02395 7.15399C8.64076 7.63172 8.20801 8.06749 7.73295 8.45399C6.83105 9.13868 6.05859 9.97886 5.45195 10.935L5.90495 11.058C5.89153 10.9534 5.90591 10.8471 5.94664 10.7499C5.98737 10.6526 6.053 10.5678 6.13694 10.504C6.14477 10.4993 6.15086 10.4922 6.15428 10.4837C6.15769 10.4752 6.15825 10.4659 6.15588 10.4571C6.15351 10.4482 6.14833 10.4405 6.14113 10.4348C6.13392 10.4292 6.12508 10.4261 6.11595 10.426H6.11195Z" fill="#97B723"/>
<path d="M4.64592 14.458C5.68377 13.9343 6.68328 13.3378 7.63693 12.673C8.50793 12.102 9.41192 11.565 10.2429 10.937C10.9993 10.2414 11.8177 9.6165 12.6879 9.07C13.6239 8.63951 14.6008 8.30449 15.6039 8.07C17.6455 7.51347 19.778 7.37268 21.8749 7.656C22.9476 7.80609 23.996 8.09657 24.9929 8.51999C25.9455 8.95197 26.9285 9.31361 27.9339 9.602C29.1339 9.92 30.3179 10.223 31.4879 10.629L31.95 11C31.95 11 31.9151 10.5843 31.88 10.318C31.8449 10.0517 31.77 9.63601 31.77 9.63601C30.6972 9.24267 30.0645 8.94381 28.9549 8.671C27.8577 8.40395 26.7844 8.04673 25.7459 7.60299C24.7462 7.15363 23.6964 6.82499 22.6189 6.624C20.4819 6.25772 18.2944 6.30661 16.1759 6.768C15.1348 6.98612 14.1201 7.315 13.1489 7.749C12.2188 8.22945 11.3796 8.86834 10.6689 9.637C8.79493 11.419 6.41593 12.552 4.52193 14.3C4.43193 14.383 4.54592 14.507 4.64592 14.46V14.458Z" fill="#97B723"/>
<path d="M5.33682 15.525C6.3009 15.3182 7.24768 15.0377 8.16882 14.686C8.98532 14.429 9.78835 14.1309 10.5748 13.793C10.9748 13.609 11.3468 13.378 11.7398 13.182C12.1895 12.9785 12.6671 12.8437 13.1568 12.782C14.1018 12.625 15.0498 12.482 16.0008 12.382C17.9673 12.1365 19.9531 12.0842 21.9298 12.226C23.8298 12.386 25.7298 12.655 27.6228 12.883C28.6838 13.01 29.7438 13.144 30.7928 13.347C31.8258 13.547 31.9 13.6 31.9 13.6L32 13C30.442 11.945 30.5208 12.25 28.6978 12.012C26.7348 11.756 24.7658 11.512 22.7978 11.303C20.7924 11.0811 18.7685 11.0845 16.7638 11.313C14.8462 11.3681 12.9636 11.84 11.2468 12.696C9.36582 13.855 7.13782 14.184 5.20482 15.218C5.02282 15.318 5.15582 15.563 5.33682 15.531V15.525Z" fill="#97B723"/>
<path d="M6.33803 16.237C7.23456 16.4588 8.15674 16.5597 9.08003 16.537C10.018 16.581 10.958 16.615 11.897 16.627C13.796 16.6654 15.6954 16.5742 17.582 16.354C18.4922 16.22 19.411 16.1532 20.331 16.154C21.267 16.176 22.199 16.288 23.131 16.34C24.9563 16.4913 26.7939 16.3812 28.588 16.013C29.588 15.775 30.486 15.697 31.5 15.5L31.7393 14.6085C31.7393 14.6085 31.253 14.672 29.462 14.895C28.538 15.01 27.626 15.195 26.698 15.281C25.7929 15.3589 24.8844 15.3899 23.976 15.374C22.1302 15.222 20.2755 15.211 18.428 15.341C16.542 15.597 14.671 15.829 12.767 15.904C11.667 15.947 10.567 15.959 9.46703 15.955C8.42279 15.8675 7.37183 15.9068 6.33704 16.072C6.31889 16.0776 6.30303 16.0889 6.29176 16.1042C6.2805 16.1195 6.27441 16.138 6.27441 16.157C6.27441 16.176 6.2805 16.1945 6.29176 16.2098C6.30303 16.2251 6.31889 16.2364 6.33704 16.242L6.33803 16.237Z" fill="#97B723"/>
<path d="M7.19787 18.186C8.11387 18.299 9.05086 18.343 9.95586 18.524C10.8269 18.698 11.6559 19.03 12.5049 19.286C14.222 19.8257 15.9866 20.2004 17.7749 20.405C19.5994 20.5671 21.4381 20.4443 23.2249 20.041C24.1317 19.8837 25.0464 19.7756 25.9649 19.717C26.76 19.6294 27.5363 19.4164 28.2649 19.086C29.1969 18.686 29.8373 18.179 30.7993 17.854C30.7892 17.8941 30.8276 17.8238 30.7993 17.854C30.8095 17.8139 31.2005 17.051 31.1899 17.011C31.2294 17.0232 31.1612 16.9811 31.1899 17.011C30.4009 17.268 29.6139 17.533 28.8479 17.854C28.0636 18.2456 27.2349 18.541 26.3799 18.734C25.5289 18.868 24.6609 18.826 23.8079 18.964C22.8779 19.114 21.9669 19.364 21.0289 19.471C20.1056 19.5648 19.1757 19.5732 18.2509 19.496C16.4109 19.3479 14.5902 19.0169 12.8159 18.508C11.9126 18.2071 10.9866 17.979 10.0469 17.826C9.08379 17.738 8.11279 17.8113 7.17386 18.043C7.08486 18.062 7.11685 18.179 7.19385 18.189L7.19787 18.186Z" fill="#97B723"/>
<path opacity="0.15" d="M18.3951 1.043V1.011C18.4492 0.666888 18.541 0.345794 18.6653 0.0474091C18.6653 0.0474091 24.5 0.26 27 1.88C29.5 3.5 31.5 8 31.5 8L32 12C31.4451 12.311 31.2542 12.3586 30.6381 12.534C29.4002 13.0025 28.0683 13.1691 26.7531 13.02C24.327 12.6847 22.0818 11.5507 20.3721 9.797C19.5586 8.97096 18.9233 7.98681 18.5053 6.90543C18.0873 5.82404 17.8957 4.66841 17.9421 3.50999C17.9458 2.66732 18.0992 1.83202 18.3951 1.043Z" fill="#C4C4C4"/>
<path d="M21.4008 3.69299C21.5494 3.77736 21.7071 3.84445 21.8708 3.89299C22.0298 3.95399 22.1818 4.01999 22.3358 4.09299C22.4834 4.17381 22.6564 4.19502 22.8191 4.15224C22.9819 4.10946 23.122 4.00594 23.2108 3.86299C23.2953 3.71631 23.3187 3.54228 23.2758 3.37853C23.2329 3.21477 23.1274 3.07448 22.9819 2.98799C22.592 2.78701 22.141 2.73955 21.7178 2.855C21.3788 2.961 20.9798 3.40199 21.4008 3.69299V3.69299Z" fill="white"/>
<path d="M25.6829 5.507C25.8889 5.907 26.354 6.172 26.672 6.481C27.0279 6.81142 27.3526 7.17395 27.642 7.56399C27.7038 7.65895 27.7846 7.74008 27.8793 7.80224C27.974 7.86441 28.0806 7.90627 28.1923 7.92518C28.304 7.9441 28.4184 7.93967 28.5283 7.91215C28.6382 7.88464 28.7412 7.83465 28.8309 7.76533C28.9205 7.69602 28.9948 7.60889 29.049 7.50943C29.1033 7.40997 29.1364 7.30034 29.1461 7.18747C29.1559 7.07459 29.1422 6.96093 29.1058 6.85362C29.0695 6.74631 29.0113 6.64769 28.935 6.56399C28.5557 6.06976 28.0766 5.6609 27.5289 5.364C27.0444 5.04288 26.4567 4.91613 25.8829 5.009C25.834 5.02363 25.789 5.04906 25.7512 5.08342C25.7135 5.11778 25.6839 5.1602 25.6647 5.20752C25.6455 5.25484 25.6371 5.30587 25.6403 5.35684C25.6435 5.40781 25.658 5.45741 25.6829 5.502V5.507Z" fill="white"/>
<path d="M2.71484 9.192C2.71484 9.192 5.39784 7.475 7.07384 9.955C8.74984 12.435 10.0788 15.555 12.0738 16.248C14.0688 16.941 20.6678 18.557 20.8298 22.207C20.9938 25.896 19.8488 28.667 13.5378 28.494C7.22684 28.321 4.05385 21.305 3.34785 19.672C3.34785 19.672 -0.152155 13.367 0.447845 11.617C0.646512 11.0829 0.949183 10.5936 1.33832 10.1773C1.72747 9.76105 2.19534 9.42614 2.71484 9.192Z" fill="#3F203E"/>
<path d="M20.8 24C20.8 24 20.056 27.96 12.84 25.82C7.082 24.112 2.273 14.402 2 10L8 11C8 11 9 14 10.9941 15.597C13.4999 17.5 22 17.5 20.8 24Z" fill="#50284B"/>
<path d="M19.5761 20.805C19.5761 20.805 20.4671 23.692 17.4301 23.895C14.3931 24.098 8.19907 20.737 6.86307 18.065C5.52707 15.393 3.06307 10.965 3.66307 10.008C4.26307 9.051 6.58207 9.351 7.83707 12.048C9.09207 14.745 10.2001 16.707 13.3431 17.261C16.4861 17.815 19.4551 19.903 19.5761 20.805Z" fill="#683564"/>
<path d="M2.99292 8.72999C2.99292 8.72999 5.73291 7.17499 7.95491 10.245C10.0809 13.181 8.80892 11.134 6.31392 10.563C5.51957 10.3065 4.7087 10.1044 3.88692 9.95799L2.99292 8.72999Z" fill="#518D23"/>
<path d="M3.09893 10.13C3.09893 10.13 2.03493 10.505 1.79193 12.994C1.54893 15.483 1.54893 15.228 0.880931 15.894C0.354931 16.416 0.580939 14.261 0.0609394 12.05C-0.459061 9.839 2.42894 9.05 2.42894 9.05L3.09893 10.13Z" fill="#518D23"/>
<path d="M3.91982 8.459C4.44387 8.65708 4.89118 9.01697 5.19686 9.48646C5.50254 9.95595 5.65069 10.5106 5.61982 11.07C5.43782 12.983 5.68082 13.918 5.98382 14.361C6.28682 14.804 4.10083 14.653 3.18983 13.377C2.27883 12.101 1.18982 10.277 1.70182 9.657L3.91982 8.459Z" fill="#518D23"/>
<path d="M19.272 21.203C19.272 21.203 18.989 21.871 18.078 21.385C17.167 20.899 16.803 19.806 16.135 19.766C15.467 19.726 14.495 19.093 14.698 18.792C14.901 18.491 15.998 18.106 17.836 19.422C19.674 20.738 19.272 21.203 19.272 21.203Z" fill="#874C85"/>
<path d="M14.3731 18.149C14.2378 17.9667 14.0603 17.82 13.8558 17.7216C13.6513 17.6232 13.4259 17.576 13.1991 17.584C12.4901 17.663 12.3491 18.372 12.9361 18.493C12.9361 18.49 14.1511 19.178 14.3731 18.149Z" fill="#874C85"/>
<path d="M3.933 8.72799C4.32188 8.59596 4.73611 8.55606 5.14305 8.61142C5.54999 8.66677 5.93852 8.81588 6.278 9.04699C7.743 9.82099 7.743 10.596 8.108 10.869C8.473 11.142 6.408 9.897 5.254 9.958C4.89785 9.96061 4.54607 9.87954 4.22699 9.7213C3.90791 9.56307 3.63046 9.33209 3.41699 9.04699L3.933 8.72799Z" fill="#7EB341"/>
<path d="M3.81485 9.132C3.81485 9.132 5.30584 9.578 5.17884 10.908C4.99369 11.7553 4.99369 12.6327 5.17884 13.48C5.38984 13.789 3.94184 13.438 3.30784 12.552C2.67384 11.666 1.91484 10.398 2.27384 9.965L3.81485 9.132Z" fill="#7EB341"/>
<path d="M2.51085 10.063C2.11807 10.4186 1.81173 10.8592 1.6152 11.3512C1.41867 11.8432 1.33714 12.3737 1.37684 12.902C1.29584 15.048 0.809842 14.702 0.809842 14.702C0.953795 13.923 0.862228 13.1187 0.546842 12.392C0.445976 12.1104 0.40227 11.8114 0.418256 11.5127C0.434242 11.214 0.509604 10.9215 0.639951 10.6522C0.770298 10.3829 0.953017 10.1424 1.17741 9.94453C1.40181 9.74669 1.66338 9.59557 1.94685 9.49999L2.51085 10.063Z" fill="#7EB341"/>
<path d="M4.60894 9.09799C4.60894 9.09799 5.07094 8.51799 3.96594 8.42899C3.51744 8.38769 3.06639 8.47379 2.66465 8.67741C2.26291 8.88102 1.9268 9.19387 1.69494 9.57999C1.34594 10.387 3.96594 10.039 4.60894 9.09799Z" fill="#5B6934"/>
<path d="M4.14885 8.91299C4.14885 8.91299 4.16784 8.41299 3.19484 8.32799C2.22184 8.24299 2.13185 6.36299 2.13185 6.36299C2.13185 6.36299 1.81485 5.93499 1.64585 6.36299C1.64303 6.97136 1.70403 7.57835 1.82785 8.17399C1.85885 8.76199 2.00585 8.87399 1.79985 9.37399C1.49285 10.118 3.68085 9.65699 4.14885 8.91299Z" fill="#7EB341"/>
<path d="M2.06606 6.406C2.06606 6.406 1.92007 6.217 1.80007 6.254C1.68007 6.291 1.68607 6.354 1.71607 6.406C1.74607 6.458 2.07106 6.528 2.06606 6.406Z" fill="#5B6934"/>
</g>
<defs>
<clipPath id="clip0">
<rect width="32.394" height="28.502" fill="white"/>
</clipPath>
</defs>
</svg>
