<svg xmlns="http://www.w3.org/2000/svg" xmlns:xlink="http://www.w3.org/1999/xlink" width="19.833" height="19.833" viewBox="0 0 19.833 19.833"><defs><style>.a{fill:url(#a);}.b{fill:url(#b);}.c{fill:url(#c);}.d{fill:url(#d);}.e{fill:url(#e);}.f{fill:url(#f);}.g{fill:url(#g);}.h{fill:url(#h);}</style><linearGradient id="a" y1="0.5" x2="1" y2="0.5" gradientUnits="objectBoundingBox"><stop offset="0" stop-color="#ff637b"/><stop offset="1" stop-color="#f90217"/></linearGradient><linearGradient id="b" x1="0.799" y1="1.737" x2="0.065" y2="-0.534" xlink:href="#a"/><linearGradient id="c" x1="0.043" y1="0.309" x2="1.019" y2="0.694" gradientUnits="objectBoundingBox"><stop offset="0" stop-color="#ffd833"/><stop offset="1" stop-color="#f2b631"/></linearGradient><linearGradient id="d" x1="1.345" y1="0.738" x2="-0.149" y2="0.244" xlink:href="#c"/><linearGradient id="e" x1="0.44" y1="0.241" x2="0.655" y2="0.79" gradientUnits="objectBoundingBox"><stop offset="0" stop-color="#28a265"/><stop offset="1" stop-color="#28895e"/></linearGradient><linearGradient id="f" x1="0.831" y1="1.379" x2="0.082" y2="-0.9" xlink:href="#e"/><linearGradient id="g" x1="0.427" y1="0.134" x2="0.893" y2="0.685" gradientUnits="objectBoundingBox"><stop offset="0" stop-color="#7faef4"/><stop offset="1" stop-color="#4c8df1"/></linearGradient><linearGradient id="h" x1="1.023" y1="1.005" x2="0.265" y2="-0.088" xlink:href="#g"/></defs><g transform="translate(0 0)"><path class="a" d="M74.972,5.529a6.227,6.227,0,0,1,8.579-.27.416.416,0,0,0,.561-.018L86.134,3.22a.41.41,0,0,0-.011-.591,9.9,9.9,0,0,0-13.75.3,11.251,11.251,0,0,0,.033,2.592S73.866,6.645,74.972,5.529Z" transform="translate(-69.483 0)"/><path class="b" d="M100.216,46.7a6.227,6.227,0,0,1,8.579-.27.416.416,0,0,0,.561-.018l1.16-1.16c-.1-.078-.2-.16-.3-.246a8.389,8.389,0,0,0-5.664-2.169,8.22,8.22,0,0,0-5.771,2.429,5.188,5.188,0,0,0-.224,1.429S98.748,46.679,100.216,46.7Z" transform="translate(-94.726 -41.171)"/><path class="c" d="M3.677,82.27a6.222,6.222,0,0,0,1.846,4.488l-.885,1.909-1.715.69A9.9,9.9,0,0,1,2.891,75.34l2.6,2.6A6.217,6.217,0,0,0,3.677,82.27Z" transform="translate(0 -72.41)"/><path class="d" d="M44.854,111.094a6.222,6.222,0,0,0,1.846,4.488L45.279,117a8.264,8.264,0,0,1-.045-11.674l1.433,1.433a6.217,6.217,0,0,0-1.813,4.331Z" transform="translate(-41.177 -101.234)"/><path class="e" d="M86.586,368.955a6.252,6.252,0,0,1-8.79-.006l-2.6,2.6a9.853,9.853,0,0,0,13.959-.026l-.743-1.589Z" transform="translate(-72.272 -354.601)"/><path class="f" d="M115.7,368.954a6.251,6.251,0,0,1-8.79-.005l-1.422,1.422a8.249,8.249,0,0,0,11.628,0Z" transform="translate(-101.388 -354.601)"/><path class="g" d="M265.285,220.063a.354.354,0,0,0-.354-.354H255.7a.317.317,0,0,0-.317.317v3.052a.317.317,0,0,0,.317.317h4.508a.6.6,0,0,1,.514.9,6.214,6.214,0,0,1-.952,1.214l0,0,2.569,2.569q.182-.182.368-.364A10.01,10.01,0,0,0,265.285,221Z" transform="translate(-245.452 -211.165)"/><path class="h" d="M263.2,266.728a1.693,1.693,0,0,0-1.6-2.228h-6.214v1.627a.317.317,0,0,0,.317.317h4.508a.6.6,0,0,1,.514.9,6.216,6.216,0,0,1-.949,1.21l-.007.008,1.416,1.416a8.255,8.255,0,0,0,1.783-2.63Q263.1,267.047,263.2,266.728Z" transform="translate(-245.453 -254.214)"/></g></svg>