<svg xmlns="http://www.w3.org/2000/svg" width="15.25" height="11.879" viewBox="0 0 15.25 11.879"><defs><style>.a{fill:#53487d;}</style></defs><path class="a" d="M12.936-.674a.36.36,0,0,0-.106-.265L7.845-5.023a.353.353,0,0,0-.212-.08.353.353,0,0,0-.212.08L2.436-.939a.36.36,0,0,0-.106.265V3.117a.634.634,0,0,0,.636.636H6.042a.317.317,0,0,0,.318-.318V.466A.307.307,0,0,1,6.453.241.307.307,0,0,1,6.679.148H8.588a.307.307,0,0,1,.225.093.307.307,0,0,1,.093.225v2.97a.317.317,0,0,0,.318.318H12.3a.634.634,0,0,0,.636-.636Zm2.227-1.617a.336.336,0,0,1,.093.212.33.33,0,0,1-.066.239l-.663.822a.252.252,0,0,1-.212.106.388.388,0,0,1-.239-.08L7.845-6.11a.353.353,0,0,0-.212-.08.353.353,0,0,0-.212.08L1.19-.992a.388.388,0,0,1-.239.08.252.252,0,0,1-.212-.106L.077-1.841A.33.33,0,0,1,.01-2.08.336.336,0,0,1,.1-2.292L6.838-7.833a1.2,1.2,0,0,1,.8-.292,1.3,1.3,0,0,1,.822.292l2.36,1.962V-7.807a.307.307,0,0,1,.093-.225.307.307,0,0,1,.225-.093h1.485a.307.307,0,0,1,.225.093.307.307,0,0,1,.093.225v3.686Z" transform="translate(-0.008 8.125)"/></svg>