<svg xmlns="http://www.w3.org/2000/svg" width="39.617" height="28.635" viewBox="0 0 39.617 28.635">
  <g id="KitchenWareIcon" transform="translate(-195.841 -238.915)">
    <path id="Path_173" data-name="Path 173" d="M42.345,135.664a5.387,5.387,0,0,0-2.451.126c-.754.229-1.511.431-1.679,1.306-.242,1.257,1.6,2.261,2.641,2.213.727-.033.727-1.166,0-1.132-.581.027-1.738-.383-1.269-1.167a1.058,1.058,0,0,1,.865-.457,8.329,8.329,0,0,1,1.606.205C42.771,136.874,43.065,135.78,42.345,135.664Z" transform="translate(169 109.961)" fill="#4b4343"/>
    <path id="Path_174" data-name="Path 174" d="M40.927,136.06c-.826.1-2.294.379-2.443,1.4-.164,1.127,1.342,1.346,2.108,1.537a.214.214,0,0,0,.109-.414c-.564-.141-1.871-.263-1.756-1.065.108-.751,1.354-.958,1.982-1.033C41.2,136.456,41.2,136.027,40.927,136.06Z" transform="translate(168.781 109.587)" fill="#6e6262"/>
    <path id="Path_175" data-name="Path 175" d="M74.035,126.363c.2,1.624,1.157,3.366.751,5.03-.752,3.1-4.007,5.077-7.131,6.289q-.317.121-.629.235c-.793.285-1.565.521-2.272.713-2.771.753-5.971,1.064-8.643-.207-3.491-1.659-3.845-5.168-4.871-8.554-.009-.031-.02-.063-.028-.094a2.829,2.829,0,0,1-.184-1.247c.2-1.288,4.411-2.245,5.519-2.675l6.986-2.7c.51-.2,8.579-3.3,8.574-3.316.345.932.707,1.876,1.03,2.836a18.718,18.718,0,0,1,.9,3.69Z" transform="translate(158.93 122.335)" fill="#50abd4"/>
    <path id="Path_176" data-name="Path 176" d="M119.5,119.836c0,.006-.851.338-2.02.79a28.344,28.344,0,0,1,1.85,6.321c.2,1.624,1.156,3.366.752,5.028-.886,3.646-5.231,5.738-8.756,6.859q.416-.1.821-.205c3.66-1,9.036-3.134,10.033-7.236.4-1.662-.554-3.4-.752-5.028A29.488,29.488,0,0,0,119.5,119.836Z" transform="translate(111.535 122.333)" fill="#61bae3"/>
    <path id="Path_177" data-name="Path 177" d="M61.7,165.559c-5.5-1.359-6.951-6.678-8.4-11.419a4.165,4.165,0,0,1-.194-.848c-1.071.429-1.981.943-2.072,1.525a2.829,2.829,0,0,0,.185,1.246c1.047,3.415,1.376,6.975,4.9,8.649a10.393,10.393,0,0,0,3.149.82C60.011,165.633,61.02,165.391,61.7,165.559Z" transform="translate(158.93 96.046)" fill="#4d8bcc"/>
    <path id="Path_178" data-name="Path 178" d="M73.137,122.67a5.431,5.431,0,0,1-1.05,2.45q-.3.387-.635.754c-3.259,3.56-8.97,5.527-13.6,5.667-2.063.064-4.906-.284-6.612-1.673-.009-.031-.02-.063-.028-.094a2.829,2.829,0,0,1-.184-1.247c.2-1.288,4.411-2.245,5.519-2.675l6.986-2.7c.51-.2,8.579-3.3,8.574-3.316C72.452,120.766,72.815,121.71,73.137,122.67Z" transform="translate(158.93 122.335)" fill="#3674b5"/>
    <path id="Path_179" data-name="Path 179" d="M66.367,113.605q.335-.366.635-.755a4.9,4.9,0,0,0,0-6.213c-1.752-1.933-5.151-2.068-7.553-1.777-4.782.58-14.749,3.357-14.765,9.612-.011,4.038,4.94,4.9,8.084,4.8C57.4,119.131,63.107,117.166,66.367,113.605Z" transform="translate(163.9 134.192)" fill="#4d8bcc"/>
    <path id="Path_180" data-name="Path 180" d="M70.345,113.092q.319-.349.6-.719a4.671,4.671,0,0,0,0-5.921c-1.67-1.842-4.91-1.971-7.2-1.693-4.558.553-14.058,3.2-14.073,9.162-.01,3.849,4.709,4.666,7.7,4.574C61.8,118.359,67.238,116.486,70.345,113.092Z" transform="translate(159.975 134.268)" fill="#50abd4"/>
    <path id="Path_181" data-name="Path 181" d="M85.568,117.015q.251-.274.475-.565a3.669,3.669,0,0,0,0-4.65c-1.312-1.447-3.856-1.548-5.654-1.33-3.579.434-11.039,2.513-11.051,7.195-.008,3.023,3.7,3.664,6.05,3.592C78.855,121.151,83.128,119.68,85.568,117.015Z" transform="translate(144.527 129.761)" fill="#61bae3"/>
    <path id="Path_182" data-name="Path 182" d="M86.264,123.576a3.6,3.6,0,0,0-2.493.658c-.626.376-1.048,1.011-.115,1.332a3.159,3.159,0,0,0,2.925-1c.2-.22.378-.565.191-.8a.712.712,0,0,0-.508-.19Z" transform="translate(133.705 119.412)" fill="#50abd4"/>
    <path id="Path_183" data-name="Path 183" d="M88.464,117.926q.052-.057.1-.117a.759.759,0,0,0,0-.962,1.41,1.41,0,0,0-1.169-.275c-.74.09-2.283.52-2.285,1.488,0,.488.468.678.874.67.575-.012.447-.347.7.475a2.274,2.274,0,0,0,1.382-.393l-.182-.532a1.621,1.621,0,0,0,.58-.354Z" transform="translate(132.136 124.912)" fill="#4b4343"/>
    <path id="Path_184" data-name="Path 184" d="M151.149,129.638a4.028,4.028,0,0,0,.184.788,5.592,5.592,0,0,1,.943-.317c.641-.174,1.6.1,1.232.955-.387.885-1.753,1.172-2.61,1.038a.474.474,0,0,0-.4.05.428.428,0,0,0-.1.268,1.091,1.091,0,0,0,.07.688.763.763,0,0,0,.7.325c1.419-.072,3.406-.923,3.434-2.565a1.783,1.783,0,0,0-1.1-1.7,3.362,3.362,0,0,0-2.349.232C151.151,129.476,151.146,129.557,151.149,129.638Z" transform="translate(80.855 115.118)" fill="#4b4343"/>
    <path id="Path_185" data-name="Path 185" d="M151.53,129.1a.427.427,0,0,0-.116.092c-.107.121-.093.356.062.4a3.326,3.326,0,0,1,1.711-.184c.5.1.993.4.841.975a1.873,1.873,0,0,1-.956.983,3.787,3.787,0,0,1-2.17.467c-.276-.02-.273.409,0,.429,1.249.09,3.456-.54,3.68-2.039a1.358,1.358,0,0,0-1.281-1.455,4.987,4.987,0,0,0-1.452.225A1.21,1.21,0,0,0,151.53,129.1Z" transform="translate(80.602 115.314)" fill="#6e6262"/>
    <path id="Path_186" data-name="Path 186" d="M92.24,117.41a2.481,2.481,0,0,0-1.515.469c-.437.338-.052.724.34.747a2.436,2.436,0,0,0,1.53-.471C92.982,117.829,92.749,117.429,92.24,117.41Z" transform="translate(127.876 124.24)" fill="#6e6262"/>
    <path id="Path_187" data-name="Path 187" d="M333.945,362.194c.321,1.161-2.409,3.544-3.383,4.019-2.628,1.283-6.157.8-8.919.2-4.237-.932-10.033-4.264-9.418-9.351a4.953,4.953,0,0,1,.923-2.376c.252-.163,1.272.041,1.629-.017a4.686,4.686,0,0,0,1.763-.676l.177.084L330.5,360.65c.6.288,3.232,1,3.429,1.489a.532.532,0,0,1,.02.055Z" transform="translate(-111.71 -99.473)" fill="#d46a50"/>
    <path id="Path_188" data-name="Path 188" d="M417.538,364.807a6.613,6.613,0,0,1-2.128-5.533c.078-.644.341-2.186,1.049-2.449,1.687-.628.387,1.886.161,2.34a3.509,3.509,0,0,0-.452,1.68A5.893,5.893,0,0,0,417.538,364.807Z" transform="translate(-214.895 -101.689)" fill="#d9985b"/>
    <path id="Path_189" data-name="Path 189" d="M320.433,395.09a6.488,6.488,0,0,0,2.444-2.042c.414-.735.167-2.092,1.073-2.4a4.435,4.435,0,0,1,2.72,1.16.534.534,0,0,1,.02.059c.321,1.161-2.409,3.544-3.383,4.019-2.628,1.283-6.157.8-8.919.2a16.085,16.085,0,0,1-2.208-.663C314.826,395.957,318.011,396.272,320.433,395.09Z" transform="translate(-104.455 -129.152)" fill="#c95342"/>
    <path id="Path_190" data-name="Path 190" d="M407.977,302.072a9.563,9.563,0,0,0-3.264-3.409,2.321,2.321,0,0,0-1.854-.389c-.749.233-1.2.893-.691,1.594a3.571,3.571,0,0,0,.735.673,14.591,14.591,0,0,1,4.256,5.156,13.562,13.562,0,0,0,1.374,2.768c.548.694,2.4,1.709,2.739.229a2.142,2.142,0,0,0-.147-1.121c-.582-1.783-1.771-3.176-2.7-4.769C408.278,302.56,408.13,302.315,407.977,302.072Z" transform="translate(-206.11 -54.293)" fill="#4b4343"/>
    <path id="Path_191" data-name="Path 191" d="M409.63,308.412a8.07,8.07,0,0,0-.517-1.4,13.967,13.967,0,0,0-5.481-6.058,5.658,5.658,0,0,1-1.2-.83c-.6-.611-.74-1.452.2-1.742.663-.206,1.17.31,1.854.389,1.192.137,2.291,1.661,3.264,3.409.14.251.3.488.445.733.934,1.592,2.123,2.985,2.7,4.769a2.142,2.142,0,0,1,.147,1.121c-.171.753-.735.859-1.32.691a2.736,2.736,0,0,0-.092-1.082Z" transform="translate(-205.874 -54.398)" fill="#6e6262"/>
    <path id="Path_192" data-name="Path 192" d="M305.4,345.874a4.259,4.259,0,0,0,.251.429.119.119,0,0,0,.011.019,9.336,9.336,0,0,0,4,3.085,29.5,29.5,0,0,0,10.365,2.616,14.835,14.835,0,0,0,5.421-.241l.046-.013a3.151,3.151,0,0,0,2.241-2.308,4.063,4.063,0,0,0-.906-3.362,9.649,9.649,0,0,0-2.81-2.219,28.121,28.121,0,0,0-13.1-3.93C307.567,339.851,303.3,341.833,305.4,345.874Z" transform="translate(-104.164 -88.101)" fill="#6e6262"/>
    <path id="Path_193" data-name="Path 193" d="M307.423,346.786a4.128,4.128,0,0,0,.242.414.1.1,0,0,0,.011.019,9.022,9.022,0,0,0,3.866,2.98,28.494,28.494,0,0,0,10.013,2.527,14.335,14.335,0,0,0,5.238-.233.352.352,0,0,0,.044-.013A3.044,3.044,0,0,0,329,350.25a3.925,3.925,0,0,0-.875-3.248,9.321,9.321,0,0,0-2.715-2.143,27.169,27.169,0,0,0-12.657-3.8C309.517,340.968,305.392,342.883,307.423,346.786Z" transform="translate(-105.816 -89.003)" fill="#4b4343"/>
    <path id="Path_194" data-name="Path 194" d="M317.935,360.7a9.021,9.021,0,0,0,3.866,2.98,28.5,28.5,0,0,0,10.013,2.527,14.19,14.19,0,0,0,5.282-.245,2.59,2.59,0,0,0,.074-.257,3.41,3.41,0,0,0-.76-2.826,8.145,8.145,0,0,0-2.363-1.868,23.653,23.653,0,0,0-11.016-3.3C320.831,357.644,318.163,358.644,317.935,360.7Z" transform="translate(-116.075 -102.485)" fill="#6e6262"/>
    <path id="Path_195" data-name="Path 195" d="M318.869,363.384a.1.1,0,0,0,.011.019,9.021,9.021,0,0,0,3.866,2.98,28.494,28.494,0,0,0,10.013,2.527,14.336,14.336,0,0,0,5.238-.233,3.553,3.553,0,0,0-.819-2.462,8.149,8.149,0,0,0-2.363-1.868,23.656,23.656,0,0,0-11.016-3.3C321.847,360.987,319.523,361.769,318.869,363.384Z" transform="translate(-117.02 -105.187)" fill="#877878"/>
    <path id="Path_196" data-name="Path 196" d="M434.46,301.721c.275.208,2.435,1.423,1.849.227a3.065,3.065,0,0,0-1.692-.984.464.464,0,0,0-.395.07.339.339,0,0,0-.044.386.887.887,0,0,0,.282.3Z" transform="translate(-237.336 -56.52)" fill="#4b4343"/>
    <path id="Path_197" data-name="Path 197" d="M-298.959,258.973c2.655,1.31,4.641-1.071,4.641-1.071Z" transform="translate(504.576 -6.84)" fill="#6ba431"/>
    <path id="Path_198" data-name="Path 198" d="M-313.448,242.369c-.228,2.126,2.462,1.951,2.462,1.951Z" transform="translate(515.736 5.114)" fill="#6ba431"/>
    <path id="Path_199" data-name="Path 199" d="M-227.749,252.986c.228,2.126-2.462,1.951-2.462,1.951Z" transform="translate(451.669 -3.057)" fill="#6ba431"/>
    <path id="Path_200" data-name="Path 200" d="M-230.846,249.965s.875.592-.533,1.954A4.7,4.7,0,0,0-230.846,249.965Z" transform="translate(452.568 -0.732)" fill="#517f1c"/>
    <path id="Path_201" data-name="Path 201" d="M-282.911,236.506a1.35,1.35,0,0,0,.272-1.014,1.35,1.35,0,0,0-.537-.9,1.349,1.349,0,0,0-1.039-.151,1.349,1.349,0,0,0-.832.64,1.151,1.151,0,0,0-.809-.456,1.151,1.151,0,0,0-.883.29c-.955,1.065.486,1.929.486,1.929a1.145,1.145,0,0,0-.148,1.1,1.145,1.145,0,0,0,.855.709.871.871,0,0,0,.96-.433,1.53,1.53,0,0,0,1.33.413,1.254,1.254,0,0,0,.977-.953,1.066,1.066,0,0,0-.632-1.172Zm-.63,1.291a1.024,1.024,0,0,1-.919-.154.583.583,0,0,1-.6.373.766.766,0,0,1-.631-.392.766.766,0,0,1,0-.743s-1.033-.443-.5-1.235a.77.77,0,0,1,.559-.271.77.77,0,0,1,.577.229.9.9,0,0,1,.5-.5.9.9,0,0,1,.7.009.9.9,0,0,1,.438.549.9.9,0,0,1-.09.7.713.713,0,0,1,.525.72.84.84,0,0,1-.558.723Z" transform="translate(495.423 11.252)" fill="#cf2832"/>
    <path id="Path_202" data-name="Path 202" d="M-260.661,249.442a2.248,2.248,0,0,0,1.748.078,2.248,2.248,0,0,0,1.274-1.2,2.248,2.248,0,0,0-.129-1.744,2.248,2.248,0,0,0-1.341-1.124,1.917,1.917,0,0,0,.45-1.48,1.917,1.917,0,0,0-.789-1.331c-2.076-1.17-2.963,1.484-2.963,1.484s-2.55-.861-2.688,1.8a1.451,1.451,0,0,0,1.05,1.407,2.549,2.549,0,0,0-.193,2.313,2.091,2.091,0,0,0,1.9,1.247,1.776,1.776,0,0,0,1.681-1.452Zm-2.328-.56a1.7,1.7,0,0,1-.081-1.55.971.971,0,0,1-.823-.838c-.148-1.777,1.62-1.436,1.62-1.436s.349-1.839,1.83-1.251a1.283,1.283,0,0,1,.643.811,1.283,1.283,0,0,1-.165,1.022,1.5,1.5,0,0,1,.991.623,1.5,1.5,0,0,1,.241,1.146,1.5,1.5,0,0,1-.735.91,1.5,1.5,0,0,1-1.165.105,1.188,1.188,0,0,1-.982,1.114A1.4,1.4,0,0,1-262.989,248.882Z" transform="translate(478.519 5.133)" fill="#cf2832"/>
    <path id="Path_203" data-name="Path 203" d="M-290.649,267.214a4.831,4.831,0,0,0-1.8-1.578,4.834,4.834,0,0,0-2.287-.7l-.416-.232-.307.55c-.3.546.548,1.6,1.906,2.361,1.312.732,2.612.915,2.973.433h.007l.338-.605Z" transform="translate(501.928 -12.073)" fill="#ff8908"/>
    <path id="Path_204" data-name="Path 204" d="M-289.207,266.378c-.3.546-1.653.375-3.01-.383s-2.211-1.815-1.906-2.361,1.653-.375,3.01.383S-288.9,265.832-289.207,266.378Z" transform="translate(500.902 -11.006)" fill="#ffb107"/>
    <path id="Path_205" data-name="Path 205" d="M-286.055,268.446a3.309,3.309,0,0,1-1.7-.372,3.308,3.308,0,0,1-1.206-1.247,3.306,3.306,0,0,1,1.695.372A3.309,3.309,0,0,1-286.055,268.446Z" transform="translate(496.878 -13.705)" fill="#ff8908"/>
    <path id="Path_206" data-name="Path 206" d="M-277.608,264.247a4.834,4.834,0,0,0-.8-2.254,4.833,4.833,0,0,0-1.655-1.727l-.25-.405-.537.331c-.533.329-.3,1.667.513,2.991.789,1.279,1.835,2.071,2.385,1.827v.007l.589-.364Z" transform="translate(490.86 -8.348)" fill="#ff8908"/>
    <path id="Path_207" data-name="Path 207" d="M-275.566,264.408c-.533.328-1.626-.478-2.442-1.8s-1.046-2.662-.513-2.99,1.626.478,2.442,1.8S-275.034,264.079-275.566,264.408Z" transform="translate(489.068 -8.103)" fill="#ffb107"/>
    <path id="Path_208" data-name="Path 208" d="M-272.532,266.975a3.307,3.307,0,0,1-1.3-1.151,3.306,3.306,0,0,1-.446-1.677,3.309,3.309,0,0,1,1.3,1.151,3.307,3.307,0,0,1,.446,1.677Z" transform="translate(485.58 -11.647)" fill="#ff8908"/>
    <path id="Path_209" data-name="Path 209" d="M-260.927,229.155a2.985,2.985,0,0,0-1.317.672,2.989,2.989,0,0,0-.925,1.154l-.228.186.246.3c.244.3,1.046.051,1.791-.556.72-.586,1.122-1.291.927-1.609h0l-.27-.332Z" transform="translate(477.208 15.426)" fill="#ff8908"/>
    <path id="Path_210" data-name="Path 210" d="M-260.936,228.545c.244.3-.162,1.035-.907,1.642s-1.547.856-1.791.556.162-1.035.907-1.641S-261.181,228.245-260.936,228.545Z" transform="translate(477.445 15.85)" fill="#ffb107"/>
    <path id="Path_211" data-name="Path 211" d="M-259.444,230.517a2.043,2.043,0,0,1-.6.888,2.045,2.045,0,0,1-.992.408,2.047,2.047,0,0,1,.6-.888A2.045,2.045,0,0,1-259.444,230.517Z" transform="translate(475.391 14.235)" fill="#ff8908"/>
  </g>
</svg>
