<svg xmlns="http://www.w3.org/2000/svg" width="90" height="90" viewBox="0 0 90 90"><defs><style>.a{fill:#7155d7;}.b{fill:#fff;}</style></defs><g transform="translate(-586 -305)"><rect class="a" width="90" height="90" rx="5" transform="translate(586 305)"/><g transform="translate(591.002 306.999)"><path class="b" d="M17.975,55.656a3.412,3.412,0,0,1-.308-1.423V53.219A82.388,82.388,0,0,1,21.73,27.648l18.243.019c-.766,2.4-1.429,4.862-1.974,7.32l1.627.361c.573-2.582,1.28-5.163,2.1-7.681H43.5a3.337,3.337,0,0,0,3.333-3.333v-2.5A.833.833,0,0,0,46,21H41.834a3.337,3.337,0,0,1,3.333-3.333h.151a3.341,3.341,0,0,1,3.216,2.456l1.226,4.5c.291,1.066.564,2.154.812,3.234l1.624-.373c-.253-1.1-.532-2.212-.829-3.3l-1.226-4.5A5.011,5.011,0,0,0,45.319,16H22.667a5.006,5.006,0,0,0-5,5v3.333a3.339,3.339,0,0,0,2.353,3.186A84.016,84.016,0,0,0,16,53.219v1.015a5.067,5.067,0,0,0,.458,2.113Zm27.193-32.99v1.667a1.667,1.667,0,1,1-3.333,0V22.667ZM19.333,24.334V21a3.337,3.337,0,0,1,3.333-3.333H41.444A4.98,4.98,0,0,0,40.168,21v3.333A3.314,3.314,0,0,0,40.615,26H21A1.669,1.669,0,0,1,19.333,24.334Z" transform="translate(-0.002)"/><path class="b" d="M129.524,218.4l-.379,1.623c5.061,1.183,6.857,2.756,6.857,3.743,0,.848-1.2,1.833-3.431,2.7-.389-1.24-1.955-2.264-4.671-3.052l-.465,1.6c2.315.672,3.438,1.482,3.555,2a50.274,50.274,0,0,1-14.156,1.754,50.271,50.271,0,0,1-14.157-1.754c.167-.786,2.543-2.123,7.6-2.821l-.228-1.651a24.47,24.47,0,0,0-6.24,1.571c-1.521.668-2.43,1.459-2.715,2.358-2.227-.87-3.431-1.855-3.431-2.7,0-.351.286-1.6,3.971-2.91a42.609,42.609,0,0,1,11.081-1.965l-.1-1.664a44.274,44.274,0,0,0-11.537,2.058c-4.2,1.494-5.079,3.261-5.079,4.481a14.1,14.1,0,0,0,.963,5.132l1.687,4.337,1.553-.6L98.516,228.3a12.529,12.529,0,0,1-.477-1.5,16.266,16.266,0,0,0,4.419,1.9,53.569,53.569,0,0,0,14.376,1.742A53.571,53.571,0,0,0,131.21,228.7a16.266,16.266,0,0,0,4.419-1.9,12.53,12.53,0,0,1-.477,1.5l-2.861,7.357a7.491,7.491,0,0,1-1.109,1.937l1.307,1.035a9.155,9.155,0,0,0,1.356-2.368l2.861-7.357a14.1,14.1,0,0,0,.963-5.132C137.668,220.759,132.566,219.116,129.524,218.4Z" transform="translate(-71.668 -180.27)"/><path class="b" d="M252.665,53.7a17.086,17.086,0,0,0-9.422,8.375l-2.4,4.8,1.491.745,2.4-4.8a15.414,15.414,0,0,1,7.881-7.315,3.3,3.3,0,0,0,.162.475,24.531,24.531,0,0,0-5.863,7.5l-2.453,4.766,1.482.763,2.454-4.768a22.857,22.857,0,0,1,5.408-6.951,3.325,3.325,0,0,0,.29.2,3.253,3.253,0,0,0,.344.178q-.5.937-1.044,1.95-1.363,2.545-2.809,5.276l-1.89,3.565,1.473.781,1.891-3.567q1.438-2.733,2.8-5.267c.431-.8.845-1.577,1.236-2.31a15.214,15.214,0,0,1-1.841,8.209l-1.17,2.146,1.463.8,1.17-2.146a16.88,16.88,0,0,0,1.99-9.788,3.233,3.233,0,0,0,.846-.921l6.633-10.854a3.263,3.263,0,0,0-5.568-3.4L252.99,52.99A3.286,3.286,0,0,0,252.665,53.7Zm1.747.16,6.633-10.854a1.6,1.6,0,1,1,2.724,1.665l-6.633,10.854a1.6,1.6,0,0,1-2.724-1.665Z" transform="translate(-201.425 -22.014)"/><path class="b" d="M57.485,387.533a3.127,3.127,0,0,0-2.384-.8l-.787.072a5.835,5.835,0,0,0-4.982-2.8H25.165a5.837,5.837,0,0,0-4.984,2.8l-.785-.071a3.117,3.117,0,1,0-.281,6.22c.093,0,.187,0,.28-.013l.785-.071a5.872,5.872,0,0,0,4.984,2.8H49.333a5.791,5.791,0,0,0,4.125-1.708,5.865,5.865,0,0,0,.861-1.092l.785.071c.094.008.189.013.284.013a3.117,3.117,0,0,0,2.1-5.417Zm-38.24,3.744a1.45,1.45,0,1,1-.136-2.894q.067,0,.136.006l5.017.456a.992.992,0,0,1,0,1.975h0Zm2.89,1.411,2.278-.207h0a2.659,2.659,0,0,0,0-5.3l-2.283-.207c.029-.031.058-.062.088-.091a4.17,4.17,0,1,1-.084,5.8Zm30.143.092A4.136,4.136,0,0,1,49.333,394H29.242a5.821,5.821,0,0,0,0-8.334H49.333a4.167,4.167,0,0,1,2.946,7.113Zm3.107-1.5c-.045,0-.09,0-.134-.006l-.259-.024a5.871,5.871,0,0,0,0-2.841l.261-.024a1.45,1.45,0,1,1,.134,2.894Z" transform="translate(0 -329.665)"/></g></g></svg>