<svg xmlns="http://www.w3.org/2000/svg" width="18.908" height="18.909" viewBox="0 0 18.908 18.909"><defs><style>.a{fill:#7155d7;}</style></defs><g transform="translate(0.993 1)"><g transform="translate(-0.993 -1)"><g transform="translate(0)"><path class="a" d="M6.845,184.825l-2.228,2.228a2.363,2.363,0,0,1-3.343-3.342l4.457-4.457a2.363,2.363,0,0,1,3.342,0,.788.788,0,1,0,1.114-1.114,3.939,3.939,0,0,0-5.57,0L.16,182.6a3.939,3.939,0,1,0,5.571,5.57l2.228-2.228a.788.788,0,1,0-1.114-1.114Z" transform="translate(0.993 -170.413)"/><path class="a" d="M200.639.153a3.94,3.94,0,0,0-5.571,0l-2.673,2.673a.788.788,0,0,0,1.114,1.114l2.673-2.673a2.363,2.363,0,1,1,3.343,3.342l-4.9,4.9a2.363,2.363,0,0,1-3.342,0,.788.788,0,0,0-1.114,1.114,3.939,3.939,0,0,0,5.57,0l4.9-4.9A3.939,3.939,0,0,0,200.639.153Z" transform="translate(-182.884 1)"/></g></g></g></svg>