<svg xmlns="http://www.w3.org/2000/svg" width="9.491" height="12.654" viewBox="0 0 9.491 12.654"><defs><style>.a{fill:#53487d;}</style></defs><path class="a" d="M4.251-.718a.567.567,0,0,0,.494.247A.567.567,0,0,0,5.24-.718L6.9-3.091q1.236-1.779,1.631-2.4a6.96,6.96,0,0,0,.766-1.5,4.5,4.5,0,0,0,.2-1.4,4.58,4.58,0,0,0-.643-2.373,4.836,4.836,0,0,0-1.73-1.73,4.58,4.58,0,0,0-2.373-.643,4.58,4.58,0,0,0-2.373.643,4.836,4.836,0,0,0-1.73,1.73A4.58,4.58,0,0,0,0-8.38a4.5,4.5,0,0,0,.2,1.4,6.96,6.96,0,0,0,.766,1.5q.4.618,1.631,2.4Q3.608-1.657,4.251-.718ZM4.745-6.4a1.9,1.9,0,0,1-1.4-.581,1.9,1.9,0,0,1-.581-1.4,1.9,1.9,0,0,1,.581-1.4,1.9,1.9,0,0,1,1.4-.581,1.9,1.9,0,0,1,1.4.581,1.9,1.9,0,0,1,.581,1.4,1.9,1.9,0,0,1-.581,1.4A1.9,1.9,0,0,1,4.745-6.4Z" transform="translate(0 13.125)"/></svg>