<svg xmlns="http://www.w3.org/2000/svg" width="13.173" height="20.495" viewBox="0 0 13.173 20.495"><defs><style>.a{fill:#7155d7;}</style></defs><g transform="translate(-91.454)"><g transform="translate(91.454)"><path class="a" d="M103.236,8.784h-.194V5a5,5,0,0,0-10,0V8.784h-.194a1.393,1.393,0,0,0-1.392,1.392V17.74a2.758,2.758,0,0,0,2.755,2.755h7.664a2.758,2.758,0,0,0,2.755-2.755V10.176A1.393,1.393,0,0,0,103.236,8.784ZM94.238,5h0a3.8,3.8,0,0,1,7.6,0V8.784h-.588V4.98a3.214,3.214,0,0,0-6.429,0v3.8h-.588Zm5.818-.022v3.8H96.025V4.98a2.015,2.015,0,1,1,4.031,0Zm3.372,12.761a1.557,1.557,0,0,1-1.556,1.556H94.209a1.557,1.557,0,0,1-1.555-1.556V10.176a.193.193,0,0,1,.192-.193h10.39a.193.193,0,0,1,.192.193V17.74Z" transform="translate(-91.454)"/></g><g transform="translate(96.317 12.093)"><path class="a" d="M214.67,302.113a1.723,1.723,0,0,0-.6,3.339v1a.6.6,0,0,0,1.2,0v-1a1.723,1.723,0,0,0-.6-3.339Zm0,2.248a.524.524,0,1,1,.524-.524A.525.525,0,0,1,214.67,304.361Z" transform="translate(-212.947 -302.113)"/></g></g></svg>