<svg xmlns="http://www.w3.org/2000/svg" width="17.422" height="20" viewBox="0 0 17.422 20"><defs><style>.a{fill:#7155d7;}</style></defs><g transform="translate(-33)"><path class="a" d="M48.664,0H36.008A1.76,1.76,0,0,0,34.25,1.758V3.164h-.664a.586.586,0,1,0,0,1.172h.664V6.289h-.664a.586.586,0,1,0,0,1.172h.664V9.414h-.664a.586.586,0,1,0,0,1.172h.664v1.953h-.664a.586.586,0,1,0,0,1.172h.664v1.953h-.664a.586.586,0,1,0,0,1.172h.664v1.406A1.76,1.76,0,0,0,36.008,20H48.664a1.76,1.76,0,0,0,1.758-1.758V1.758A1.76,1.76,0,0,0,48.664,0ZM35.422,18.242V16.836h.664a.586.586,0,0,0,0-1.172h-.664V13.711h.664a.586.586,0,1,0,0-1.172h-.664V10.586h.664a.586.586,0,0,0,0-1.172h-.664V7.461h.664a.586.586,0,0,0,0-1.172h-.664V4.336h.664a.586.586,0,0,0,0-1.172h-.664V1.758a.587.587,0,0,1,.586-.586H38V18.828H36.008A.587.587,0,0,1,35.422,18.242Zm13.828,0a.587.587,0,0,1-.586.586H39.172V1.172h9.492a.587.587,0,0,1,.586.586Z" transform="translate(0)"/><path class="a" d="M260.246,81h-3.683a.564.564,0,0,0-.564.564v2.405a.564.564,0,0,0,.564.564h3.683a.564.564,0,0,0,.564-.564V81.564A.564.564,0,0,0,260.246,81Zm-.564,2.405h-2.555V82.127h2.555Z" transform="translate(-214.156 -77.809)"/></g></svg>