<svg xmlns="http://www.w3.org/2000/svg" width="13" height="11.375" viewBox="0 0 13 11.375"><defs><style>.a{fill:#53487d;}</style></defs><path class="a" d="M8.125-4.062v.508a.294.294,0,0,1-.089.216.294.294,0,0,1-.216.089H5.18a.294.294,0,0,1-.216-.089.294.294,0,0,1-.089-.216v-.508H0V-.406A1.175,1.175,0,0,0,.355.457a1.175,1.175,0,0,0,.863.355H11.781a1.175,1.175,0,0,0,.863-.355A1.175,1.175,0,0,0,13-.406V-4.062ZM13-6.906a1.175,1.175,0,0,0-.355-.863,1.175,1.175,0,0,0-.863-.355H9.75V-9.344a1.175,1.175,0,0,0-.355-.863,1.175,1.175,0,0,0-.863-.355H4.469a1.175,1.175,0,0,0-.863.355,1.175,1.175,0,0,0-.355.863v1.219H1.219a1.175,1.175,0,0,0-.863.355A1.175,1.175,0,0,0,0-6.906v2.031H13ZM8.125-8.937v.813H4.875v-.812Z" transform="translate(0 10.563)"/></svg>