<svg xmlns="http://www.w3.org/2000/svg" width="28.497" height="18.988" viewBox="0 0 28.497 18.988"><defs><style>.a{fill:#a391e6;}.b{fill:#fff;}.c{fill:#7155d7;}.d{fill:#eaecf0;}.e{fill:#ed2790;}</style></defs><path class="a" d="M45.354,15.271,50.6,10.023l6.58,6.58L45.938,27.846l-6.209-6.209" transform="translate(-29.277 -9.432)"/><path class="b" d="M146.515,113.956h0v0a2.777,2.777,0,1,1-2.967,2.84" transform="translate(-127.33 -107.22)"/><path class="b" d="M189.483,33V28.32c2.668-.118,1.9-.589,6.541-2.677a4.394,4.394,0,0,1,3.418.058h0l2.752.985-2.839,2.839" transform="translate(-183.141 -23.828)"/><g transform="translate(10.452 0.591)"><path class="c" d="M42.882,85.859l-2.231-2.231a3.158,3.158,0,0,0,0,4.461Z" transform="translate(-25.43 -79.279)"/><path class="c" d="M196.725,259.223a3.158,3.158,0,0,0-4.461,0l2.231,2.231Z" transform="translate(-188.286 -243.631)"/><path class="c" d="M117.794,12.254l-2.231-2.231-2.231,2.231A3.158,3.158,0,0,0,117.794,12.254Z" transform="translate(-104.691 -10.023)"/><path class="c" d="M290.6,182.048a3.159,3.159,0,0,1-.734,3.31l-1.86-1.86" transform="translate(-288.007 -171.884)"/></g><g transform="translate(6.342 5.469)"><path class="b" d="M191.578,94.332l5.3-1.68a1.742,1.742,0,0,1,2.152,1.2h0a1.911,1.911,0,0,1-1.334,2.282l-4.706,1.6h0a4,4,0,0,1-3.4,1.64,4.282,4.282,0,0,1-3.408-2.289V94.948" transform="translate(-186.19 -92.585)"/></g><path d="M339.841,124.679a.583.583,0,0,0,.115-.012.6.6,0,0,0,.11-.034.584.584,0,0,0,.1-.054.575.575,0,0,0,.163-.163.587.587,0,0,0,.054-.1.556.556,0,0,0,.034-.11.568.568,0,0,0,0-.23.574.574,0,0,0-.034-.111.6.6,0,0,0-.054-.1.575.575,0,0,0-.163-.163.584.584,0,0,0-.1-.054.555.555,0,0,0-.11-.034.589.589,0,0,0-.342.034.6.6,0,0,0-.1.054.574.574,0,0,0-.163.163.557.557,0,0,0-.054.1.572.572,0,0,0-.034.111.6.6,0,0,0,0,.23.554.554,0,0,0,.034.11.543.543,0,0,0,.054.1.574.574,0,0,0,.163.163.6.6,0,0,0,.1.054.627.627,0,0,0,.11.034A.593.593,0,0,0,339.841,124.679Z" transform="translate(-330.225 -116.202)"/><rect class="d" width="2.238" height="6.348" transform="translate(4.104 3.693)"/><rect class="e" width="3.513" height="7.449" transform="translate(0.591 2.592)"/><path d="M30.282,2.024h3.513a.591.591,0,0,1,.591.591v.51h1.647a.591.591,0,0,1,.591.591v.17a4.189,4.189,0,0,0,2.158-.775A35.753,35.753,0,0,1,42.332,1.3l.026-.011a5.027,5.027,0,0,1,3.858.061l2.378.851,2-2a.591.591,0,0,1,.836,0l6.58,6.58a.586.586,0,0,1,0,.836L46.77,18.855a.638.638,0,0,1-.836,0l-6.007-6.007c-.156.013-.318.021-.486.021a4.725,4.725,0,0,1-3.69-2.213H30.282a.591.591,0,0,1-.591-.591V2.615A.591.591,0,0,1,30.282,2.024ZM49.517,7.5a2.616,2.616,0,0,1-1.77,2.091l-.016.006-1.181.4a2.186,2.186,0,1,0,2.968-2.5ZM48.335,5.2A2.316,2.316,0,0,1,49.3,6.214a3.368,3.368,0,1,1-3.872,4.169l-1.995.677a3.772,3.772,0,0,1-.626,2.995L44.154,15.4a3.755,3.755,0,0,1,4.4,0l6.012-6.012a3.755,3.755,0,0,1,0-4.4L53.213,3.648a3.755,3.755,0,0,1-4.4,0L47.54,4.926A2.332,2.332,0,0,1,48.335,5.2ZM41.954,13.2a2.584,2.584,0,0,0,.377-1.229,4.594,4.594,0,0,1-1.042.564ZM51.016,1.45,49.669,2.8a2.576,2.576,0,0,0,2.693,0Zm4.4,4.4a2.576,2.576,0,0,0,0,2.693L56.76,7.194ZM46.352,17.6,47.7,16.255a2.573,2.573,0,0,0-2.693,0Zm-6.911-5.915a4.3,4.3,0,0,0,.616-.043h0a3.384,3.384,0,0,0,2.189-1.2c.012-.018.063-.085.071-.1a.589.589,0,0,1,.326-.271l4.7-1.594a1.326,1.326,0,0,0,.964-1.564h0a1.151,1.151,0,0,0-1.414-.793L41.6,7.8a.591.591,0,1,1-.357-1.127l4.21-1.334.037-.037h0l2.18-2.18L45.8,2.454l-.02-.008-.006,0-.024-.01a3.829,3.829,0,0,0-2.942-.05,34.226,34.226,0,0,0-3.431,1.752,5.317,5.317,0,0,1-2.749.935V9.829A3.649,3.649,0,0,0,39.441,11.687Zm-4-7.38H34.385V9.474h1.057Zm-5.161,5.758h3.377V2.8H30.421Z" transform="translate(-29.691 -0.023)"/></svg>