<svg xmlns="http://www.w3.org/2000/svg" width="6.877" height="8.315" viewBox="0 0 6.877 8.315"><defs><style>.a{fill:#ed2790;}</style></defs><path class="a" d="M.25-8.652v-.829h.841V-11.2h2.36a3.132,3.132,0,0,1,1.713.441,2.385,2.385,0,0,1,.983,1.281h.98v.835H6.3a2.431,2.431,0,0,1,.017.29q0,.116-.009.226t-.02.22h.835v.829H6.054a2.765,2.765,0,0,1-.444.739,2.823,2.823,0,0,1-.629.557,2.852,2.852,0,0,1-.792.351,3.459,3.459,0,0,1-.931.122H2.465v2.424H1.091V-7.08H.25V-7.91h.841v-.742Zm4.627.342a3.214,3.214,0,0,0-.017-.342H2.465v.742H4.854Q4.86-8,4.869-8.1T4.877-8.31ZM3.23-6.448a1.661,1.661,0,0,0,.786-.165A1.2,1.2,0,0,0,4.5-7.08H2.465v.632Zm-.765-3.618v.586h2.07a1.111,1.111,0,0,0-.458-.432,1.644,1.644,0,0,0-.76-.154Z" transform="translate(-0.25 11.203)"/></svg>