<svg xmlns="http://www.w3.org/2000/svg" width="12.594" height="12.594" viewBox="0 0 12.594 12.594"><defs><style>.a{fill:#53487d;}</style></defs><path class="a" d="M12.8-4.875a6.083,6.083,0,0,0-.851-3.161,6.394,6.394,0,0,0-2.3-2.285A6.1,6.1,0,0,0,6.5-11.172a6.176,6.176,0,0,0-2.361.457A6.174,6.174,0,0,0,2.158-9.42l-1.27-1.27a.369.369,0,0,0-.432-.076.377.377,0,0,0-.254.381V-6.7a.4.4,0,0,0,.114.292A.4.4,0,0,0,.609-6.3H4.291a.377.377,0,0,0,.381-.254A.369.369,0,0,0,4.6-6.982L3.3-8.277a4.5,4.5,0,0,1,1.46-.939A4.639,4.639,0,0,1,6.5-9.547a4.621,4.621,0,0,1,2.349.622,4.558,4.558,0,0,1,1.7,1.7,4.621,4.621,0,0,1,.622,2.349,4.621,4.621,0,0,1-.622,2.349,4.558,4.558,0,0,1-1.7,1.7A4.621,4.621,0,0,1,6.5-.2,4.507,4.507,0,0,1,3.605-1.219a.641.641,0,0,0-.419-.114.578.578,0,0,0-.394.165l-.279.279a.6.6,0,0,0-.19.47.607.607,0,0,0,.216.444A6.62,6.62,0,0,0,4.393,1.054,6.137,6.137,0,0,0,6.5,1.422,6.1,6.1,0,0,0,9.648.571a6.363,6.363,0,0,0,2.3-2.3A6.1,6.1,0,0,0,12.8-4.875ZM8.2-2.895a.6.6,0,0,1-.406.241.588.588,0,0,1-.457-.114L5.688-4.062V-7.516a.588.588,0,0,1,.178-.432A.588.588,0,0,1,6.3-8.125H6.7a.588.588,0,0,1,.432.178.588.588,0,0,1,.178.432v2.641l1.041.813a.556.556,0,0,1,.229.406.632.632,0,0,1-.127.457Z" transform="translate(-0.203 11.172)"/></svg>