<svg xmlns="http://www.w3.org/2000/svg" width="28.8" height="20.198" viewBox="0 0 28.8 20.198"><defs><style>.a{fill:#7155d7;}.b{fill:#63312d;}.c{fill:#a391e6;}.d{fill:#eccaff;}.e{fill:#f8f3f3;}.f{fill:#fff;}.g{fill:#ed2790;}</style></defs><g transform="translate(0 -0.348)"><path class="a" d="M169.574,4.359h14.275V19.083H169.574Zm0,0" transform="translate(-159.11 -3.764)"/><path class="b" d="M180.1,15.578H165.821a.247.247,0,0,1-.247-.247V.607a.247.247,0,0,1,.247-.247H180.1a.247.247,0,0,1,.247.247V15.331A.247.247,0,0,1,180.1,15.578Zm-14.028-.494h13.781V.854H166.068Zm0,0" transform="translate(-155.357 -0.012)"/><path class="c" d="M122.9,4.359h14.275V19.083H122.9Zm0,0" transform="translate(-115.318 -3.764)"/><path class="d" d="M123.889,5.347h13.288V4.359H122.9V19.084h.987Zm0,0" transform="translate(-115.318 -3.764)"/><path class="b" d="M133.424,15.578H119.15a.247.247,0,0,1-.247-.247V.607A.247.247,0,0,1,119.15.36h14.275a.247.247,0,0,1,.247.247V15.331a.247.247,0,0,1-.247.247ZM119.4,15.084h13.781V.854H119.4Zm0,0" transform="translate(-111.566 -0.012)"/><path class="e" d="M212.187,9.078l-.62.478-.62-.478-.62.478-.618-.478-.619.478-.618-.478V4.359h3.714Zm0,0" transform="translate(-195.608 -3.764)"/><path class="b" d="M206.574,6.039a.249.249,0,0,1-.151-.051l-.466-.361-.468.361a.247.247,0,0,1-.3,0l-.618-.478a.247.247,0,0,1-.1-.2V.594a.247.247,0,0,1,.247-.247h3.714a.247.247,0,0,1,.247.247V5.313a.248.248,0,0,1-.1.2l-.62.478a.246.246,0,0,1-.3,0l-.47-.362-.468.361A.247.247,0,0,1,206.574,6.039Zm.619-.972a.248.248,0,0,1,.151.051l.47.362.373-.288V.842h-3.22V5.193l.371.287.468-.362a.248.248,0,0,1,.3,0l.467.362.468-.362a.248.248,0,0,1,.15-.051Zm0,0" transform="translate(-191.855)"/><path class="f" d="M91.872,156.2a1.482,1.482,0,0,0-2-.408l-6.455,4.036H81.389a1.721,1.721,0,0,0,0-3.443H75.706a4.981,4.981,0,0,0-4-2.024,4.875,4.875,0,0,0-3.942,1.918V163.7H84.518l7.049-5.48a1.482,1.482,0,0,0,.3-2.019Zm0,0" transform="translate(-63.587 -144.508)"/><path class="b" d="M80.758,160.206H64.009a.247.247,0,0,1-.247-.247v-7.421a.244.244,0,0,1,.041-.137,5.085,5.085,0,0,1,4.147-2.027,5.2,5.2,0,0,1,4.122,2.024H77.63a1.967,1.967,0,0,1,1.3,3.442h.653l6.4-4a1.729,1.729,0,0,1,1.978,2.832l-7.049,5.479a.244.244,0,0,1-.152.053Zm-16.5-.494H80.673l6.983-5.428a1.236,1.236,0,0,0-1.414-2.023L79.788,156.3a.245.245,0,0,1-.131.037H77.63a.247.247,0,1,1,0-.494,1.474,1.474,0,1,0,0-2.949H71.946a.248.248,0,0,1-.206-.111,4.777,4.777,0,0,0-3.789-1.913,4.7,4.7,0,0,0-3.7,1.751v7.093Zm0,0" transform="translate(-59.827 -140.769)"/><path class="b" d="M200.07,238.957h5.457v.494H200.07Zm0,0" transform="translate(-187.724 -223.885)"/><path class="g" d="M7.939,164.809H4V154.363H7.939Zm0,0" transform="translate(-3.757 -144.511)"/><path class="b" d="M4.182,161.307H.247A.247.247,0,0,1,0,161.06V150.614a.247.247,0,0,1,.247-.247H4.182a.247.247,0,0,1,.247.247V161.06A.247.247,0,0,1,4.182,161.307Zm-3.688-.494H3.935v-9.953H.494Zm0,0" transform="translate(0 -140.762)"/></g></svg>