<svg width="22" height="22" viewBox="0 0 22 22" fill="none" xmlns="http://www.w3.org/2000/svg">
    <path d="M21.022 18.3611L12.706 10.0501L2.99496 0.339111H2.23596L2.08196 0.733111C1.6836 1.70648 1.51094 2.75745 1.57696 3.80711C1.6367 4.84754 2.06866 5.83178 2.79396 6.58011L10.375 14.1611L11.375 13.1611L18.383 20.9981C18.7326 21.3481 19.207 21.5448 19.7018 21.545C20.1965 21.5451 20.671 21.3488 21.021 20.9991C21.3709 20.6494 21.5676 20.175 21.5678 19.6803C21.568 19.1856 21.3716 18.7111 21.022 18.3611V18.3611Z" fill="#ED2790" stroke="#2F353D" stroke-width="0.5" />
    <path d="M6.86098 12.405L0.925978 18.342C0.581288 18.6926 0.389053 19.1651 0.39113 19.6568C0.393207 20.1484 0.589427 20.6193 0.937066 20.9669C1.28471 21.3146 1.75561 21.5108 2.24724 21.5129C2.73887 21.515 3.21141 21.3227 3.56198 20.9781L9.49898 15.041L6.86098 12.405Z" fill="#7155D7" stroke="#2F353D" stroke-width="0.5" />
    <path d="M20.6689 3.8682L17.3009 7.2362L16.4219 6.3572L19.7909 2.9932L18.9119 2.1142L15.5439 5.4822L14.6649 4.6032L18.0329 1.2352L17.1539 0.356201L12.7609 4.7492C12.2252 5.28621 11.905 6.00098 11.8609 6.7582C11.8491 6.95082 11.8062 7.14027 11.7339 7.3192L14.5879 10.1732C14.7668 10.1009 14.9563 10.058 15.1489 10.0462C15.9061 10.0021 16.6209 9.68188 17.1579 9.1462L21.5509 4.7532L20.6689 3.8682Z" fill="#7155D7" stroke="#2F353D" stroke-width="0.5" />
</svg>
