<svg xmlns="http://www.w3.org/2000/svg" width="27.532" height="23.546" viewBox="0 0 27.532 23.546"><defs><style>.a{fill:#a391e6;}</style></defs><g transform="translate(0 -37.067)"><g transform="translate(0 37.067)"><path class="a" d="M7.691,53.769H23.5a.816.816,0,0,0,.782-.583l3.217-10.8a.816.816,0,0,0-.782-1.048H5.958L4.86,37.65a.816.816,0,0,0-.782-.583H.816a.816.816,0,1,0,0,1.631H3.47l1.092,3.668c0,.012.007.024.011.036l2.9,9.744a3.186,3.186,0,0,0,.216,6.364H8.5a2.918,2.918,0,0,0,5.6,0h4.328a2.918,2.918,0,0,0,5.6,0h1.051a.816.816,0,0,0,0-1.631H24.034a2.918,2.918,0,0,0-5.6,0H14.1a2.918,2.918,0,0,0-5.6,0h-.81a1.555,1.555,0,0,1,0-3.109Zm11.966-10.8h5.966L24.5,46.737H19.657Zm0,5.4h4.357l-1.123,3.77H19.657Zm-6.036-5.4h4.4v3.77h-4.4v-3.77Zm0,5.4h4.4v3.77h-4.4v-3.77Zm-1.631,3.77H9.175l-1.123-3.77H11.99ZM6.444,42.967H11.99v3.77H7.566ZM21.233,56.408a1.287,1.287,0,1,1-1.287,1.287A1.288,1.288,0,0,1,21.233,56.408Zm-9.931,0a1.287,1.287,0,1,1-1.287,1.287A1.288,1.288,0,0,1,11.3,56.408Z" transform="translate(0 -37.067)"/></g></g></svg>