<svg xmlns="http://www.w3.org/2000/svg" width="31.205" height="30.214" viewBox="0 0 31.205 30.214">
  <g id="SnackIcon" transform="translate(-198.044 -78.817)">
    <path id="Path_212" data-name="Path 212" d="M339.2,85.562c.012,0-4.124-1.217-8.042-2.745-.2-.053.674,5.082,2.941,8.662C334.07,91.481,339.412,86.38,339.2,85.562Z" transform="translate(-123.831 -4)" fill="#f8d440"/>
    <path id="Path_213" data-name="Path 213" d="M351.981,211.574s.071,1.141.136,1.452c0,0,11.671-1.252,17.76-3.967l-.355-1.174a124.015,124.015,0,0,1-17.541,3.689Z" transform="translate(-140.628 -104.767)" fill="#f0a530"/>
    <path id="Path_214" data-name="Path 214" d="M351.286,121.184c-5.735,1.761-11.508,3.346-17.541,3.69a51.492,51.492,0,0,1-4.4-20.908c5.875-1.976,11.433-3.7,17.541-3.689A51.49,51.49,0,0,1,351.286,121.184Z" transform="translate(-122.392 -18.067)" fill="#86af35"/>
    <path id="Path_215" data-name="Path 215" d="M328.15,97.962s10.193-3.439,17.541-3.689a5.9,5.9,0,0,0,.065-1.448s-12.384.94-17.9,3.764Z" transform="translate(-121.194 -12.063)" fill="#f0a530"/>
    <path id="Path_216" data-name="Path 216" d="M331.958,139.752a90.076,90.076,0,0,0,19.5-4.1,54.268,54.268,0,0,1,1.521,7.516,74.086,74.086,0,0,1-19.391,4.079,47.446,47.446,0,0,1-1.63-7.495Z" transform="translate(-124.495 -46.567)" fill="#ebedec"/>
    <path id="Path_217" data-name="Path 217" d="M381.073,171.295c.012,0-4.055-.978-7.927-2.268-.192-.042.9,4.892,3.273,8.251C376.389,177.281,381.317,172.077,381.073,171.295Z" transform="translate(-157.663 -73.459)" fill="#f0a530"/>
    <path id="Path_218" data-name="Path 218" d="M383.5,139.986c0-.012-.2,4.167-.744,8.211-.006.2,4.636-1.8,7.492-4.76C390.257,143.467,384.222,139.6,383.5,139.986Z" transform="translate(-165.423 -50.039)" fill="#f9c438"/>
    <path id="Path_219" data-name="Path 219" d="M363.2,132.242c.009.008-2.832-3.063-5.337-6.284-.136-.142-1.964,4.57-1.854,8.68C355.979,134.624,362.966,133.028,363.2,132.242Z" transform="translate(-143.867 -38.756)" fill="#f8d440"/>
    <path id="Path_220" data-name="Path 220" d="M345.74,116.837a18.036,18.036,0,0,1,4.59-1.184" transform="translate(-135.599 -30.456)" fill="none" stroke="#86af35" stroke-linecap="round" stroke-linejoin="round" stroke-width="5.475" opacity="0.65" style="mix-blend-mode: screen;isolation: isolate"/>
    <path id="Path_221" data-name="Path 221" d="M338.184,140.536a61.355,61.355,0,0,1-1.629-10.385" transform="translate(-128.199 -42.137)" fill="none" stroke="#86af35" stroke-linecap="round" stroke-linejoin="round" stroke-width="5.475" opacity="0.65" style="mix-blend-mode: screen;isolation: isolate"/>
    <path id="Path_222" data-name="Path 222" d="M347.93,193.6c-.184-.472-.355-.961-.515-1.462" transform="translate(-136.949 -92.079)" fill="none" stroke="#86af35" stroke-linecap="round" stroke-linejoin="round" stroke-width="5.475" opacity="0.65" style="mix-blend-mode: screen;isolation: isolate"/>
    <path id="Path_223" data-name="Path 223" d="M333.388,102.1a38.813,38.813,0,0,1,10.2-2.585" transform="translate(-125.647 -17.453)" fill="none" stroke="#f0a530" stroke-linecap="round" stroke-linejoin="round" stroke-width="1.825" opacity="0.68" style="mix-blend-mode: screen;isolation: isolate"/>
    <path id="Path_224" data-name="Path 224" d="M389.384,98.357s.984-.161,1.288-.179" transform="translate(-170.763 -16.376)" fill="none" stroke="#f0a530" stroke-linecap="round" stroke-linejoin="round" stroke-width="1.825" opacity="0.68" style="mix-blend-mode: screen;isolation: isolate"/>
    <path id="Path_225" data-name="Path 225" d="M347.079,116.558q.447,1.162.952,2.312s.07,1.141.136,1.452c0,0,11.671-1.252,17.76-3.967l-.355-1.174a51.488,51.488,0,0,0-4.4-20.907,5.9,5.9,0,0,0,.066-1.448s-.657.05-1.736.161C359.5,92.986,365.238,114.944,347.079,116.558Z" transform="translate(-136.678 -12.063)" fill="#86af35" opacity="0.35" style="mix-blend-mode: multiply;isolation: isolate"/>
    <path id="Path_226" data-name="Path 226" d="M210.278,171.628a36.545,36.545,0,0,1-12.151,0,3.952,3.952,0,0,1-3.1-2.572,26.091,26.091,0,0,1-1.5-6.882,38.173,38.173,0,0,1,21.357,0,26.1,26.1,0,0,1-1.5,6.882A3.952,3.952,0,0,1,210.278,171.628Z" transform="translate(5.65 -64.385)" fill="#eb5850"/>
    <ellipse id="Ellipse_3" data-name="Ellipse 3" cx="10.679" cy="3.22" rx="10.679" ry="3.22" transform="translate(199.174 94.193)" fill="#7a3527"/>
    <path id="Path_227" data-name="Path 227" d="M191.848,152.678c0-2.3,5.67-3.347,11-3.347s11,1.044,11,3.347m-.651,0c0-1.369-4.252-2.9-10.353-2.9s-10.353,1.526-10.353,2.9" transform="translate(7 -55.265)" fill="#fcdb98"/>
    <path id="Path_228" data-name="Path 228" d="M260.941,158.755c0,.011,1.629-3.979,3.547-7.721.073-.189-5.124.155-8.916,2.047C255.573,153.048,260.106,158.881,260.941,158.755Z" transform="translate(-44.343 -56.6)" fill="#f8d440"/>
    <path id="Path_229" data-name="Path 229" d="M269.615,149.735c.008.01-2.457-3.528-4.558-7.171-.119-.164-2.652,4.387-3.122,8.6C261.908,151.143,269.267,150.5,269.615,149.735Z" transform="translate(-49.47 -49.809)" fill="#f0a530"/>
    <path id="Path_230" data-name="Path 230" d="M224.69,143.73c0,.012-.557-4.263-.747-8.465-.03-.2-4.373,2.674-6.729,6.2C217.2,141.434,224.027,144.253,224.69,143.73Z" transform="translate(-13.438 -43.924)" fill="#f0a530"/>
    <path id="Path_231" data-name="Path 231" d="M232.489,153.931c.009-.008-3.3,2.753-6.75,5.162-.153.133,4.6,2.262,8.837,2.366C234.56,161.487,233.285,154.211,232.489,153.931Z" transform="translate(-20.304 -58.971)" fill="#f9c438"/>
    <path id="Path_232" data-name="Path 232" d="M200.394,154.555c.012,0-4.3.106-8.5-.147-.2.009,2.2,4.63,5.456,7.343C197.324,161.763,200.844,155.269,200.394,154.555Z" transform="translate(6.969 -59.356)" fill="#f9c438"/>
    <path id="Path_233" data-name="Path 233" d="M218.5,146.209c.01.006-3.562-2.408-6.833-5.051-.17-.11-.9,5.047.18,9.146C211.819,150.3,218.455,147.052,218.5,146.209Z" transform="translate(-8.65 -48.679)" fill="#f8d440"/>
    <path id="Path_234" data-name="Path 234" d="M203,186.9c.232,1.076.852,3.336,2.114,4.19" transform="translate(-1.985 -85.531)" fill="none" stroke="#eb5850" stroke-linecap="round" stroke-linejoin="round" stroke-width="5" opacity="0.8" style="mix-blend-mode: screen;isolation: isolate"/>
    <path id="Path_235" data-name="Path 235" d="M199.541,171.586s2.953,1.756,10.106,1.756,9.7-2.361,9.7-2.361l-.164,3.139-10.13,3.806-8.569-4.258Z" transform="translate(0.802 -72.709)" fill="#eb5850"/>
    <path id="Path_236" data-name="Path 236" d="M284.386,178.788" transform="translate(-67.558 -78.999)" fill="#f6b65e"/>
    <path id="Path_237" data-name="Path 237" d="M241.636,168.494a26.1,26.1,0,0,1-1.5,6.882,3.952,3.952,0,0,1-3.1,2.572,36.406,36.406,0,0,1-10.3.258c6.254-1.549,9.539-5.032,11.2-7.712C237.933,170.494,240.909,169.847,241.636,168.494Z" transform="translate(-21.105 -70.705)" fill="#eb5850"/>
    <path id="Path_238" data-name="Path 238" d="M192.5,166.558c0,1.369,4.252,2.9,10.353,2.9s10.353-1.526,10.353-2.9h.651c0,2.3-5.67,3.546-11,3.546s-11-1.243-11-3.546" transform="translate(7 -69.145)" fill="#fcdb98"/>
    <path id="Path_239" data-name="Path 239" d="M273.322,93.279c.009-.008-3.3,2.753-6.75,5.162-.153.133,4.6,2.262,8.836,2.366C275.393,100.835,274.118,93.559,273.322,93.279Z" transform="translate(-53.203 -10.103)" fill="#f9c438"/>
  </g>
</svg>
