<svg xmlns="http://www.w3.org/2000/svg" width="90" height="90" viewBox="0 0 90 90"><defs><style>.a{fill:#eb1787;}.b{fill:#fff;}</style></defs><g transform="translate(-217 -209)"><rect class="a" width="90" height="90" rx="5" transform="translate(217 209)"/><g transform="translate(199.245 228.416)"><path class="b" d="M109.6,128.736c0-6.786-5.969-12.307-13.305-12.307s-13.305,5.521-13.305,12.307,5.969,12.308,13.305,12.308S109.6,135.523,109.6,128.736Zm-25.113,0c0-5.96,5.3-10.81,11.807-10.81s11.807,4.849,11.807,10.81-5.3,10.81-11.807,10.81S84.487,134.7,84.487,128.736Z" transform="translate(-37.115 -104.8)"/><path class="b" d="M125.063,186.5a7.59,7.59,0,0,0,1.25.105,6.583,6.583,0,0,0,4.258-1.511,7.825,7.825,0,0,0,3.067-6.1,5.573,5.573,0,0,0-2.537-4.406c-2.653-1.877-4.759-.034-6.451,1.447-1.047.917-2.037,1.783-3.029,1.834a4.136,4.136,0,0,1-2.494-.654,4.417,4.417,0,0,0-4.109-.384.158.158,0,0,0-.022.01c-.808.229-1.984.929-1.962,3.059a4.815,4.815,0,0,0,2.013,4,7.529,7.529,0,0,0,4.4,1.281,8.924,8.924,0,0,0,2.106-.247A7.558,7.558,0,0,0,125.063,186.5Zm-3.364-7.134c1.511-.077,2.745-1.158,3.939-2.2,1.8-1.579,2.991-2.489,4.6-1.352a4.076,4.076,0,0,1,1.9,3.241,6.422,6.422,0,0,1-2.528,4.89,5.26,5.26,0,0,1-4.3,1.08,5.681,5.681,0,0,1-3.925-2.514l-.2-.337a31.8,31.8,0,0,0-2.224-3.355A5.3,5.3,0,0,0,121.7,179.364Zm-5.769,3.319a3.327,3.327,0,0,1-1.4-2.8c-.014-1.327.591-1.537.9-1.611,1.508-.2,2.945,2.168,4.466,4.675l.205.338c.071.118.148.232.228.345A6.489,6.489,0,0,1,115.931,182.683Z" transform="translate(-64.16 -156.434)"/><path class="b" d="M84.543,41.521A6.994,6.994,0,0,0,81.356,36a4.485,4.485,0,0,0-4.524-.633,6.863,6.863,0,0,0-1.042.532,184.525,184.525,0,0,0-.427-29.266,9.9,9.9,0,0,0,1.185-3.018,2.072,2.072,0,0,0-.984-2.275,2.038,2.038,0,0,0-2.427.232,1.717,1.717,0,0,1-1.261.508,2.063,2.063,0,0,1-1.592-.823,3.412,3.412,0,0,0-5.282,0,2.062,2.062,0,0,1-1.592.823,2.063,2.063,0,0,1-1.592-.823,3.411,3.411,0,0,0-5.281,0,2.063,2.063,0,0,1-1.592.823,2.063,2.063,0,0,1-1.592-.823,3.411,3.411,0,0,0-5.281,0,2.062,2.062,0,0,1-1.591.823,1.716,1.716,0,0,1-1.26-.508,2.038,2.038,0,0,0-2.427-.232,2.071,2.071,0,0,0-.984,2.274,9.894,9.894,0,0,0,1.185,3.017c-.157,1.661-.293,3.332-.4,4.97a.749.749,0,0,0,1.495.1c.1-1.544.229-3.116.375-4.683a123.039,123.039,0,0,1,29.434,0,182.953,182.953,0,0,1,.312,30.046c-.311.26-.618.528-.922.794l-.209.183a.749.749,0,1,0,.985,1.128l.21-.184c2.413-2.112,4-3.328,6.218-1.762a5.48,5.48,0,0,1,2.555,4.361,8.525,8.525,0,0,1-3.348,6.5,7.018,7.018,0,0,1-5.742,1.444,7.566,7.566,0,0,1-5.225-3.353l-.267-.439a29.723,29.723,0,0,0-3.649-5.206c.118.062.239.128.363.2a7.038,7.038,0,0,0,4.134,1.053,5.036,5.036,0,0,0,2.241-.711.749.749,0,1,0-.738-1.3,3.588,3.588,0,0,1-1.58.518A5.53,5.53,0,0,1,65.9,39.4a5.465,5.465,0,0,0-5.139-.481.161.161,0,0,0-.03.014,3.179,3.179,0,0,0-2.321,2.807,123.532,123.532,0,0,1-13.944-.885,182.825,182.825,0,0,1-.549-26.215.749.749,0,0,0-1.5-.077A184.328,184.328,0,0,0,43,41.333a9.855,9.855,0,0,0-1.193,3.03,2.071,2.071,0,0,0,.983,2.275,2.038,2.038,0,0,0,2.428-.232,1.716,1.716,0,0,1,1.261-.508,2.063,2.063,0,0,1,1.592.823,3.412,3.412,0,0,0,5.281,0,1.951,1.951,0,0,1,3.184,0,3.483,3.483,0,0,0,2.641,1.252,3.157,3.157,0,0,0,1.563-.386c.038.029.074.058.112.086a9.507,9.507,0,0,0,5.554,1.616,11.262,11.262,0,0,0,2.783-.34,9.654,9.654,0,0,0,6.1,2.185,8.3,8.3,0,0,0,5.367-1.9,9.9,9.9,0,0,0,3.887-7.71ZM44.1,5.549a8.878,8.878,0,0,1-.83-2.27.588.588,0,0,1,.284-.654.547.547,0,0,1,.671.062,3.207,3.207,0,0,0,2.255.886,3.482,3.482,0,0,0,2.64-1.252,1.95,1.95,0,0,1,3.183,0,3.411,3.411,0,0,0,5.281,0,1.951,1.951,0,0,1,3.184,0,3.411,3.411,0,0,0,5.281,0,1.951,1.951,0,0,1,3.184,0,3.483,3.483,0,0,0,2.641,1.252,3.207,3.207,0,0,0,2.255-.886.547.547,0,0,1,.671-.062.588.588,0,0,1,.285.655,8.885,8.885,0,0,1-.83,2.27A124.54,124.54,0,0,0,44.1,5.549Zm13.486,40.1a3.412,3.412,0,0,0-5.281,0,1.951,1.951,0,0,1-3.184,0A3.483,3.483,0,0,0,46.482,44.4a3.206,3.206,0,0,0-2.255.886.548.548,0,0,1-.671.063.588.588,0,0,1-.284-.655,8.731,8.731,0,0,1,.882-2.364,125.022,125.022,0,0,0,14.218.912,6.012,6.012,0,0,0,1.206,3.194,1.984,1.984,0,0,1-.4.038,2.063,2.063,0,0,1-1.593-.823Zm4.149.811a4.511,4.511,0,0,1-1.9-3.8c-.018-1.734.745-2.152,1.349-2.3,2.094-.284,3.99,2.838,6,6.144l.267.44a7.665,7.665,0,0,0,.5.727,8.767,8.767,0,0,1-6.218-1.213Z"/><path class="b" d="M421.612,444.98l-.037.022a.749.749,0,1,0,.758,1.292l.037-.022a.749.749,0,0,0-.758-1.292Z" transform="translate(-341.55 -400.444)"/><path class="b" d="M432.616,429.028a.746.746,0,0,0,.378-.1l.037-.022a.749.749,0,1,0-.758-1.292l-.037.022a.749.749,0,0,0,.38,1.4Z" transform="translate(-351.147 -384.809)"/><path class="b" d="M411.279,427.346l-.037.022a.749.749,0,1,0,.758,1.292l.037-.022a.749.749,0,0,0-.758-1.292Z" transform="translate(-332.249 -384.571)"/></g></g></svg>