<svg width="15" height="20" viewBox="0 0 15 20" fill="none" xmlns="http://www.w3.org/2000/svg">
<g clip-path="url(#clip0)">
<path d="M11.325 2.99496C10.9961 2.25443 10.4599 1.62486 9.78124 1.18216C9.10256 0.739462 8.3103 0.502541 7.5 0.499962V0.499962C6.95244 0.494481 6.40929 0.598289 5.90234 0.805307C5.3954 1.01233 4.93484 1.31839 4.54764 1.7056C4.16044 2.0928 3.85437 2.55336 3.64735 3.0603C3.44033 3.56725 3.33652 4.1104 3.342 4.65796V7.15196" stroke="#7155D7" stroke-miterlimit="10"/>
<path d="M7.5 13.635C8.05228 13.635 8.5 12.9634 8.5 12.135C8.5 11.3066 8.05228 10.635 7.5 10.635C6.94772 10.635 6.5 11.3066 6.5 12.135C6.5 12.9634 6.94772 13.635 7.5 13.635Z" stroke="#7155D7" stroke-miterlimit="10" stroke-linecap="square"/>
<path d="M7.5 13.635V14.635" stroke="#7155D7" stroke-miterlimit="10" stroke-linecap="square"/>
<path d="M14.5 7.63501H0.5V18.635H14.5V7.63501Z" stroke="#7155D7" stroke-miterlimit="10" stroke-linecap="square"/>
</g>
<defs>
<clipPath id="clip0">
<rect width="15" height="19.135" fill="white"/>
</clipPath>
</defs>
</svg>
