<svg width="18" height="18" viewBox="0 0 18 18" fill="none" xmlns="http://www.w3.org/2000/svg">
<path d="M14.826 11.228C13.8977 10.2961 12.7691 9.58816 11.526 9.15802C12.4098 8.55153 13.0763 7.67814 13.428 6.66562C13.7797 5.6531 13.7982 4.5546 13.4807 3.53083C13.1632 2.50706 12.5264 1.61177 11.6635 0.975925C10.8006 0.340083 9.75687 -0.00292969 8.685 -0.00292969C7.61313 -0.00292969 6.5694 0.340083 5.70649 0.975925C4.84359 1.61177 4.20681 2.50706 3.88932 3.53083C3.57183 4.5546 3.59029 5.6531 3.942 6.66562C4.29371 7.67814 4.96022 8.55153 5.844 9.15802C4.13818 9.75085 2.65912 10.8598 1.61195 12.3311C0.564788 13.8024 0.00142468 15.5631 0 17.369H1.357C1.34567 16.3996 1.52684 15.4375 1.89 14.5385C2.25316 13.6396 2.7911 12.8216 3.47264 12.1321C4.15419 11.4425 4.96579 10.8951 5.86044 10.5214C6.75508 10.1478 7.71497 9.95541 8.6845 9.95541C9.65403 9.95541 10.6139 10.1478 11.5086 10.5214C12.4032 10.8951 13.2148 11.4425 13.8964 12.1321C14.5779 12.8216 15.1158 13.6396 15.479 14.5385C15.8422 15.4375 16.0233 16.3996 16.012 17.369H17.369C17.3722 16.2281 17.1491 15.0979 16.7126 14.0438C16.2761 12.9897 15.6348 12.0326 14.826 11.228V11.228ZM8.685 8.68502C7.96033 8.68502 7.25193 8.47013 6.64939 8.06752C6.04685 7.66492 5.57722 7.09268 5.29991 6.42317C5.02259 5.75366 4.95003 5.01695 5.0914 4.30621C5.23278 3.59546 5.58174 2.9426 6.09416 2.43018C6.60658 1.91776 7.25944 1.5688 7.97019 1.42742C8.68094 1.28604 9.41764 1.3586 10.0872 1.63592C10.7567 1.91324 11.3289 2.38287 11.7315 2.98541C12.1341 3.58795 12.349 4.29635 12.349 5.02102C12.3479 5.99245 11.9616 6.92378 11.2747 7.61069C10.5878 8.29759 9.65643 8.68396 8.685 8.68502V8.68502Z" fill="#7155D7"/>
</svg>
