<svg width="30" height="29" viewBox="0 0 30 29" fill="none" xmlns="http://www.w3.org/2000/svg">
<path d="M15.855 4.71503C15.816 4.74103 15.119 5.99402 15.119 5.99402L14.181 5.16901L15.092 3.65002L15.855 4.078V4.71503Z" fill="#FFC0BB"/>
<path d="M14.5651 4.52802C14.6304 4.7381 14.7372 4.93295 14.8793 5.10095C15.0213 5.26895 15.1958 5.4067 15.3921 5.50604C15.5921 5.15104 15.833 4.73003 15.855 4.71503V4.07703L15.092 3.64905L14.5651 4.52802Z" fill="#F99893"/>
<path d="M6.05106 17.3671C6.05106 17.3671 5.78602 17.1801 5.53202 17.7791C5.27802 18.3781 5.61906 18.6161 5.61906 18.6161C5.61906 18.6161 6.05506 18.2931 6.05106 18.2321C6.04706 18.1711 6.03104 17.3971 6.03104 17.3971L6.05106 17.3671Z" fill="white"/>
<path d="M6.48804 17.151C6.48804 17.151 6.27298 17.019 6.03198 17.397C5.91117 17.6022 5.82065 17.8238 5.76306 18.0549C5.44006 19.2069 5.76306 19.207 5.76306 19.207L6.30505 18.9769C6.49769 18.5117 6.6606 18.0348 6.79297 17.5489C6.7084 17.404 6.606 17.2703 6.48804 17.151V17.151Z" fill="#FF5B7E"/>
<path d="M2.08496 14.1851H10.994C11.0409 14.1851 11.0859 14.2037 11.1191 14.2369C11.1523 14.2701 11.171 14.3151 11.171 14.3621C11.171 14.409 11.1523 14.454 11.1191 14.4872C11.0859 14.5204 11.0409 14.5391 10.994 14.5391H2.08496C2.03802 14.5391 1.993 14.5204 1.9598 14.4872C1.92661 14.454 1.90796 14.409 1.90796 14.3621V14.3621C1.90796 14.3151 1.92661 14.2701 1.9598 14.2369C1.993 14.2037 2.03802 14.1851 2.08496 14.1851V14.1851Z" fill="#283F56"/>
<path d="M9.42998 14.361H8.80798V16.008H9.42998V14.361Z" fill="#283F56"/>
<path d="M3.95801 14.0389H4.70701V15.1849C4.70701 15.2341 4.69733 15.2827 4.67854 15.3281C4.65974 15.3734 4.63219 15.4147 4.59747 15.4494C4.56274 15.4841 4.52151 15.5117 4.47613 15.5305C4.43076 15.5493 4.38212 15.5589 4.33301 15.5589V15.5589C4.28381 15.5591 4.23507 15.5495 4.18958 15.5308C4.14409 15.512 4.10274 15.4845 4.0679 15.4498C4.03307 15.415 4.00543 15.3737 3.98657 15.3283C3.96771 15.2829 3.95801 15.2341 3.95801 15.1849V14.0389Z" fill="#283F56"/>
<path d="M4.60303 15.1851C4.69203 15.2851 6.87305 17.339 6.87305 17.339L6.68896 17.593L4.38904 15.3201L4.60303 15.1851Z" fill="#283F56"/>
<path d="M24.4041 18.97H24.5259C24.6481 18.97 24.7656 19.0185 24.8521 19.105C24.9385 19.1914 24.9871 19.3088 24.9871 19.431V20.0229H24.4189C24.4189 20.0229 24.166 19.585 24.073 19.677C24.1628 19.4323 24.2736 19.1957 24.4041 18.97Z" fill="#FFE5B6"/>
<path d="M11.9082 25.8088C13.2126 24.5044 13.2126 22.3896 11.9082 21.0853C10.6039 19.7809 8.48909 19.7809 7.18473 21.0853C5.88038 22.3896 5.88038 24.5044 7.18473 25.8088C8.48909 27.1131 10.6039 27.1131 11.9082 25.8088Z" fill="#1A1A1A"/>
<path d="M11.052 23.448C11.052 23.7457 10.9637 24.0367 10.7983 24.2842C10.633 24.5317 10.3979 24.7246 10.1229 24.8385C9.84793 24.9524 9.54537 24.9821 9.25342 24.9241C8.96148 24.866 8.69327 24.7227 8.48279 24.5122C8.27232 24.3017 8.129 24.0335 8.07093 23.7416C8.01286 23.4496 8.04259 23.1471 8.1565 22.8721C8.27041 22.5971 8.46333 22.362 8.71082 22.1967C8.95832 22.0313 9.24934 21.943 9.547 21.943C9.94615 21.943 10.329 22.1015 10.6112 22.3838C10.8935 22.666 11.052 23.0488 11.052 23.448V23.448Z" fill="#9E9DA2"/>
<path d="M28.7205 23.529C28.7666 21.6844 27.3087 20.1516 25.464 20.1055C23.6194 20.0594 22.0866 21.5174 22.0405 23.362C21.9944 25.2067 23.4524 26.7394 25.297 26.7855C27.1417 26.8316 28.6744 25.3737 28.7205 23.529Z" fill="#1A1A1A"/>
<path d="M26.8839 23.448C26.8839 23.7457 26.7956 24.0367 26.6302 24.2842C26.4649 24.5317 26.2298 24.7246 25.9548 24.8385C25.6798 24.9524 25.3772 24.9821 25.0853 24.9241C24.7934 24.866 24.5252 24.7227 24.3147 24.5122C24.1042 24.3017 23.9609 24.0335 23.9028 23.7416C23.8447 23.4496 23.8746 23.1471 23.9885 22.8721C24.1024 22.5971 24.2953 22.362 24.5428 22.1967C24.7903 22.0313 25.0812 21.943 25.3789 21.943C25.778 21.943 26.1608 22.1015 26.4431 22.3838C26.7253 22.666 26.8839 23.0488 26.8839 23.448Z" fill="#9E9DA2"/>
<path d="M6.00097 20.851H13.533V22.951H6.00097C5.72266 22.951 5.45568 22.8407 5.25851 22.6442C5.06134 22.4478 4.95003 22.1813 4.94897 21.903V21.903C4.94897 21.6239 5.05981 21.3564 5.2571 21.1591C5.45439 20.9618 5.72197 20.851 6.00097 20.851V20.851Z" fill="#283F56"/>
<path d="M8.648 15.6591H14.87C15.0363 15.6591 15.1958 15.7251 15.3134 15.8427C15.4309 15.9603 15.497 16.1198 15.497 16.2861V16.2861C15.497 16.4523 15.4309 16.6118 15.3134 16.7294C15.1958 16.847 15.0363 16.9131 14.87 16.9131H8.648C8.48171 16.9131 8.32223 16.847 8.20464 16.7294C8.08705 16.6118 8.021 16.4523 8.021 16.2861V16.2861C8.021 16.1198 8.08705 15.9603 8.20464 15.8427C8.32223 15.7251 8.48171 15.6591 8.648 15.6591V15.6591Z" fill="#7155D7"/>
<path d="M15.235 16.7959C14.6927 17.2296 14.3116 17.8328 14.153 18.5089C13.669 19.8909 13.7729 21.9769 16.7799 22.1379H21.3999L21.861 21.328C21.861 21.328 21.4689 15.813 20.5709 13.371H22.0919C22.0919 13.371 22.551 18.065 24.164 18.699C24.2395 18.7294 24.3042 18.7818 24.3496 18.8494C24.3951 18.9169 24.4193 18.9966 24.419 19.078V20.007L21.9769 23.1639H13.9359C13.9359 23.1639 12.047 23.3309 11.586 20.1229L6.13393 20.0389C6.06431 20.0379 5.99594 20.0208 5.9341 19.9888C5.87226 19.9568 5.81864 19.9109 5.77761 19.8546C5.73658 19.7984 5.70922 19.7333 5.69765 19.6647C5.68608 19.596 5.69063 19.5256 5.71096 19.459C5.88096 18.905 6.22698 18.124 6.85598 17.953C7.85198 17.68 15.235 16.7959 15.235 16.7959Z" fill="#333333"/>
<path d="M6.427 18.131L6.45007 18.1689H14.2831L14.363 17.985C14.5319 17.5125 14.8349 17.0997 15.235 16.797H7.20105C7.0447 16.7965 6.89098 16.8372 6.75537 16.915C6.61976 16.9929 6.50706 17.1051 6.42859 17.2404C6.35012 17.3756 6.30862 17.5291 6.30835 17.6854C6.30808 17.8418 6.349 17.9955 6.427 18.131V18.131Z" fill="#283F56"/>
<path d="M5.95297 20.851H11.8049C11.9508 20.8511 12.0946 20.8162 12.2242 20.7494C12.3539 20.6826 12.4657 20.5858 12.5503 20.4669C12.6348 20.3481 12.6896 20.2107 12.7103 20.0663C12.7309 19.9219 12.7168 19.7748 12.6689 19.637C12.47 19.0464 12.0908 18.533 11.5847 18.1693C11.0786 17.8057 10.4711 17.6101 9.84787 17.61C7.54787 17.397 6.14796 19.2379 5.59896 20.2599C5.56575 20.321 5.54905 20.3898 5.5505 20.4594C5.55196 20.5289 5.57152 20.5968 5.60727 20.6565C5.64301 20.7162 5.69361 20.7655 5.75424 20.7996C5.81486 20.8337 5.88341 20.8514 5.95297 20.851V20.851Z" fill="#7155D7"/>
<path d="M21.976 23.163L23.776 20.2631C24.1854 20.0217 24.6398 19.8665 25.1113 19.8072C25.5829 19.7478 26.0615 19.7856 26.5179 19.918C26.9596 20.0133 27.3773 20.1974 27.7457 20.459C28.1141 20.7207 28.4255 21.0545 28.661 21.4401C28.6972 21.4967 28.7175 21.5619 28.7198 21.6291C28.7222 21.6962 28.7064 21.7627 28.6742 21.8217C28.642 21.8807 28.5945 21.9299 28.5367 21.9643C28.479 21.9986 28.4131 22.0168 28.3459 22.017H25.579C25.1599 22.0167 24.7462 22.1104 24.3682 22.2913C23.9902 22.4722 23.6577 22.7356 23.395 23.0621L23.324 23.1501C23.1343 23.3855 22.8942 23.5754 22.6215 23.7059C22.3487 23.8363 22.0503 23.9041 21.7479 23.9041V23.9041C21.3338 23.9041 20.9355 23.746 20.634 23.4621L20.3199 23.162L21.976 23.163Z" fill="#7155D7"/>
<path d="M22.2161 10.4801C22.216 10.4228 22.2031 10.3663 22.1786 10.3146C22.1541 10.2628 22.1185 10.2171 22.0742 10.1808C22.03 10.1445 21.9781 10.1185 21.9226 10.1045C21.8671 10.0905 21.8092 10.089 21.7531 10.1001C20.7341 10.3001 19.6641 11.1171 19.6641 12.0941C19.6641 13.0711 20.7341 13.888 21.7531 14.088C21.8092 14.0991 21.8671 14.0976 21.9226 14.0836C21.9781 14.0697 22.03 14.0436 22.0742 14.0073C22.1185 13.971 22.1541 13.9253 22.1786 13.8735C22.2031 13.8218 22.216 13.7653 22.2161 13.708V10.4801Z" fill="#7155D7"/>
<path d="M22.2161 10.489V13.699C22.5568 13.5908 22.8543 13.3768 23.0654 13.0883C23.2765 12.7997 23.3903 12.4515 23.3903 12.094C23.3903 11.7365 23.2765 11.3882 23.0654 11.0996C22.8543 10.8111 22.5568 10.5972 22.2161 10.489V10.489Z" fill="white"/>
<path d="M10.509 9.396H2.56799V14.185H10.509V9.396Z" fill="#7155D7"/>
<path d="M10.678 8.79297H2.39905V9.39597H10.678V8.79297Z" fill="#D12A56"/>
<path d="M4.49596 15.156C4.49596 15.1884 4.4864 15.2201 4.46838 15.2471C4.45036 15.274 4.42473 15.2951 4.39477 15.3075C4.3648 15.3199 4.33173 15.3231 4.29992 15.3168C4.26811 15.3104 4.23887 15.2949 4.21593 15.272C4.193 15.249 4.17746 15.2198 4.17113 15.188C4.16481 15.1562 4.168 15.1231 4.18041 15.0931C4.19282 15.0632 4.21387 15.0376 4.24084 15.0195C4.26781 15.0015 4.29946 14.9919 4.3319 14.9919C4.3754 14.9919 4.41711 15.0093 4.44787 15.04C4.47862 15.0708 4.49596 15.1125 4.49596 15.156V15.156Z" fill="#282828"/>
<path d="M7.60595 18.8471H11.327C11.3414 18.8469 11.3556 18.8496 11.369 18.8551C11.3823 18.8605 11.3944 18.8685 11.4047 18.8786C11.4149 18.8888 11.423 18.9008 11.4286 18.9141C11.4341 18.9274 11.437 18.9417 11.437 18.9561V18.9561C11.4371 18.9705 11.4343 18.9849 11.4289 18.9983C11.4234 19.0117 11.4153 19.0239 11.405 19.0341C11.3948 19.0444 11.3826 19.0525 11.3692 19.0579C11.3558 19.0634 11.3414 19.0662 11.327 19.0661H7.60595C7.59155 19.0661 7.5773 19.0632 7.56401 19.0577C7.55072 19.0521 7.53866 19.044 7.52852 19.0338C7.51839 19.0235 7.51038 19.0114 7.50496 18.9981C7.49954 18.9847 7.49682 18.9704 7.49695 18.9561V18.9561C7.49695 18.9271 7.50844 18.8994 7.52888 18.879C7.54932 18.8585 7.57704 18.8471 7.60595 18.8471V18.8471Z" fill="#333333"/>
<path d="M7.60595 19.4H11.3269C11.3413 19.3999 11.3556 19.4026 11.369 19.408C11.3823 19.4135 11.3944 19.4215 11.4047 19.4316C11.4149 19.4417 11.423 19.4538 11.4286 19.4671C11.4341 19.4804 11.4369 19.4946 11.4369 19.509V19.509C11.4369 19.5379 11.4255 19.5657 11.405 19.5861C11.3846 19.6065 11.3569 19.618 11.3279 19.618H7.60595C7.57704 19.618 7.54932 19.6065 7.52887 19.5861C7.50843 19.5657 7.49695 19.5379 7.49695 19.509V19.509C7.49695 19.4801 7.50843 19.4524 7.52887 19.432C7.54932 19.4115 7.57704 19.4 7.60595 19.4V19.4Z" fill="#333333"/>
<path d="M18.209 19.238L17.92 22.338L17.672 22.785L17.226 22.462L17.235 19.162L18.209 19.238Z" fill="#FFC0BB"/>
<path d="M19.8831 18.947L19.7411 22.339L19.493 22.786L19.047 22.463L19.056 19.163L19.8831 18.947Z" fill="#FFC0BB"/>
<path d="M20.874 22.996L18.949 23.002C18.9418 23.002 18.935 22.9991 18.9299 22.994C18.9249 22.989 18.922 22.9821 18.922 22.975V22.83C18.922 22.8228 18.9249 22.816 18.9299 22.8109C18.935 22.8058 18.9418 22.803 18.949 22.803L20.874 22.796C20.8812 22.796 20.888 22.7988 20.8931 22.8038C20.8981 22.8089 20.901 22.8158 20.901 22.823V22.968C20.9011 22.9716 20.9005 22.9752 20.8992 22.9786C20.8979 22.982 20.896 22.9851 20.8934 22.9877C20.8909 22.9903 20.8879 22.9924 20.8845 22.9938C20.8812 22.9952 20.8777 22.996 20.874 22.996V22.996Z" fill="#DAEEF7"/>
<path d="M19.0139 22.198L18.9499 22.752C18.9419 22.82 18.9808 22.882 19.0308 22.882L20.7748 22.876C20.7998 22.875 20.8239 22.8668 20.8442 22.8522C20.8645 22.8376 20.88 22.8174 20.8889 22.7941C20.904 22.7523 20.9075 22.7072 20.8989 22.6637C20.8902 22.6202 20.8699 22.5798 20.8399 22.547C20.6829 22.327 20.1699 22.275 19.9179 22.087H19.1059C19.0549 22.091 19.0209 22.136 19.0139 22.198Z" fill="white"/>
<path d="M19.795 22.4101C19.7884 22.4048 19.784 22.3975 19.7821 22.3893C19.7803 22.3811 19.7813 22.3725 19.785 22.365C19.8102 22.2925 19.8595 22.2307 19.9246 22.19C19.9897 22.1492 20.0667 22.132 20.143 22.141C20.156 22.141 20.164 22.16 20.162 22.177C20.162 22.194 20.149 22.205 20.137 22.203C20.0704 22.1941 20.0028 22.2087 19.9457 22.244C19.8886 22.2794 19.8457 22.3334 19.824 22.397C19.815 22.411 19.805 22.4171 19.795 22.4101Z" fill="#DAEEF7"/>
<path d="M19.977 22.481C19.9705 22.4757 19.966 22.4684 19.9642 22.4602C19.9623 22.4521 19.9633 22.4436 19.967 22.4361C19.9922 22.3635 20.0414 22.3018 20.1065 22.261C20.1716 22.2203 20.2487 22.203 20.325 22.2121C20.338 22.2121 20.3459 22.2311 20.3439 22.2481C20.3439 22.2651 20.331 22.2761 20.319 22.2741C20.2525 22.2654 20.1849 22.2799 20.1278 22.3152C20.0708 22.3506 20.0278 22.4046 20.006 22.468C19.999 22.481 19.987 22.487 19.977 22.481Z" fill="#DAEEF7"/>
<path d="M20.1451 22.55C20.1387 22.5446 20.1343 22.5373 20.1325 22.5292C20.1307 22.5211 20.1316 22.5126 20.1351 22.505C20.1603 22.4325 20.2095 22.3707 20.2746 22.33C20.3397 22.2892 20.4168 22.272 20.4931 22.281C20.5061 22.281 20.514 22.2999 20.512 22.3169C20.512 22.3339 20.499 22.3449 20.486 22.3429C20.4195 22.334 20.3519 22.3486 20.2949 22.3839C20.2378 22.4193 20.1947 22.4734 20.173 22.537C20.168 22.55 20.1551 22.55 20.1451 22.55Z" fill="#DAEEF7"/>
<path opacity="0.3" d="M19.4969 22.8811C19.3579 22.4341 19.1209 22.3811 18.9919 22.3961L18.9509 22.753C18.9429 22.821 18.9819 22.883 19.0319 22.883L19.4969 22.8811Z" fill="#F8D7CB"/>
<path d="M7.60595 19.954H11.3279C11.3569 19.954 11.3846 19.9655 11.405 19.9859C11.4255 20.0063 11.4369 20.0341 11.4369 20.063V20.063C11.4369 20.0919 11.4255 20.1196 11.405 20.1401C11.3846 20.1605 11.3569 20.172 11.3279 20.172H7.60595C7.57704 20.172 7.54932 20.1605 7.52887 20.1401C7.50843 20.1196 7.49695 20.0919 7.49695 20.063V20.063C7.49695 20.0341 7.50843 20.0063 7.52887 19.9859C7.54932 19.9655 7.57704 19.954 7.60595 19.954V19.954Z" fill="#333333"/>
<path d="M18.6639 14.674C18.8919 14.691 19.84 15.074 19.964 15.762C20.088 16.45 19.964 21.762 19.964 21.762H18.911C18.911 21.762 18.069 17.551 18.069 17.428C18.069 17.305 18.6639 14.674 18.6639 14.674Z" fill="#282828"/>
<path d="M11.433 13.1479C11.3933 13.4628 11.4187 13.7825 11.5077 14.087C11.5968 14.3916 11.7475 14.6746 11.9506 14.9185C12.1536 15.1623 12.4046 15.3618 12.688 15.5045C12.9714 15.6472 13.2811 15.7301 13.5979 15.748C14.8686 15.8359 16.1323 16.0058 17.381 16.257C17.381 16.257 17.048 21.5731 17.065 21.8361C17.4528 21.9065 17.847 21.9359 18.241 21.924C18.241 21.924 20.118 16.024 19.574 14.818C19.03 13.612 14.696 13.151 14.696 13.151L11.433 13.1479Z" fill="#333333"/>
<path d="M15.423 8.91992C15.4226 9.3386 15.456 9.75663 15.5229 10.1699C15.5989 10.2759 19.2309 11.663 19.2309 11.663L18.631 12.337L15.9549 11.573C15.9549 11.573 14.0389 10.8859 14.0549 10.8359C14.0709 10.7859 14.1799 10.082 14.2749 9.80603C14.407 9.49709 14.558 9.1965 14.7269 8.90601L15.423 8.91992Z" fill="#F9B7B4"/>
<path d="M14.083 4.93103C14.083 4.93103 11.6561 5.81303 11.3831 10.603L11.265 13.327C11.265 13.327 14.0281 14.511 15.6071 13.485C15.6071 13.485 15.767 8.62307 15.933 6.84607C15.9467 6.69842 15.9242 6.54963 15.8674 6.41266C15.8106 6.27568 15.7213 6.15465 15.6071 6.06006C15.1396 5.63183 14.6288 5.25342 14.083 4.93103Z" fill="#FEB546"/>
<path d="M13.241 8.33093C13.241 8.33093 12.6481 10.783 13.4771 11.457C13.9941 11.877 18.8171 12.7009 18.8171 12.7009L19.1281 11.949C19.1281 11.949 15.288 10.578 15.058 10.42C14.828 10.262 15.214 8.16504 15.214 8.16504L13.241 8.33093Z" fill="#FFC0BB"/>
<path d="M15.116 5.81512C15.0087 5.71979 14.8766 5.65679 14.735 5.6336C14.5934 5.61041 14.4481 5.628 14.316 5.68414C13.945 5.84014 13.4161 6.28406 13.1281 7.53606L12.885 8.61614C13.6582 8.81669 14.4459 8.95642 15.241 9.03411L15.524 7.36504C15.5703 7.09253 15.5577 6.81337 15.4873 6.54607C15.4169 6.27877 15.2904 6.02956 15.116 5.81512V5.81512Z" fill="#F4A640"/>
<path d="M9.21509 8.79297H7.73901L4.97107 14.184H6.44702L9.21509 8.79297Z" fill="#333333"/>
<path d="M7.35791 12.201L6.36694 11.692C6.29393 11.6544 6.23887 11.5894 6.21375 11.5112C6.18862 11.433 6.19546 11.3481 6.23291 11.275L6.52393 10.708C6.56151 10.635 6.62653 10.5799 6.70471 10.5548C6.78289 10.5296 6.86784 10.5366 6.94092 10.5741L7.93189 11.083C8.0049 11.1206 8.06008 11.1856 8.08521 11.2638C8.11033 11.3419 8.10337 11.4269 8.06592 11.5L7.7749 12.067C7.73732 12.14 7.6723 12.1952 7.59412 12.2203C7.51594 12.2454 7.43099 12.2385 7.35791 12.201V12.201ZM6.85791 10.736C6.84295 10.7282 6.82662 10.7235 6.80982 10.722C6.79301 10.7206 6.77609 10.7224 6.76001 10.7275C6.74393 10.7326 6.72907 10.7409 6.71619 10.7518C6.70331 10.7627 6.69265 10.776 6.68494 10.791L6.39392 11.358C6.38613 11.373 6.38134 11.3893 6.37988 11.4061C6.37843 11.4229 6.38039 11.4398 6.3855 11.4559C6.39061 11.472 6.39878 11.487 6.40967 11.4998C6.42056 11.5127 6.43397 11.5233 6.44898 11.531L7.43994 12.039C7.47006 12.0545 7.505 12.0573 7.53723 12.047C7.56946 12.0366 7.59636 12.014 7.61194 11.984L7.90296 11.417C7.91075 11.402 7.91554 11.3857 7.91699 11.3689C7.91845 11.352 7.91649 11.3351 7.91138 11.3191C7.90627 11.303 7.8981 11.2881 7.88721 11.2752C7.87632 11.2623 7.86291 11.2517 7.8479 11.244L6.85791 10.736Z" fill="#FFE5B6"/>
<path d="M14.868 3.12395C14.8986 3.18197 14.9172 3.24558 14.9225 3.31096C14.9279 3.37633 14.9199 3.44209 14.8992 3.50432C14.8785 3.56654 14.8453 3.62393 14.8018 3.67302C14.7583 3.7221 14.7053 3.7619 14.646 3.78996C14.5179 3.83488 14.3774 3.82878 14.2536 3.77293C14.1298 3.71709 14.0321 3.61572 13.981 3.48991C13.9504 3.43189 13.9319 3.36834 13.9266 3.30296C13.9212 3.23759 13.9291 3.17177 13.9499 3.10954C13.9706 3.04731 14.0036 2.98992 14.0472 2.94084C14.0907 2.89176 14.1438 2.85201 14.203 2.82396C14.3312 2.77904 14.4717 2.78514 14.5955 2.84099C14.7193 2.89683 14.8168 2.99814 14.868 3.12395V3.12395Z" fill="#FFC0BB"/>
<path d="M19.0131 22.996L17.088 23.002C17.0809 23.002 17.074 22.9991 17.069 22.994C17.0639 22.989 17.061 22.9821 17.061 22.975V22.83C17.061 22.8228 17.0639 22.816 17.069 22.8109C17.074 22.8058 17.0809 22.803 17.088 22.803L19.0131 22.796C19.0202 22.796 19.027 22.7988 19.0321 22.8038C19.0372 22.8089 19.04 22.8158 19.04 22.823V22.968C19.0402 22.9716 19.0396 22.9752 19.0383 22.9786C19.037 22.982 19.035 22.9851 19.0325 22.9877C19.0299 22.9903 19.0269 22.9924 19.0236 22.9938C19.0202 22.9952 19.0167 22.996 19.0131 22.996V22.996Z" fill="#DAEEF7"/>
<path d="M17.149 22.198L17.0849 22.752C17.0769 22.82 17.116 22.882 17.166 22.882L18.91 22.876C18.9349 22.8749 18.9589 22.8666 18.9792 22.8521C18.9994 22.8375 19.015 22.8174 19.024 22.7941C19.0391 22.7523 19.0425 22.707 19.0336 22.6635C19.0248 22.6199 19.0042 22.5796 18.9739 22.547C18.8169 22.327 18.3039 22.275 18.0519 22.087H17.239C17.193 22.091 17.156 22.136 17.149 22.198Z" fill="white"/>
<path d="M17.9301 22.4101C17.9236 22.4048 17.9189 22.3975 17.9171 22.3893C17.9153 22.3811 17.9164 22.3725 17.9201 22.365C17.9453 22.2925 17.9945 22.2307 18.0596 22.19C18.1247 22.1492 18.2017 22.132 18.278 22.141C18.2849 22.1437 18.2907 22.1489 18.2942 22.1555C18.2977 22.1622 18.2987 22.1697 18.297 22.177V22.177C18.297 22.194 18.284 22.205 18.271 22.203C18.2044 22.1941 18.1368 22.2087 18.0797 22.244C18.0226 22.2794 17.9797 22.3334 17.958 22.397C17.954 22.411 17.9401 22.4171 17.9301 22.4101Z" fill="#DAEEF7"/>
<path d="M18.1119 22.481C18.1054 22.4757 18.1009 22.4684 18.0991 22.4602C18.0973 22.4521 18.0984 22.4436 18.1021 22.4361C18.1273 22.3635 18.1765 22.3018 18.2416 22.261C18.3067 22.2203 18.3837 22.203 18.46 22.2121C18.4669 22.2148 18.4727 22.2199 18.4762 22.2265C18.4797 22.2331 18.4807 22.2408 18.479 22.2481V22.2481C18.479 22.2651 18.466 22.2761 18.454 22.2741C18.3874 22.2654 18.32 22.2799 18.263 22.3152C18.2059 22.3506 18.1628 22.4046 18.141 22.468C18.135 22.481 18.1219 22.487 18.1119 22.481Z" fill="#DAEEF7"/>
<path d="M18.2791 22.55C18.2727 22.5446 18.2683 22.5373 18.2665 22.5292C18.2647 22.5211 18.2656 22.5126 18.2691 22.505C18.2943 22.4325 18.3436 22.3707 18.4088 22.33C18.4739 22.2892 18.5509 22.272 18.6271 22.281C18.6401 22.281 18.6482 22.2999 18.6462 22.3169C18.6462 22.3339 18.6332 22.3449 18.6202 22.3429C18.5536 22.334 18.486 22.3486 18.4289 22.3839C18.3718 22.4193 18.3288 22.4734 18.3072 22.537C18.3022 22.55 18.2901 22.55 18.2791 22.55Z" fill="#DAEEF7"/>
<path opacity="0.3" d="M17.6319 22.8811C17.4929 22.4341 17.256 22.3811 17.127 22.3961L17.086 22.753C17.078 22.821 17.1169 22.883 17.1669 22.883L17.6319 22.8811Z" fill="#E87B50"/>
<path d="M12.837 22.826H22.253C22.4058 22.826 22.5523 22.8867 22.6603 22.9948C22.7683 23.1028 22.829 23.2493 22.829 23.402V23.402C22.829 23.5548 22.7683 23.7013 22.6603 23.8093C22.5523 23.9174 22.4058 23.978 22.253 23.978H12.837C12.6842 23.978 12.5377 23.9174 12.4297 23.8093C12.3217 23.7013 12.261 23.5548 12.261 23.402V23.402C12.261 23.2493 12.3217 23.1028 12.4297 22.9948C12.5377 22.8867 12.6842 22.826 12.837 22.826V22.826Z" fill="#283F56"/>
<path opacity="0.8" d="M7.76202 26.817H1.31103C1.31103 26.817 -1.63797 25.9049 1.31103 25.9349C1.31103 25.9349 -0.424976 24.6449 2.20202 24.9519C4.82902 25.2589 5.07403 26.042 5.07403 26.042C5.07403 26.042 5.59602 25.119 7.76202 26.817Z" fill="white"/>
<path opacity="0.8" d="M16.2269 26.7991L20.427 26.7691C20.427 26.7691 18.135 25.4491 17.812 26.0251C17.809 26.0241 13.7479 25.1801 16.2269 26.7991Z" fill="white"/>
<path opacity="0.8" d="M29.395 26.802H22.037C22.037 26.802 21.379 26.013 22.827 26.302C22.827 26.302 21.888 25.094 24.058 25.578L25.3771 26.0201C25.3771 26.0201 23.2251 23.297 25.6421 24.242C27.0746 24.7929 28.3593 25.6693 29.395 26.802Z" fill="white"/>
<path opacity="0.8" d="M12.0611 26.799H10.116C10.116 26.799 9.86397 26.246 10.57 26.523C10.571 26.522 9.61906 24.664 12.0611 26.799Z" fill="white"/>
<path d="M16.7161 4.29093L16.6161 4.66294C16.6161 4.66294 15.7841 3.98895 15.7901 3.97495C15.7961 3.96095 15.9411 3.72194 16.0041 3.74094C16.0671 3.75994 16.5861 3.96095 16.5861 3.97495C16.5861 3.98895 16.7161 4.29093 16.7161 4.29093Z" fill="white"/>
<path d="M16.1331 4.03596C16.2958 4.20619 16.5123 4.31497 16.746 4.34394C16.782 4.21594 16.806 4.12293 16.806 4.12293C16.9398 4.08426 17.0652 4.02122 17.176 3.93696C17.045 3.76729 16.9476 3.57413 16.889 3.36793C16.889 3.18593 17.1671 2.09697 16.3831 1.48097C15.5991 0.864967 15.1331 1.97096 15.1331 1.97096L14.801 3.11598L14.345 3.80897C14.4494 4.2423 14.7097 4.62202 15.076 4.87593C15.2808 5.01951 15.5158 5.11393 15.7629 5.15174C16.0101 5.18956 16.2627 5.16976 16.501 5.09394C16.5816 4.92241 16.6437 4.7427 16.686 4.55793C16.5636 4.51246 16.4514 4.44284 16.3564 4.35316C16.2614 4.26348 16.1855 4.15561 16.1331 4.03596V4.03596Z" fill="#FFC0BB"/>
<path d="M16.2789 3.33298C16.2958 3.36088 16.3227 3.38124 16.3542 3.38981C16.3857 3.39837 16.4193 3.3945 16.448 3.379C16.462 3.37196 16.4745 3.3621 16.4847 3.35007C16.4949 3.33804 16.5025 3.32412 16.507 3.30906C16.5116 3.29399 16.513 3.27814 16.5113 3.26249C16.5096 3.24684 16.5047 3.23169 16.4969 3.21799C16.4799 3.19028 16.453 3.17014 16.4216 3.1616C16.3902 3.15305 16.3567 3.15679 16.328 3.17203C16.3139 3.17908 16.3014 3.18887 16.2912 3.2009C16.2811 3.21293 16.2735 3.22692 16.2689 3.24198C16.2643 3.25704 16.2628 3.2729 16.2645 3.28855C16.2662 3.3042 16.2711 3.31929 16.2789 3.33298Z" fill="#333333"/>
<path d="M16.101 3.11393C16.1416 3.07728 16.1851 3.04387 16.231 3.01396C16.2739 2.98712 16.3204 2.96625 16.369 2.95195C16.4171 2.93773 16.4669 2.93066 16.517 2.93095H16.5559H16.5959C16.6229 2.93095 16.649 2.93795 16.678 2.93895C16.6557 2.92251 16.6318 2.90815 16.6069 2.89598C16.5807 2.88427 16.5531 2.87554 16.5249 2.86998C16.4662 2.85786 16.4053 2.8606 16.3479 2.87797C16.2901 2.89478 16.2371 2.92493 16.193 2.96599C16.1501 3.00658 16.1184 3.0575 16.101 3.11393V3.11393Z" fill="#333333"/>
<path d="M15.2611 2.505C15.2611 2.505 14.986 2.73799 14.917 3.80499C14.918 4.02403 14.8465 4.23727 14.7135 4.41132C14.5805 4.58536 14.3936 4.71045 14.182 4.76703C14.196 4.76703 14.3821 2.941 14.4131 2.88C14.4441 2.819 14.682 2.12603 14.719 2.10803C14.904 2.19617 15.0831 2.29637 15.255 2.40802C15.281 2.41902 15.2611 2.505 15.2611 2.505Z" fill="#D12A56"/>
<path d="M17.4661 1.74504C17.3343 1.1709 16.9863 0.669643 16.4944 0.345562C16.0025 0.0214807 15.4046 -0.100462 14.8251 0.00504673C12.4651 0.105047 12.5431 2.84202 12.5431 2.84202C12.5431 2.84202 12.448 4.82505 13.86 4.82505C13.86 4.82505 14.816 4.88704 14.816 3.69304C14.816 2.53904 15.167 2.53904 15.167 2.53904L17.4661 1.74504Z" fill="#7155D7"/>
<path opacity="0.5" d="M13.058 0.955078C12.719 1.52456 12.5412 2.17536 12.5431 2.83807C12.5431 2.83807 12.448 4.82104 13.86 4.82104C13.86 4.82104 14.791 4.88108 14.816 3.73608C14.2639 3.52183 13.7951 3.136 13.4786 2.63538C13.1622 2.13475 13.0147 1.54576 13.058 0.955078V0.955078Z" fill="#4B34BF"/>
<path d="M14.093 4.07794C14.093 4.13095 14.0773 4.1828 14.0479 4.22687C14.0184 4.27094 13.9765 4.30528 13.9275 4.32556C13.8785 4.34585 13.8247 4.35116 13.7727 4.34082C13.7207 4.33048 13.673 4.30494 13.6355 4.26746C13.598 4.22998 13.5725 4.18224 13.5622 4.13025C13.5518 4.07826 13.5571 4.02437 13.5774 3.9754C13.5977 3.92643 13.6321 3.88455 13.6762 3.8551C13.7202 3.82565 13.772 3.80994 13.825 3.80994C13.896 3.80994 13.9643 3.83817 14.0145 3.88843C14.0648 3.93869 14.093 4.00686 14.093 4.07794V4.07794Z" fill="#D12A56"/>
<path d="M15.168 2.53705C15.24 2.51205 17.039 2.37308 17.884 2.30908C17.9157 2.30663 17.9459 2.29444 17.9703 2.27417C17.9948 2.2539 18.0124 2.22653 18.0208 2.19586C18.0291 2.16519 18.0277 2.13271 18.0168 2.10284C18.006 2.07298 17.9862 2.04719 17.9601 2.02905L17.4661 1.68408L15.168 2.53705Z" fill="#1A1A1A"/>
<path d="M15.168 2.53795L17.5121 1.76091C17.5293 1.75519 17.545 1.74598 17.5585 1.73381C17.5719 1.72165 17.5828 1.70684 17.5902 1.6903C17.5976 1.67375 17.6015 1.65582 17.6017 1.63768C17.6018 1.61955 17.5982 1.60161 17.5911 1.58495L17.5231 1.42492C17.5159 1.40811 17.5054 1.39302 17.4921 1.38054C17.4787 1.36806 17.4629 1.35849 17.4457 1.35247C17.4284 1.34644 17.4102 1.34405 17.392 1.34551C17.3738 1.34697 17.3561 1.35226 17.3401 1.36095L15.168 2.53795Z" fill="#283F56"/>
<path d="M18.687 11.8719C18.9495 11.7035 19.2386 11.5807 19.542 11.5089C19.801 11.5089 20.3421 11.665 20.3421 11.924C20.3429 12.0768 20.2874 12.2246 20.1861 12.339L19.6601 12.793C19.6601 12.793 19.4091 12.9869 19.3051 12.8829C19.2011 12.7789 18.89 12.909 18.377 12.625C17.864 12.341 18.346 12.183 18.424 12.105C18.502 12.027 18.687 11.8719 18.687 11.8719Z" fill="#FFC0BB"/>
<path d="M20.339 12.2549C20.339 12.3641 20.3066 12.4709 20.2459 12.5616C20.1853 12.6524 20.0991 12.7231 19.9983 12.7649C19.8974 12.8067 19.7864 12.8177 19.6793 12.7964C19.5722 12.7751 19.4739 12.7225 19.3967 12.6453C19.3195 12.5681 19.2669 12.4697 19.2456 12.3627C19.2243 12.2556 19.2353 12.1446 19.2771 12.0437C19.3188 11.9428 19.3895 11.8567 19.4803 11.796C19.5711 11.7354 19.6778 11.7029 19.787 11.7029C19.8595 11.7028 19.9313 11.7171 19.9984 11.7448C20.0654 11.7724 20.1263 11.8131 20.1776 11.8644C20.2289 11.9157 20.2695 11.9765 20.2972 12.0436C20.3249 12.1106 20.3391 12.1824 20.339 12.2549V12.2549Z" fill="#1A1A1A"/>
</svg>
